<?xml version="1.0" encoding="utf-8"?>
<!-- Generator: Adobe Illustrator 15.0.0, SVG Export Plug-In . SVG Version: 6.00 Build 0)  -->
<!DOCTYPE svg PUBLIC "-//W3C//DTD SVG 1.1//EN" "http://www.w3.org/Graphics/SVG/1.1/DTD/svg11.dtd">
<svg version="1.1" id="Layer_1" xmlns="http://www.w3.org/2000/svg" xmlns:xlink="http://www.w3.org/1999/xlink" x="0px" y="0px"
	 width="228.667px" height="136.667px" viewBox="0 0 228.667 136.667" enable-background="new 0 0 228.667 136.667"
	 xml:space="preserve">
<path fill="#000100" d="M18.843,129.326l2.565,5.662h-5.11l-1.577-4.75H14v4.75H9.554V120.74h5.186c3.856,0,5.833,1.406,5.833,4.748
	C20.573,127.275,19.946,128.682,18.843,129.326z M14.816,124.311H14v2.699h0.816c0.855,0,1.121-0.133,1.121-1.35
	C15.937,124.539,15.709,124.311,14.816,124.311z M21.219,129.117c0-3.855,1.615-6.021,5.205-6.021c3.097,0,4.807,1.691,4.807,5.414
	c0,0.627-0.038,1.35-0.114,1.918h-5.623c0.171,0.969,0.836,1.35,2.223,1.35c0.969,0,1.919-0.133,2.831-0.398l0.437,3.172
	c-0.893,0.342-2.317,0.627-3.78,0.627C23.12,135.178,21.219,133.012,21.219,129.117z M27.431,127.787
	c-0.037-1.082-0.304-1.424-0.969-1.424c-0.722,0-0.931,0.209-1.025,1.424H27.431z M39.44,134.988l-0.323-0.799
	c-0.646,0.627-1.443,1.008-2.621,1.008c-2.641,0-4.18-1.9-4.18-6.156c0-3.875,1.501-5.984,4.065-5.984
	c0.779,0,1.52,0.248,2.146,0.742l0.038-0.039l-0.038-1.52v-1.898l4.123-0.191v14.838H39.44z M38.528,126.99
	c-0.171-0.229-0.475-0.418-0.873-0.418c-0.798,0-1.064,0.475-1.064,2.621c0,2.355,0.19,2.773,1.064,2.773
	c0.398,0,0.722-0.227,0.873-0.551V126.99z M53.12,134.988h-5.812V120.74h5.927c3.249,0,4.901,1.52,4.901,3.742
	c0,1.443-0.665,2.395-1.729,2.926v0.037c1.405,0.514,2.146,1.615,2.146,3.307C58.553,133.297,56.881,134.988,53.12,134.988z
	 M53.083,124.35H51.6v1.842h1.482c0.626,0,0.778-0.189,0.778-0.949C53.861,124.539,53.69,124.35,53.083,124.35z M53.139,129.422
	H51.6v2.033h1.596c0.703,0,0.855-0.172,0.855-1.027C54.051,129.688,53.917,129.422,53.139,129.422z M69.611,130.695
	c0,3.059-1.652,4.482-5.034,4.482s-5.034-1.539-5.034-4.482v-7.41h4.122v7.391c0,0.703,0.247,1.025,0.932,1.025
	c0.664,0,0.911-0.285,0.911-1.025v-7.391h4.104V130.695z M70.43,134.988v-14.646l4.16-0.191v14.838H70.43z M75.807,134.988v-14.646
	l4.16-0.191v14.838H75.807z M89.563,120.74l2.109,6.117l0.475,1.463h0.057l0.456-1.463l2.146-6.117h4.883v14.248h-4.065v-4.693
	l0.038-1.539l-0.058-0.018l-0.475,1.48l-1.596,4.77h-2.85l-1.596-4.787l-0.456-1.482l-0.038,0.02l0.02,1.539v4.711h-3.895V120.74
	H89.563z M111.241,130.695c0,3.059-1.652,4.482-5.034,4.482s-5.034-1.539-5.034-4.482v-7.41h4.122v7.391
	c0,0.703,0.247,1.025,0.932,1.025c0.664,0,0.911-0.285,0.911-1.025v-7.391h4.104V130.695z M116.011,135.215
	c-1.312,0-2.451-0.189-3.438-0.627l0.36-3.266c0.912,0.436,2.204,0.625,3.002,0.625c0.607,0,0.893-0.189,0.893-0.475
	c0-1.139-4.445-0.342-4.445-4.482c0-2.146,1.406-3.895,4.578-3.895c1.159,0,2.299,0.246,3.211,0.607l-0.285,3.211
	c-0.893-0.322-2.185-0.494-2.926-0.494c-0.475,0-0.664,0.133-0.664,0.398c0,1.121,4.331,0.418,4.331,4.312
	C120.627,133.602,119.317,135.215,116.011,135.215z M124.125,122.734c-1.482,0-2.185-0.438-2.185-1.539
	c0-1.025,0.702-1.557,2.185-1.557c1.52,0,2.165,0.531,2.165,1.557C126.29,122.203,125.644,122.734,124.125,122.734z
	 M122.015,134.988v-11.607l4.218-0.172v11.779H122.015z M135.01,126.838c-0.456-0.113-0.969-0.189-1.387-0.189
	c-1.652,0-2.09,0.607-2.09,2.641c0,1.748,0.779,2.564,1.995,2.564c0.569,0,1.063-0.096,1.538-0.229l0.267,3.059
	c-0.627,0.342-1.558,0.531-2.698,0.531c-3.457,0-5.376-2.014-5.376-5.945c0-3.875,1.634-6.154,5.434-6.154
	c0.836,0,1.899,0.15,2.526,0.398L135.01,126.838z M147.037,132.822h-3.191l-0.418,2.166h-4.673l4.046-14.248h5.452l4.142,14.248
	h-4.939L147.037,132.822z M145.175,126.191l-0.607,3.041h1.785l-0.589-3.021l-0.247-1.539h-0.057L145.175,126.191z M159.975,126.838
	c-0.456-0.113-0.969-0.189-1.387-0.189c-1.652,0-2.09,0.607-2.09,2.641c0,1.748,0.779,2.564,1.995,2.564
	c0.569,0,1.063-0.096,1.538-0.229l0.267,3.059c-0.627,0.342-1.558,0.531-2.698,0.531c-3.457,0-5.376-2.014-5.376-5.945
	c0-3.875,1.634-6.154,5.434-6.154c0.836,0,1.899,0.15,2.526,0.398L159.975,126.838z M167.481,134.152
	c-0.684,0.664-1.577,1.025-2.679,1.025c-2.146,0-3.495-1.35-3.495-3.99c0-2.184,1.558-3.76,3.933-3.76
	c0.684,0,1.12,0.074,1.576,0.17v-0.17c0-0.59-0.361-1.008-1.576-1.008c-1.217,0-1.862,0.172-2.907,0.551l-0.323-3.152
	c1.141-0.477,2.527-0.723,4.028-0.723c3.666,0,4.863,1.557,4.863,4.9v6.992h-3.154L167.481,134.152z M166.816,130.238
	c-0.228-0.057-0.456-0.096-0.778-0.096c-0.57,0-0.855,0.285-0.855,1.008c0,0.627,0.266,0.893,0.741,0.893
	c0.475,0,0.893-0.246,0.893-0.779V130.238z M179.109,134.988l-0.323-0.799c-0.646,0.627-1.443,1.008-2.621,1.008
	c-2.641,0-4.18-1.9-4.18-6.156c0-3.875,1.501-5.984,4.065-5.984c0.779,0,1.52,0.248,2.146,0.742l0.038-0.039l-0.038-1.52v-1.898
	l4.123-0.191v14.838H179.109z M178.197,126.99c-0.171-0.229-0.475-0.418-0.873-0.418c-0.798,0-1.064,0.475-1.064,2.621
	c0,2.355,0.19,2.773,1.064,2.773c0.398,0,0.722-0.227,0.873-0.551V126.99z M183.328,129.117c0-3.855,1.615-6.021,5.205-6.021
	c3.097,0,4.807,1.691,4.807,5.414c0,0.627-0.038,1.35-0.114,1.918h-5.623c0.171,0.969,0.836,1.35,2.223,1.35
	c0.969,0,1.919-0.133,2.831-0.398l0.437,3.172c-0.893,0.342-2.317,0.627-3.78,0.627
	C185.228,135.178,183.328,133.012,183.328,129.117z M189.54,127.787c-0.037-1.082-0.304-1.424-0.969-1.424
	c-0.722,0-0.931,0.209-1.025,1.424H189.54z M206.22,134.988v-7.371c0-0.74-0.304-1.084-0.873-1.084
	c-0.627,0-0.874,0.344-0.874,1.084v7.371h-4.123v-7.371c0-0.76-0.246-1.084-0.893-1.084c-0.38,0-0.665,0.172-0.854,0.418v8.037
	h-4.123v-11.627l2.983-0.17l0.569,0.91c0.779-0.664,1.748-1.062,2.717-1.062c1.272,0,2.166,0.436,2.793,1.348
	c0.798-0.93,1.805-1.33,3.001-1.33c2.242,0,3.8,1.539,3.8,4.504v7.428H206.22z M214.714,134.57l0.038-0.115l-4.54-11.17h4.654
	l1.767,6.688h0.057l0.229-1.52l0.949-5.168h4.351l-3.438,11.209c-0.779,2.564-2.394,3.686-4.73,3.686
	c-0.76,0-1.463-0.096-2.09-0.342l0.305-2.717c0.38,0.133,0.664,0.189,1.025,0.189C213.973,135.311,214.487,135.158,214.714,134.57z
	 M8.138,96.062c0.895,0.386,1.604-0.218,2.206-0.801c0.508-0.837,1.31-1.551,1.455-2.53c-0.256-0.616-1.021-1.201-1.623-0.819
	c-0.854,1.383-3.619,1.362-2.854,3.511C7.593,95.646,7.796,96.028,8.138,96.062z M5.05,96.554c-1.152,0.69-1.112,2.018-1.061,3.259
	c-0.02,0.782-0.93,1.202-0.817,2.035c0.854,0.295,1.657,0.769,2.599,0.82c0.53-1.581,0.878-3.257,1.312-4.896L5.61,96.322
	C5.392,96.322,5.23,96.48,5.05,96.554z M215.455,94.513c-0.814-0.873-2.018-1.486-2.439-2.601c-0.72-1.71-0.384-4.007-2.037-5.207
	c-1.525-0.306-3.311,0.057-4.482-1.145c-0.63-0.583-0.888-1.423-0.65-2.276c0.96-2.056,1.565-4.458,1.054-6.935
	c0.099-0.806-0.949-1.675,0-2.35c2.894,0.786,6.694,1.077,9.283-0.577c2.401-1.591,4.076-4.046,3.91-7.012
	c-0.63-4.116-3.454-7.391-6.749-10.338c-0.42-0.368-0.76-0.751-0.728-1.294c0.077-0.31,0.109-0.692,0.474-0.817
	c1.728-0.11,3.402-0.348,4.894-1.054c2.628-1.441,3.313-4.331,2.932-7.177c-0.106-0.181-0.09-0.544-0.396-0.488
	c-0.729,0.763-1.569,1.197-2.455,1.548c-3.318,0.451-6.445,1.309-8.866,3.911c-0.824,1.021-0.912,2.877-0.258,3.986
	c2.039,3.915,6.805,6.281,7.895,10.593c0.62,1.859-0.195,3.518-1.617,4.715c-2.169,1.352-5.242,1.11-7.421,0
	c-5.173-2.617-9.505-7.284-15.221-8.555c-3.315-0.399-6.118-2.003-8.649-4.314c-2.146-1.653-4.93-1.891-7.405-2.767
	c-2.279-2.401-4.982-3.787-7.829-4.878c-1.596-0.71-3.603-0.492-4.966-1.8c-0.9-1.349-2.273-2.55-3.565-3.422
	c-1.888-1.074-4.561-1.939-6.667-0.972c-4.683-7.605-11.511-13.749-19.637-17.589V5.457l-29.602,6.204v10.746
	c-12.456,2.765-23.031,10.577-29.45,21.182c-1.263,0.043-2.498,0.319-3.536,0.918c-3.457,3.047-7.755,4.116-11.815,5.776
	c-2.258,1.108-3.675,3.643-5.932,4.732c-3.094-0.053-5.826,0.75-8.067,2.767c-1.852,2.167-4.057,3.823-6.678,4.314
	c-4.679,0.144-8.539,2.164-11.901,5.463c-3.297,2.109-6.519,4.891-10.833,3.985c-1.623-0.439-3.185-1.912-3.75-3.497
	c-1.022-3.387,1.06-6.172,3.587-8.317c2.4-2.149,5.806-4.333,5.06-7.973c-0.565-3.096-4.007-3.698-6.52-4.249
	c-2.603-0.048-4.606-1.504-6.678-2.759c-0.493,0.766-0.676,1.637-0.582,2.601c0.2,2.402,2.163,4.879,4.479,5.624
	c1.506,0.858,3.569-0.363,4.969,0.733c0.415,0.397,0.252,0.813,0.163,1.307c-2.822,2.856-7.101,5.678-7.811,9.687
	c-0.564,3.221,0.582,6.24,3.095,8.317c2.731,2.109,7.136,2.584,10.341,1.144c0.381-0.145,0.889-0.12,1.147,0.312l0.323,4.402
	c0.166,2.055,1.806,3.587,1.552,5.7c-1.021,1.147-2.421,1.693-3.677,2.458l-3.257,0.327c-0.909,0.711-1.26,1.806-1.552,2.841
	c-0.107,2.348-2.765,3.765-4.477,4.896c-0.604,1.181-1.693,2.824-3.258,2.768c-1.09,1.252-1.166,2.932-1.546,4.476
	c1.489,0.149,2.891,0.747,4.475,0.402c1.947-0.421,2.187-2.528,3.257-3.818c1.277-1.336,2.988,0.144,4.406-0.336
	c1.803-0.89,3.555-1.98,5.044-3.65c3.423-1.734,7.315,1.029,10.593-0.825c1.455-1.689,3.862-1.397,4.97-3.495
	c0.6-1.617,1.804-2.984,2.041-4.73c-0.35-0.348-0.676-0.747-1.146-0.817c-0.386,0.748-0.859,1.436-1.295,2.132
	c-2.076,3.416-5.748,4.438-9.375,4.802c-4.807-0.11-9.156,0.855-12.306,4.806h-0.33c-0.216-0.071-0.342-0.182-0.397-0.42
	c1.657-2.93,4.639-5.024,7.829-5.464c5.004-0.483,10.612-0.614,13.359-5.532c1.763-2.637,1.239-6.222,2.021-9.282
	c0.035-0.362,0.274-0.673,0.654-0.657c0.204,0.089,0.51,0.148,0.586,0.42c-0.35,2.514-0.479,5.243,0.399,7.574
	c1.563,2.071,4.62,0.944,6.678,0.564c3.917-0.838,7.392,1.239,11.398,0.401c0.436-0.201,0.815-0.457,0.651-1.058
	c-0.16-0.875-0.689-1.583-0.492-2.603c0.131-0.29,0.42-0.49,0.75-0.49c0.6,0.326,0.49,1.092,0.73,1.636
	c1.579,4.622,8.387,4.37,8.788,9.776c-0.602,1.983-2.73,2.733-4.474,3.163c-3.245,0.749-3.955-3.198-5.795-4.874
	c-1.599-0.986-3.73-0.25-5.439,0c-0.436,0.164-0.584,0.604-0.492,1.055l1.945,3.167c0.712,1.512,2.621-0.271,3.425,1.236
	c0.746,1.639,2.329,3.607,4.314,3.664c2.983-0.624,5.638-1.936,8.39-3.097c1.059-1.365,3.076-0.382,4.406-1.151
	c0.026-0.011,0.049-0.028,0.074-0.04c8.402,11.29,21.826,18.633,36.948,18.633c15.244,0,28.758-7.461,37.147-18.905
	c0.722,0.264,1.8-0.118,2.557,0.242c1.495,2.202,4.078,2.077,6.213,2.931c1.508,0.507,2.983,1.369,4.713,1.149
	c1.636-0.495,2.639-2.221,2.763-3.842c0.528-0.786,1.84-0.09,2.441-0.894c0.722-1.124,1.675-2.109,2.131-3.332
	c-0.693-0.979-2.131-0.491-3.185-0.741c-0.254,0.11-0.695,0.089-0.897,0.089l-0.068-0.089c-2.351-0.148-2.389,2.544-3.593,3.832
	c-0.451,0.537-1.163,0.463-1.791,0.57c-1.92-0.695-4.902-0.966-5.044-3.661c0.739-1.581,2.435-2.984,3.822-4.076
	c1.577-0.306,3.013-1.165,4.072-2.604c0.818-0.745,0.49-2.404,1.947-2.455c0.654,1.037,0,2.366-0.491,3.347
	c2.734,0.314,5.39-0.141,7.925-0.579c3.871-0.932,7.512,1.183,11.226-0.235c1.876-0.936,2.002-3.047,2.203-4.88l-0.092-0.09
	l0.092-0.076c-0.02-0.979-0.27-1.854-0.399-2.783c-0.06-0.42-0.238-1,0.072-1.383c0.292-0.165,0.493-0.128,0.724,0.095
	c1.549,3.456,0.84,7.858,2.769,11.155c1.344,2.803,4.095,4.804,7.174,4.968c0.128,0.022,0.258-0.18,0.324,0
	c4.918-0.981,9.214,0.981,12.146,4.713v0.257c-0.183,0.183-0.344,0.424-0.656,0.327c-0.548-0.708-1.275-1-1.871-1.642
	c-2.721-2.616-6.653-2.779-10.433-2.344c-3.895,0.109-7.505-3.169-8.87-6.607c-0.328-0.348-0.305-1.092-0.904-1.056
	c-0.184,0.129-0.239,0.322-0.312,0.493c0.237,2.545,0.584,5.022,2.347,6.912c1.674,0.822,2.983,2.495,4.898,2.701
	c2.679-0.641,5.82-0.354,8.226,0.722c1.895,0.729,3.431,2.351,5.132,3.499c0.966,0.47,2.261,0.233,3.095-0.4
	c2.171-0.583,2.518,2,3.988,3.02c1.242,0.947,3.06,0.544,4.646,0.636l0.25-0.145c-0.216-1.495-0.525-2.948-1.146-4.24
	C217.57,97.956,216.51,95.884,215.455,94.513z M153.484,52.584c0.247,0.656,0.479,1.318,0.694,1.989
	c-0.107,0.094-0.211,0.188-0.302,0.28c-2.006,1.509-3.825,3.583-4.895,5.624h-0.17C148.666,57.27,150.846,54.467,153.484,52.584z
	 M107.137,18.726l23.873-4.824l0.02,10.582c-5.206-2.045-10.864-3.181-16.787-3.181c-2.418,0-4.794,0.19-7.112,0.551L107.137,18.726
	z M79.169,57.871c0.434,1.528,0.6,3.458,0.16,5.045l-0.234,0.162c-0.234-0.382-0.234-0.87-0.33-1.311
	c-0.326-1.926-1.184-3.658-2.271-5.295c-0.037-0.329,0-0.654,0.234-0.894c0.292-0.035,0.638-0.162,0.892,0
	C78.421,56.16,78.765,57.072,79.169,57.871z M157.372,83.356l-3.264,4.406l-0.468,0.98c-0.455,0.953-0.168,2.311-0.258,3.334
	c-0.802-0.424-0.852-1.421-1.14-2.202c-0.752-3.151,2.359-4.897,3.415-7.411c-0.689-0.292-1.313-0.743-2.107-0.817
	c-1.663,2-2.641,4.275-3.916,6.441c-0.073,0.572-0.041,1.119,0.044,1.654c-7.44,11.742-20.535,19.564-35.436,19.564
	c-14.297,0-26.923-7.207-34.497-18.161c0.387-0.752,0.682-1.538,0.565-2.489c-0.032-1.699-1.636-2.75-2.199-4.242
	c-0.324-0.768-0.638-1.605-1.056-2.275c-0.876-0.348-2.004-0.751-2.857-0.075c1.056,2.24,2.422,4.348,3.511,6.592
	c0.261,1.853-0.762,3.403-2.039,4.727c-0.182,0.188-0.432,0.024-0.58-0.162c0.398-1.345,0.93-2.727,0.822-4.15
	c-1.276-2.475-2.968-4.766-4.227-7.261c0.038-0.441,0.18-0.929,0.64-1.129c1.275-0.618,2.929-0.38,3.912-1.472
	c1.204-2.075,2.037-4.298,2.273-6.757c0.15-0.121,0.274-0.323,0.494-0.252c0.234,0.143,0.234,0.381,0.324,0.582
	c0.476,2.749-0.309,5.188-1.542,7.317c-0.186,0.256-0.021,0.528,0.156,0.747c0.917,0.398,1.881-0.075,2.772-0.165
	c1.672-1.2,4.07-0.673,5.95-1.381c0,0.196,0.328,0.236,0.237,0.473c-0.945,1.034-1.363,2.334-1.621,3.677
	c-1.127,1.274-2.856,2.31-2.856,4.077c0.292,0.726,0.928,0,1.386,0c0.31,0,0.491,0.345,0.415,0.638
	c-0.436,0.815-1.308,1.453-1.308,2.455c0.435,1.071,0,2.753,1.47,3.171c3.369,0.598,5.792-2.1,9.196-1.947
	c2.586,0.653,4.805-0.53,6.514-2.459c0.477-0.258,0.876,0.125,1.314,0.254c1.837,1.947,3.967,3.114,6.443,3.496
	c0.768,0.106,1.729,0.185,2.439-0.073c0.164-0.181,0.056-0.492-0.088-0.658c-1.822-0.712-3.609-1.728-4.973-3.423
	c-0.768-2.105-1.785-4.146-3.333-5.947c-0.124-0.112-0.124-0.404,0.072-0.476c1.747,0.417,3.223,2.185,4.005,3.733
	c1.419,2.179,3.551,3.985,6.266,3.752c0.323-0.092,0.819-0.06,0.726-0.569c-4.148-1.29-4.822-5.786-8.067-8.228
	c-1.577-3.932-3.001-7.915-3.729-12.211c-0.107-3.915-2.312-6.987-4.738-9.936c-3.818-5.79-9.807-9.085-14.807-13.365l-1.642-0.888
	c-0.26-0.156-0.543-0.288-0.827-0.417c5.738-8.746,14.651-15.225,25.093-17.787v12.843c-0.742-0.342-1.08-0.336-1.581-0.336
	c-5.025,0-9.434,4.681-9.434,7.792c0,2.115,1.672,3.341,3.905,3.341c2.455,0,5.418-1.282,7.591-3.561
	c1.728-1.837,2.338-3.672,2.338-6.959l0.045-13.713c2.316-0.398,4.695-0.618,7.124-0.618c5.968,0,11.644,1.261,16.789,3.519
	l0.001,4.334c-0.74-0.338-1.08-0.335-1.584-0.335c-5.021,0-9.428,4.675-9.428,7.792c0,2.117,1.673,3.343,3.904,3.343
	c2.457,0,5.414-1.282,7.589-3.561c1.728-1.841,2.342-3.674,2.342-6.96v-3.248c6.742,3.583,12.398,8.949,16.329,15.47
	c-5.289,3.967-10.898,7.155-15.861,11.835c-3.476,3.242-5.332,7.168-6.442,11.415c-2.601,7.427-3.2,16.38-11.069,20.933
	c-0.053,0.237,0.054,0.414,0.235,0.562c1.768,0.35,3.681-0.052,4.9-1.548c1.184-1.871,2.623-3.638,4.311-5.294h0.33
	c0.617,0.126,0.107,0.655,0.166,0.983c-2.371,2.256-2.409,5.622-5.552,7.409c-0.353,0.31-1.256,0.836-0.639,1.306
	c3.477,0.364,6.024-2.199,8.461-4.404l0.496-0.072c1.382,0.856,2.421,2.696,4.24,2.277c3.623-0.999,6.096,1.257,9.025,2.199
	c0.875,0.386,1.533-0.287,2.131-0.815c1.277-0.892,0.62-2.509,0.565-3.751l0.238-0.233c0.602-0.07,1.346,0.509,1.802-0.164
	c0.201-1.641-1.2-2.806-1.876-4.15c-0.363-2.677-3.44-4.227-3.91-6.848c0.146-0.11,0.25-0.307,0.412-0.326
	c1.243,0.729,2.263,1.949,3.498,2.676c1.876,0.947,4.133,0.909,6.356,0.983c0.344-0.074,0.344-0.416,0.321-0.731
	c-1.159-2.602-2.141-5.295-1.945-8.478c0.198-0.968-0.216-2.423,0.966-2.771c0.288,0.076,0.328,0.4,0.488,0.584
	c0.151,2.841,0.207,5.75,1.478,8.138c0.689,1.712,2.517,2.697,3.895,3.747C157.517,81.866,157.681,82.718,157.372,83.356z
	 M95.622,73.422c-0.416-0.204-0.924-0.184-1.292,0.162l-1.31,1.543c-0.436-0.198-0.222-0.909-0.159-1.288
	c0.469-1.186,1.125-2.313,1.543-3.514c0.222-0.367,0.744-0.258,1.056-0.167c1.271,0.819,1.511,2.325,2.763,3.263
	c0.986,1.321,1.605,3.309,0.75,4.896c-0.252,0.015-0.564,0.342-0.75,0C98.408,76.26,97.207,74.599,95.622,73.422z M92.861,86.617
	c0.688-0.618,1.395-1.423,2.433-0.97l0.166,0.641c0.11,0.617-0.146,1.091-0.397,1.546c-0.86,0.238-1.75,0.604-2.697,0.329
	C92.128,87.577,92.695,87.127,92.861,86.617z M137.493,74.638c-0.183-0.219-0.259-0.55-0.562-0.639
	c-1.186-0.289-2.061,0.693-2.933,1.387c-1.438,0.875-1.857,2.33-2.201,3.747c-0.092,0.255-0.366,0.112-0.563,0.166
	c-0.732-0.724,0-1.638,0-2.46c0.729-2.476,3.532-3.857,4.88-6.093c1.436-0.059,1.613,1.584,2.293,2.434
	c0.18,0.693,1.069,1.564,0.162,2.207C138.078,75.479,137.636,75.061,137.493,74.638z M137.583,88.163
	c-0.598,0.184-1.216,0-1.798-0.075c-0.678-0.362-0.71-1.145-0.896-1.8c0.146-0.214,0.034-0.618,0.328-0.728
	c0.819,0.053,1.602,0.361,2.115,0.979C137.548,87.034,137.982,87.619,137.583,88.163z M224.507,97.699
	c-0.3-0.47-0.643-0.961-1.147-1.219c-0.82-0.418-1.33,0.581-1.784,1.058c-0.132,1.239,0.484,2.383,0.724,3.58
	c0.16,0.568-0.033,1.372,0.494,1.712l2.434-0.728l0.094-0.65C224.341,100.483,224.891,98.905,224.507,97.699z M218.475,91.842
	l-0.578-0.098c-0.384,0.354-1.259,0.583-1.063,1.315c0.846,1.127,1.428,2.982,3.031,3.171c0.52-0.24,1.182-0.37,1.449-0.969
	c0.08-0.423,0.278-0.784,0-1.148L218.475,91.842z M162.825,89.144l-0.063,0.073c-0.582-0.182-1.31,0.036-1.877-0.146
	c-0.618,0.805-1.036,1.788-0.82,2.842c0.366,0.655,1.146,0.672,1.712,0.985c0.617,0.034,1.511,0.323,1.949-0.256
	c0.436-1.039,0.779-2.115,0.978-3.259c-0.145-0.183-0.326-0.275-0.558-0.239C163.681,89.125,163.175,89.181,162.825,89.144z
	 M68.571,92.004c0.11-0.401-0.198-0.621-0.308-0.908c-0.398-0.806-0.584-1.679-1.072-2.439c-1.035-0.039-2.221,0.035-3.258,0.25
	l-0.078-0.09c-0.286,0.148-0.654,0.055-0.98,0.09c-0.163,0.112-0.233,0.274-0.233,0.477c1.417,0.836,1.764,2.403,2.529,3.677
	C66.41,93.694,67.591,92.716,68.571,92.004z"/>
</svg>
