<?xml version="1.0" encoding="utf-8"?>
<!-- Generator: Adobe Illustrator 15.1.0, SVG Export Plug-In . SVG Version: 6.00 Build 0)  -->
<!DOCTYPE svg PUBLIC "-//W3C//DTD SVG 1.1//EN" "http://www.w3.org/Graphics/SVG/1.1/DTD/svg11.dtd">
<svg version="1.1" id="Layer_1" xmlns="http://www.w3.org/2000/svg" xmlns:xlink="http://www.w3.org/1999/xlink" x="0px" y="0px"
	 width="627px" height="531px" viewBox="0 0 627 531" enable-background="new 0 0 627 531" xml:space="preserve">
<g>
	<g>
		<path fill="#FFFFFF" d="M212.357,239.5h-17.353l-8.806-44.547l-8.892,44.547h-17.697l-12.346-60.431h12.949l9.065,49.035
			l9.755-49.035h14.331l10.015,49.035l8.46-49.035h12.346L212.357,239.5z"/>
		<path fill="#FFFFFF" d="M258.879,239.5v-29.353c0-5.611-3.108-8.633-8.201-8.633c-5.698,0-10.188,3.712-10.188,11.309V239.5
			h-11.654v-63.885h11.654v21.583c2.936-3.195,7.252-5.612,13.296-5.612c10.532,0,16.748,5.957,16.748,15.541V239.5H258.879z"/>
		<path fill="#FFFFFF" d="M307.219,208.852v-1.64c0-3.713-1.554-6.13-8.548-6.13c-8.805,0-8.978,4.92-8.978,6.474H278.47
			c0-6.992,3.626-15.971,21.238-15.971c16.748,0,19.164,8.374,19.164,15.194v26.072c0,3.625,0.604,6.647,0.604,6.647h-11.912v-4.748
			c-3.282,3.366-8.374,5.352-15.022,5.352c-9.324,0-16.058-5.352-16.058-14.849c0-10.792,10.273-13.296,14.417-13.899
			L307.219,208.852z M307.219,217.745c0,0-8.203,1.208-11.914,1.898c-1.899,0.346-3.712,0.778-5.008,1.812
			c-1.122,0.864-1.812,2.159-1.812,3.886c0,1.295,0.518,5.698,6.993,5.698c3.799,0,7.165-1.382,8.979-3.195
			c2.244-2.33,2.762-5.352,2.762-7.597V217.745z"/>
		<path fill="#FFFFFF" d="M342.865,239.931c-9.15,0-12.517-3.281-12.517-11.05v-26.936h-7.165v-9.755h7.165v-13.122h11.653v13.122
			h10.619v9.755h-10.619v23.569c0,3.54,0.951,4.143,4.749,4.143c2.244,0,4.835-0.171,4.835-0.171v9.841
			C351.586,239.326,347.786,239.931,342.865,239.931z"/>
	</g>
	<g>
		<path fill="#FFFFFF" d="M182.573,275.575v-20.029h11.655v63.885h-11.482v-4.229c-2.763,2.762-7.684,4.834-13.036,4.834
			c-9.41,0-15.021-4.317-17.957-10.187c-1.899-3.713-2.763-8.289-2.763-13.036c0-13.641,6.216-25.296,21.929-25.296
			C176.098,271.517,179.81,273.07,182.573,275.575z M171.437,310.366c3.712,0,6.561-1.208,8.374-3.454
			c1.985-2.417,2.763-6.128,2.763-10.963c0-3.627,0-7.338-1.554-10.102c-1.467-2.676-4.316-4.576-8.546-4.576
			c-8.633,0-11.568,6.735-11.568,15.195C160.904,302.424,162.372,310.366,171.437,310.366z"/>
		<path fill="#FFFFFF" d="M202.768,266.682v-11.136h11.654v11.136H202.768z M202.768,319.431v-47.31h11.654v47.31H202.768z"/>
		<path fill="#FFFFFF" d="M266.131,281.877v37.554h-11.654v-37.554h-15.712v37.554H227.11v-37.554h-7.77v-9.756h7.77v-4.92
			c0-7.598,4.23-11.655,12.777-11.655c4.662,0,8.978,0.173,8.978,0.173v10.1c0,0-2.762-0.172-5.784-0.172
			c-2.245,0-4.316,0.26-4.316,3.194v3.28h15.712v-5.524c0-7.597,4.23-11.655,12.776-11.655c4.663,0,8.979,0.173,8.979,0.173v10.101
			c0,0-2.763-0.173-5.785-0.173c-2.244,0-4.316,0.259-4.316,3.194v3.885h10.101v9.756H266.131z"/>
		<path fill="#FFFFFF" d="M278.468,296.035c0-16.059,10.015-24.519,22.963-24.519c14.245,0,21.757,10.446,21.757,24.433
			c0,0.518,0,2.503,0,2.503h-32.633c0,5.353,2.158,11.914,10.706,11.914c4.661,0,8.46-2.332,9.409-6.733l11.827,0.259
			c-1.467,9.409-8.978,16.144-21.497,16.144C287.792,320.035,278.468,312.093,278.468,296.035z M310.843,290.078
			c-0.345-6.475-4.748-8.978-9.497-8.978c-5.438,0-9.755,3.366-10.359,8.978H310.843z"/>
		<path fill="#FFFFFF" d="M353.31,283.862c-7.511,0-11.999,2.849-11.999,10.36v25.208h-11.654v-47.31h11.223v6.994
			c2.158-4.317,6.562-6.994,12.26-6.994h3.453v11.741H353.31z"/>
		<path fill="#FFFFFF" d="M359.09,296.035c0-16.059,10.014-24.519,22.964-24.519c14.245,0,21.756,10.446,21.756,24.433
			c0,0.518,0,2.503,0,2.503h-32.634c0,5.353,2.159,11.914,10.705,11.914c4.663,0,8.46-2.332,9.41-6.733l11.827,0.259
			c-1.467,9.409-8.978,16.144-21.496,16.144C368.414,320.035,359.09,312.093,359.09,296.035z M391.464,290.078
			c-0.346-6.475-4.748-8.978-9.497-8.978c-5.438,0-9.756,3.366-10.358,8.978H391.464z"/>
		<path fill="#FFFFFF" d="M440.32,319.431v-29.353c0-5.611-3.107-8.633-8.201-8.633c-5.698,0-10.188,3.712-10.188,11.309v26.677
			h-11.653v-47.31h11.481v5.008c2.677-3.194,7.426-5.612,13.468-5.612c10.531,0,16.747,5.957,16.747,15.541v32.373H440.32z"/>
		<path fill="#FFFFFF" d="M458.184,296.035c0-16.488,9.584-24.519,22.532-24.519c11.655,0,19.942,6.216,21.152,18.044h-11.914
			c-0.604-5.181-3.886-8.374-9.064-8.374c-6.13,0-10.706,4.229-10.706,14.59c0,10.359,4.402,14.59,10.447,14.59
			c5.006,0,8.719-2.85,9.323-8.028h11.914c-0.864,10.272-8.548,17.697-21.67,17.697C466.99,320.035,458.184,312.093,458.184,296.035
			z"/>
		<path fill="#FFFFFF" d="M505.745,296.035c0-16.059,10.015-24.519,22.964-24.519c14.245,0,21.756,10.446,21.756,24.433
			c0,0.518,0,2.503,0,2.503h-32.632c0,5.353,2.157,11.914,10.704,11.914c4.662,0,8.46-2.332,9.409-6.733l11.828,0.259
			c-1.467,9.409-8.978,16.144-21.497,16.144C515.069,320.035,505.745,312.093,505.745,296.035z M538.119,290.078
			c-0.344-6.475-4.747-8.978-9.496-8.978c-5.438,0-9.755,3.366-10.358,8.978H538.119z"/>
	</g>
	<g>
		<path fill="#FFFFFF" d="M319.901,355.508v-20.029h11.656v63.885h-11.481v-4.229c-2.764,2.762-7.686,4.834-13.038,4.834
			c-9.409,0-15.021-4.316-17.956-10.187c-1.899-3.713-2.763-8.288-2.763-13.036c0-13.641,6.217-25.296,21.929-25.296
			C313.429,351.449,317.14,353.004,319.901,355.508z M308.766,390.299c3.712,0,6.562-1.208,8.374-3.454
			c1.985-2.417,2.762-6.128,2.762-10.963c0-3.627,0-7.338-1.553-10.102c-1.468-2.676-4.316-4.575-8.547-4.575
			c-8.633,0-11.568,6.734-11.568,15.194C298.233,382.356,299.702,390.299,308.766,390.299z"/>
		<path fill="#FFFFFF" d="M337.939,375.709c0-16.059,9.495-24.26,22.704-24.26s22.705,8.201,22.705,24.26
			c0,16.058-9.496,24.259-22.705,24.259S337.939,391.767,337.939,375.709z M349.854,375.709c0,10.359,4.66,14.59,10.79,14.59
			s10.793-4.23,10.793-14.59c0-10.36-4.663-14.59-10.793-14.59S349.854,365.349,349.854,375.709z"/>
		<path fill="#FFFFFF" d="M387.573,375.968c0-16.059,10.014-24.519,22.964-24.519c14.244,0,21.755,10.446,21.755,24.433
			c0,0.518,0,2.503,0,2.503h-32.634c0,5.353,2.159,11.914,10.706,11.914c4.662,0,8.46-2.332,9.41-6.733l11.827,0.259
			c-1.468,9.409-8.979,16.144-21.496,16.144C396.896,399.968,387.573,392.025,387.573,375.968z M419.946,370.011
			c-0.346-6.475-4.749-8.978-9.496-8.978c-5.439,0-9.756,3.366-10.36,8.978H419.946z"/>
		<path fill="#FFFFFF" d="M456.544,360.17c-3.195,0-7.684,0.949-7.684,4.835c0,1.812,1.209,3.193,3.281,3.798
			c4.661,1.381,13.035,1.381,18.905,4.403c3.714,1.898,6.562,5.179,6.562,11.136c0,7.165-4.662,15.626-21.323,15.626
			c-19.253,0-20.029-13.209-20.029-15.626h11.482c0,4.835,4.315,6.647,9.325,6.647c6.387,0,8.719-2.503,8.719-5.525
			c0-3.625-4.576-4.315-9.929-5.008c-2.762-0.344-5.612-0.776-8.288-1.554c-5.524-1.64-10.358-5.006-10.358-13.036
			c0-9.582,8.806-14.417,19.682-14.417c17.785,0,19.425,11.051,19.425,14.505h-11.482
			C464.831,362.155,461.552,360.17,456.544,360.17z"/>
		<path fill="#FFFFFF" d="M503.065,346.615v-11.137h11.655v11.137H503.065z M503.065,399.363v-47.309h11.655v47.309H503.065z"/>
		<path fill="#FFFFFF" d="M538.804,399.795c-9.15,0-12.517-3.28-12.517-11.05V361.81h-7.165v-9.755h7.165v-13.122h11.653v13.122
			h10.619v9.755H537.94v23.568c0,3.54,0.951,4.144,4.749,4.144c2.245,0,4.835-0.172,4.835-0.172v9.841
			C547.524,399.19,543.725,399.795,538.804,399.795z"/>
	</g>
	<g>
		<path fill="#FFFFFF" d="M262.763,479.296h-11.655v-29.438c0-4.661-1.899-8.547-7.337-8.547c-4.49,0-8.461,3.107-8.461,9.843
			v28.143h-11.654v-47.309h11.396v4.747c2.159-2.848,5.957-5.352,11.914-5.352c6.389,0,10.36,2.59,12.691,6.562
			c3.54-4.576,8.892-6.562,14.503-6.562c10.187,0,16.058,6.303,16.058,15.28v32.633h-11.654v-29.438
			c0-4.661-2.159-8.547-7.598-8.547c-4.489,0-8.201,3.107-8.201,9.843V479.296z"/>
		<path fill="#FFFFFF" d="M327.069,448.648v-1.64c0-3.713-1.554-6.13-8.547-6.13c-8.805,0-8.979,4.92-8.979,6.475H298.32
			c0-6.992,3.626-15.971,21.238-15.971c16.748,0,19.164,8.374,19.164,15.194v26.072c0,3.625,0.604,6.646,0.604,6.646h-11.912v-4.747
			c-3.282,3.366-8.374,5.353-15.021,5.353c-9.325,0-16.059-5.353-16.059-14.849c0-10.792,10.273-13.297,14.417-13.899
			L327.069,448.648z M327.069,457.542c0,0-8.203,1.207-11.914,1.898c-1.898,0.346-3.713,0.777-5.008,1.812
			c-1.122,0.863-1.812,2.158-1.812,3.885c0,1.296,0.519,5.698,6.992,5.698c3.8,0,7.166-1.382,8.98-3.194
			c2.244-2.33,2.762-5.353,2.762-7.597V457.542z"/>
		<path fill="#FFFFFF" d="M391.464,431.987l-17.524,18.043l18.389,29.266h-13.727l-12.949-21.237l-6.821,7.338v13.899h-11.654
			v-63.885h11.654v35.742l18.043-19.166H391.464z"/>
		<path fill="#FFFFFF" d="M391.891,455.9c0-16.058,10.015-24.518,22.964-24.518c14.244,0,21.755,10.445,21.755,24.432
			c0,0.518,0,2.503,0,2.503h-32.632c0,5.353,2.156,11.914,10.705,11.914c4.66,0,8.46-2.331,9.409-6.733l11.828,0.259
			c-1.468,9.409-8.979,16.145-21.497,16.145C401.214,479.901,391.891,471.958,391.891,455.9z M424.264,449.943
			c-0.345-6.475-4.747-8.978-9.495-8.978c-5.439,0-9.755,3.367-10.359,8.978H424.264z"/>
		<path fill="#FFFFFF" d="M457.668,418.261c5.179,0,9.15,1.295,12.087,3.452c3.798,2.764,5.783,7.079,5.783,12.433
			c0,12.604-12.862,18.042-13.468,25.899h-11.309c0.086-8.289,5.784-13.382,9.755-18.13c1.64-1.899,3.193-4.92,3.193-7.598
			c0-3.799-2.33-6.475-6.562-6.475c-5.265,0-7.597,3.54-7.597,9.584H438.07C438.07,427.67,443.337,418.261,457.668,418.261z
			 M450.069,479.296V466.52h12.777v12.776H450.069z"/>
	</g>
	<g>
		<path fill="#FFFFFF" d="M405.366,86.464h2.196c1.739,0,2.336-0.859,2.846-2.315l3.706-10.769h-2.828l-1.88,6.359l-1.88-6.359
			h-2.934l3.374,9.715c-0.177,0.772-0.388,1.088-0.949,1.088h-1.651V86.464z M398.536,77.365c0-1.282,0.737-1.862,1.562-1.862
			c1.004,0,1.39,0.738,1.39,1.599v5.99h2.705v-6.623c0-1.878-1.229-3.211-3.426-3.211c-1.144,0-2.179,0.368-2.916,1.228
			c-0.458-0.72-1.247-1.228-2.564-1.228c-1.143,0-1.985,0.455-2.46,1.035v-0.914h-2.67v9.712h2.705v-5.725
			c0-1.284,0.755-1.864,1.581-1.864c1.002,0,1.371,0.738,1.371,1.599v5.99h2.722V77.365z M382.424,77.033
			c0.105-0.966,0.895-1.652,1.897-1.652c0.842,0,1.65,0.457,1.757,1.652H382.424z M384.233,83.215c3.337,0,4.461-2.194,4.602-3.407
			l-2.67-0.052c-0.036,0.316-0.439,1.265-1.844,1.265c-1.478,0-1.986-1.125-1.986-2.197h6.676v-0.334
			c0-3.091-1.687-5.231-4.708-5.231c-2.791,0-4.792,1.982-4.792,4.986C379.511,81.144,381.126,83.215,384.233,83.215
			 M371.517,78.261c0-1.318,0.491-2.811,2.179-2.811c0.563,0,1.178,0.123,1.547,0.667c0.28,0.405,0.402,1.02,0.402,2.108
			c0,0.844-0.051,1.511-0.35,2.003c-0.299,0.476-0.862,0.792-1.706,0.792c-1.738,0-2.072-1.581-2.072-2.758V78.261z M375.681,83.092
			h2.652V70.096h-2.705v3.898c-0.42-0.404-1.247-0.736-2.338-0.736c-2.88,0-4.547,2.157-4.547,5.056
			c0,1.442,0.492,4.901,4.302,4.901c1.529,0,2.337-0.632,2.636-0.946V83.092z M358.982,76.558h2.613
			c0-0.387,0.105-1.195,1.705-1.195c1.303,0,1.617,0.457,1.617,1.125v0.333l-3.199,0.458c-0.896,0.124-3.054,0.667-3.054,2.881
			c0,1.95,1.369,3.055,3.371,3.055c1.669,0,2.531-0.562,2.953-1v0.877h2.859c0,0-0.209-0.738-0.209-1.44v-5.235
			c0-1.404-0.598-3.159-4.163-3.159C359.788,73.258,359.017,75.136,358.982,76.558 M364.918,79.369c0,0.826-0.561,1.88-2.162,1.88
			c-1.037,0-1.317-0.65-1.317-1.089c0-0.615,0.475-1.001,1.125-1.124c0.667-0.141,2.354-0.351,2.354-0.351V79.369z M355.306,79.422
			c-0.176,1.159-0.967,1.598-1.827,1.598c-1.106,0-1.984-0.791-1.984-2.775c0-2.004,0.86-2.794,2.019-2.794
			c0.915,0.001,1.617,0.456,1.759,1.651h2.722c-0.229-2.563-2.021-3.844-4.462-3.844c-2.792,0-4.827,1.738-4.827,5.022
			c0,3.303,1.896,4.935,4.686,4.935c2.496,0,4.34-1.281,4.62-3.792H355.306z M344.251,78.403h-2.829l1.424-5.445L344.251,78.403z
			 M344.883,80.773l0.633,2.319h3.021l-3.689-12.295h-3.881l-3.671,12.295h2.88l0.598-2.319H344.883z M330.635,79.422
			c-0.178,1.159-0.967,1.598-1.827,1.598c-1.106,0-1.985-0.791-1.985-2.775c0-2.004,0.86-2.794,2.02-2.794
			c0.913,0.001,1.615,0.456,1.757,1.651h2.724c-0.229-2.563-2.021-3.844-4.463-3.844c-2.791,0-4.826,1.738-4.826,5.022
			c0,3.303,1.896,4.935,4.686,4.935c2.495,0,4.34-1.281,4.62-3.792H330.635z M322.832,73.379h-2.702v9.711h2.702V73.379z
			 M322.832,70.096h-2.702v2.353h2.702V70.096z M315.99,76.259h2.65c0-0.756-0.386-3.001-4.18-3.001
			c-2.319,0-4.163,1.035-4.163,3.036c0,2.268,1.825,2.742,3.917,3.023l0.527,0.071c0.756,0.105,1.458,0.263,1.458,0.86
			c0,0.703-0.756,0.985-1.616,0.985c-0.933-0.001-1.759-0.283-1.759-1.212h-2.721c0,0.508,0.228,3.194,4.322,3.194
			c3.634,0,4.513-1.773,4.513-3.266c0-3.919-5.937-2.354-5.937-3.849c0-0.667,0.737-0.878,1.424-0.878
			C315.356,75.224,315.99,75.591,315.99,76.259 M308.936,83.092v-9.712h-2.703v5.586c0,1.284-0.687,2.055-1.846,2.055
			c-0.933,0-1.477-0.545-1.477-1.65v-5.991h-2.705v6.5c0,1.897,1.108,3.336,3.372,3.336c1.354,0,2.215-0.492,2.689-0.982v0.859
			H308.936z M291.888,79.438l-2.461-8.641h-4.109v12.295h2.739V74.38l2.512,8.711h2.637l2.512-8.711v8.711h2.738V70.797h-4.108
			L291.888,79.438z M279.957,70.096h-2.703v12.996h2.703V70.096z M275.631,70.096h-2.703v12.996h2.703V70.096z M271.291,83.092
			v-9.712h-2.702v5.586c0,1.284-0.687,2.055-1.846,2.055c-0.931,0-1.477-0.545-1.477-1.65v-5.991h-2.702v6.5
			c0,1.897,1.105,3.336,3.371,3.336c1.353,0,2.215-0.492,2.689-0.982v0.859H271.291z M258.237,74.328
			c0,0.878-0.597,1.352-1.44,1.352h-2.724v-2.636h2.689C257.588,73.044,258.237,73.448,258.237,74.328 M258.589,79.352
			c0,0.966-0.58,1.511-1.687,1.511h-2.829V77.91h2.794C257.938,77.91,258.589,78.455,258.589,79.352 M261.398,79.439
			c0-1.793-1.228-2.565-2.106-2.863c0.718-0.351,1.667-1.177,1.667-2.582c0-2.407-2.019-3.197-3.88-3.197h-5.779v12.295h5.85
			C260.082,83.092,261.398,81.196,261.398,79.439 M239.123,78.261c0-1.318,0.492-2.811,2.18-2.811c0.562,0,1.177,0.123,1.546,0.667
			c0.282,0.405,0.405,1.02,0.405,2.108c0,0.844-0.053,1.511-0.354,2.003c-0.298,0.476-0.86,0.792-1.704,0.792
			c-1.741,0-2.074-1.581-2.074-2.758V78.261z M243.289,83.092h2.65V70.096h-2.703v3.898c-0.423-0.404-1.249-0.736-2.337-0.736
			c-2.881,0-4.548,2.157-4.548,5.056c0,1.442,0.49,4.901,4.302,4.901c1.528,0,2.336-0.632,2.636-0.946V83.092z M229.056,77.033
			c0.105-0.966,0.896-1.652,1.897-1.652c0.843,0,1.651,0.457,1.756,1.652H229.056z M230.865,83.215c3.337,0,4.462-2.194,4.603-3.407
			l-2.67-0.052c-0.035,0.316-0.439,1.265-1.844,1.265c-1.476,0-1.985-1.125-1.985-2.197h6.675v-0.334
			c0-3.091-1.687-5.231-4.708-5.231c-2.793,0-4.794,1.982-4.794,4.986C226.142,81.144,227.757,83.215,230.865,83.215
			 M218.286,76.122v-3.06h2.461c1.125,0,1.721,0.51,1.721,1.512c0,0.914-0.72,1.548-1.844,1.548H218.286z M224.996,79.385
			c0-1.124-0.544-1.965-1.72-2.211c1.281-0.597,1.878-1.774,1.878-3.021c0-1.897-1.298-3.355-4.003-3.355h-5.639v12.295h2.774
			v-4.672h2.391c1.037,0,1.545,0.457,1.545,1.405v1.897c0,0.544,0,1.16,0.123,1.37h2.915c-0.123-0.193-0.264-0.755-0.264-1.176
			V79.385z"/>
		<path fill="#FFFFFF" d="M362.015,53.377c-0.384-0.413-0.954-0.703-1.151-1.229c-0.343-0.808-0.18-1.894-0.963-2.458
			c-0.721-0.146-1.564,0.025-2.116-0.542c-0.299-0.276-0.422-0.672-0.309-1.076c0.454-0.971,0.74-2.105,0.499-3.276
			c0.044-0.379-0.447-0.791,0-1.109c1.368,0.37,3.162,0.508,4.384-0.274c1.136-0.75,1.928-1.911,1.849-3.312
			c-0.299-1.943-1.634-3.491-3.189-4.883c-0.197-0.173-0.358-0.354-0.344-0.612c0.035-0.146,0.051-0.326,0.223-0.386
			c0.816-0.052,1.609-0.163,2.312-0.499c1.242-0.68,1.566-2.045,1.387-3.389c-0.052-0.086-0.043-0.259-0.188-0.231
			c-0.344,0.36-0.741,0.565-1.158,0.73c-1.569,0.214-3.048,0.62-4.188,1.848c-0.389,0.483-0.432,1.36-0.123,1.884
			c0.964,1.848,3.217,2.967,3.732,5.003c0.29,0.878-0.096,1.661-0.765,2.228c-1.026,0.638-2.479,0.524-3.508,0
			c-2.442-1.237-4.49-3.44-7.189-4.042c-1.565-0.189-2.89-0.946-4.084-2.037c-1.016-0.781-2.33-0.895-3.5-1.308
			c-1.076-1.135-2.354-1.788-3.698-2.304c-0.756-0.337-1.704-0.233-2.346-0.852c-0.426-0.636-1.075-1.203-1.686-1.615
			c-0.939-0.535-2.297-0.974-3.312-0.387c-0.08,0.068-0.161,0.133-0.242,0.201c-2.096-3.521-5.184-6.389-8.871-8.216V12.06
			l-13.982,2.929v4.551c-5.749,1.272-10.63,4.879-13.593,9.774c-0.706-0.026-1.413,0.106-1.989,0.44
			c-1.634,1.439-3.664,1.944-5.582,2.728c-1.067,0.524-1.737,1.721-2.803,2.235c-1.461-0.024-2.752,0.354-3.811,1.309
			c-0.875,1.023-1.916,1.805-3.154,2.038c-2.209,0.067-4.035,1.021-5.623,2.579c-1.557,0.999-3.079,2.313-5.116,1.884
			c-0.767-0.208-1.504-0.904-1.772-1.651c-0.481-1.6,0.5-2.916,1.695-3.931c1.134-1.014,2.743-2.045,2.39-3.765
			c-0.268-1.462-1.893-1.746-3.08-2.006c-1.229-0.022-2.175-0.712-3.154-1.303c-0.233,0.36-0.319,0.771-0.275,1.228
			c0.093,1.134,1.023,2.305,2.115,2.657c0.712,0.406,1.687-0.172,2.347,0.346c0.198,0.187,0.12,0.384,0.08,0.616
			c-1.334,1.351-3.355,2.683-3.69,4.577c-0.268,1.521,0.273,2.947,1.462,3.928c1.289,0.997,3.369,1.221,4.885,0.541
			c0.18-0.068,0.42-0.058,0.542,0.146l0.152,2.081c0.079,0.97,0.854,1.693,0.732,2.692c-0.481,0.542-1.144,0.799-1.736,1.161
			l-1.539,0.155c-0.429,0.335-0.594,0.852-0.732,1.342c-0.051,1.108-1.308,1.778-2.115,2.313c-0.285,0.558-0.799,1.333-1.54,1.306
			c-0.513,0.592-0.549,1.384-0.729,2.116c0.705,0.069,1.366,0.351,2.115,0.189c0.919-0.199,1.032-1.194,1.538-1.805
			c0.603-0.63,1.412,0.068,2.082-0.157c0.85-0.422,1.677-0.937,2.383-1.726c1.614-0.818,3.454,0.487,5.003-0.391
			c0.688-0.798,1.824-0.66,2.347-1.65c0.284-0.764,0.852-1.409,0.964-2.233c-0.165-0.164-0.317-0.353-0.541-0.387
			c-0.182,0.353-0.405,0.678-0.611,1.006c-0.98,1.614-2.717,2.098-4.428,2.269c-2.271-0.051-4.328,0.405-5.814,2.271h-0.155
			c-0.103-0.034-0.163-0.087-0.189-0.197c0.783-1.385,2.193-2.375,3.698-2.581c2.365-0.229,5.015-0.291,6.312-2.615
			c0.833-1.245,0.585-2.939,0.955-4.384c0.016-0.171,0.13-0.318,0.31-0.311c0.094,0.043,0.239,0.069,0.275,0.198
			c-0.165,1.187-0.225,2.477,0.189,3.577c0.74,0.979,2.184,0.447,3.156,0.267c1.849-0.395,3.491,0.585,5.382,0.19
			c0.207-0.095,0.387-0.215,0.309-0.499c-0.076-0.415-0.326-0.749-0.232-1.231c0.062-0.136,0.199-0.229,0.352-0.229
			c0.285,0.153,0.233,0.514,0.346,0.771c0.746,2.185,3.962,2.064,4.152,4.619c-0.283,0.936-1.29,1.291-2.115,1.496
			c-1.533,0.353-1.868-1.512-2.735-2.306c-0.755-0.464-1.763-0.117-2.571,0c-0.204,0.08-0.275,0.288-0.232,0.501l0.92,1.496
			c0.335,0.714,1.237-0.129,1.618,0.584c0.352,0.774,1.101,1.704,2.038,1.729c1.41-0.292,2.664-0.912,3.962-1.462
			c0.501-0.645,1.453-0.179,2.082-0.542c0.203-0.079,0.329-0.241,0.445-0.421c3.881,5.103,10.021,8.407,16.914,8.407
			c7.112,0,13.415-3.516,17.273-8.895c0.027,0.11,0.053,0.221,0.071,0.333c0.174,0.793,1.018,0.292,1.541,0.542
			c0.706,1.041,1.927,0.982,2.935,1.384c0.714,0.24,1.41,0.647,2.226,0.543c0.773-0.233,1.247-1.05,1.306-1.814
			c0.25-0.372,0.869-0.044,1.153-0.425c0.344-0.53,0.792-0.995,1.007-1.572c-0.327-0.462-1.007-0.233-1.504-0.352
			c-0.12,0.051-0.327,0.043-0.424,0.043l-0.032-0.043c-1.109-0.07-1.131,1.204-1.697,1.811c-0.213,0.253-0.55,0.218-0.849,0.27
			c-0.903-0.328-2.313-0.457-2.382-1.729c0.352-0.747,1.15-1.41,1.807-1.925c0.745-0.146,1.424-0.55,1.925-1.231
			c0.386-0.351,0.231-1.136,0.92-1.16c0.309,0.489,0,1.117-0.234,1.581c1.293,0.149,2.548-0.067,3.744-0.273
			c1.828-0.44,3.55,0.56,5.304-0.112c0.885-0.441,0.948-1.438,1.041-2.305l-0.045-0.043l0.045-0.034
			c-0.009-0.464-0.129-0.876-0.189-1.316c-0.026-0.197-0.112-0.471,0.033-0.653c0.14-0.079,0.234-0.06,0.345,0.044
			c0.731,1.634,0.396,3.712,1.308,5.27c0.635,1.325,1.933,2.271,3.387,2.346c0.062,0.01,0.122-0.085,0.156,0
			c2.321-0.462,4.353,0.464,5.736,2.227v0.122c-0.087,0.086-0.164,0.201-0.31,0.155c-0.258-0.335-0.603-0.473-0.886-0.774
			c-1.285-1.237-3.144-1.314-4.928-1.108c-1.841,0.051-3.545-1.496-4.188-3.121c-0.157-0.164-0.146-0.517-0.429-0.499
			c-0.086,0.062-0.112,0.152-0.146,0.231c0.11,1.204,0.275,2.375,1.106,3.267c0.792,0.387,1.409,1.179,2.315,1.275
			c1.264-0.303,2.751-0.165,3.885,0.341c0.895,0.346,1.619,1.111,2.424,1.653c0.456,0.222,1.068,0.111,1.463-0.189
			c1.023-0.275,1.189,0.944,1.884,1.426c0.586,0.448,1.444,0.258,2.193,0.302l0.12-0.068c-0.104-0.706-0.249-1.394-0.541-2.003
			C363.014,55.003,362.513,54.024,362.015,53.377 M333.036,33.368c0.233-0.008,0.49-0.025,0.577,0.234
			c0.129,0.455-0.403,0.747-0.688,1.039c-0.947,0.715-1.809,1.694-2.312,2.658h-0.08C330.459,35.666,331.661,34.254,333.036,33.368
			 M310.847,18.184l11.276-2.278l0.009,4.724c-2.487-1.022-5.205-1.588-8.059-1.588c-1.098,0-2.178,0.085-3.23,0.248L310.847,18.184
			z M296.482,34.984c0.138-0.015,0.3-0.077,0.42,0c0.38,0.275,0.542,0.705,0.733,1.084c0.203,0.722,0.283,1.634,0.075,2.382
			l-0.111,0.078c-0.109-0.181-0.109-0.413-0.155-0.62c-0.154-0.91-0.56-1.728-1.073-2.501
			C296.352,35.251,296.371,35.098,296.482,34.984 M334.577,48.107l-1.541,2.082l-0.223,0.461c-0.215,0.452-0.077,1.093-0.12,1.577
			c-0.378-0.201-0.402-0.672-0.541-1.041c-0.353-1.489,1.117-2.314,1.615-3.502c-0.325-0.138-0.62-0.35-0.994-0.385
			c-0.786,0.946-1.247,2.02-1.854,3.043c-0.042,0.34-0.008,0.662,0.058,0.977c-3.611,5.512-9.838,9.161-16.904,9.161
			c-6.715,0-12.673-3.299-16.349-8.355c0.256-0.463,0.521-0.921,0.45-1.514c-0.017-0.802-0.772-1.3-1.039-2.004
			c-0.154-0.362-0.302-0.759-0.499-1.074c-0.413-0.164-0.946-0.356-1.349-0.035c0.498,1.059,1.142,2.053,1.657,3.113
			c0.123,0.876-0.36,1.607-0.964,2.234c-0.085,0.088-0.205,0.011-0.273-0.079c0.188-0.634,0.438-1.288,0.388-1.959
			c-0.603-1.169-1.4-2.25-1.997-3.429c0.019-0.209,0.085-0.441,0.304-0.536c0.602-0.291,1.384-0.178,1.848-0.695
			c0.569-0.98,0.963-2.029,1.074-3.19c0.069-0.059,0.128-0.154,0.232-0.12c0.111,0.067,0.111,0.18,0.154,0.275
			c0.224,1.298-0.146,2.449-0.729,3.457c-0.088,0.12-0.009,0.248,0.074,0.352c0.435,0.188,0.889-0.035,1.311-0.079
			c0.79-0.564,1.924-0.316,2.809-0.651c0,0.092,0.157,0.112,0.114,0.224c-0.447,0.489-0.644,1.101-0.767,1.736
			c-0.533,0.602-1.35,1.092-1.35,1.926c0.138,0.345,0.439,0,0.655,0c0.146,0,0.231,0.163,0.197,0.302
			c-0.206,0.385-0.621,0.687-0.621,1.159c0.208,0.507,0,1.3,0.696,1.498c1.592,0.283,2.736-0.991,4.345-0.92
			c1.221,0.31,2.271-0.248,3.078-1.161c0.224-0.123,0.413,0.06,0.618,0.12c0.868,0.919,1.876,1.473,3.045,1.651
			c0.362,0.05,0.816,0.086,1.152-0.035c0.077-0.083,0.026-0.231-0.041-0.309c-0.86-0.337-1.705-0.817-2.349-1.618
			c-0.363-0.994-0.844-1.958-1.575-2.809c-0.058-0.054-0.058-0.191,0.034-0.226c0.826,0.198,1.522,1.032,1.893,1.762
			c0.669,1.032,1.677,1.883,2.959,1.773c0.154-0.043,0.386-0.028,0.343-0.268c-1.958-0.609-2.278-2.733-3.811-3.888
			c-0.746-1.858-1.418-3.738-1.762-5.768c-0.051-1.851-1.092-3.302-2.238-4.693c-1.803-2.736-4.632-4.294-6.996-6.314l-0.773-0.42
			c-0.305-0.182-0.648-0.326-1.013-0.426c2.795-4.406,7.25-7.66,12.476-8.879v6.773c-0.352-0.161-0.512-0.158-0.749-0.158
			c-2.371,0-4.454,2.21-4.454,3.68c0,1,0.789,1.578,1.844,1.578c1.161,0,2.56-0.605,3.586-1.682
			c0.816-0.866,1.104-1.734,1.104-3.287l0.023-7.17c1.054-0.168,2.133-0.26,3.233-0.26c2.863,0,5.59,0.6,8.059,1.679l0.006,2.69
			c-0.353-0.158-0.514-0.156-0.751-0.156c-2.373,0-4.456,2.207-4.456,3.68c0,1.001,0.792,1.579,1.845,1.579
			c1.163,0,2.56-0.604,3.586-1.682c0.816-0.869,1.106-1.736,1.106-3.289v-2.18c3.347,1.769,6.144,4.446,8.05,7.705
			c-2.596,1.995-5.379,3.532-7.828,5.84c-1.643,1.533-2.519,3.388-3.043,5.393c-1.229,3.509-1.513,7.737-5.229,9.887
			c-0.024,0.114,0.024,0.198,0.111,0.268c0.834,0.165,1.737-0.025,2.314-0.732c0.559-0.886,1.238-1.718,2.039-2.5h0.154
			c0.291,0.059,0.051,0.309,0.077,0.464c-1.118,1.065-1.138,2.655-2.623,3.5c-0.165,0.145-0.594,0.396-0.301,0.618
			c1.642,0.171,2.847-1.041,3.997-2.082l0.233-0.034c0.654,0.404,1.144,1.274,2.004,1.074c1.713-0.471,2.879,0.595,4.263,1.041
			c0.415,0.182,0.724-0.137,1.008-0.386c0.604-0.421,0.293-1.186,0.266-1.772l0.113-0.11c0.283-0.034,0.635,0.24,0.853-0.078
			c0.094-0.774-0.569-1.325-0.887-1.961c-0.172-1.263-1.627-1.995-1.849-3.233c0.07-0.053,0.119-0.145,0.196-0.154
			c0.587,0.344,1.067,0.92,1.652,1.265c0.887,0.448,1.953,0.427,3.002,0.462c0.163-0.035,0.163-0.196,0.151-0.344
			c-0.547-1.229-1.012-2.502-0.919-4.005c0.093-0.458-0.102-1.145,0.456-1.309c0.137,0.035,0.156,0.189,0.231,0.275
			c0.071,1.342,0.098,2.717,0.698,3.844c0.325,0.809,1.188,1.275,1.839,1.77C334.646,47.403,334.723,47.806,334.577,48.107
			 M305.406,43.413c-0.196-0.095-0.437-0.086-0.609,0.078l-0.619,0.729c-0.204-0.092-0.104-0.429-0.075-0.609
			c0.223-0.559,0.531-1.091,0.729-1.658c0.105-0.174,0.352-0.122,0.499-0.079c0.599,0.388,0.714,1.098,1.306,1.54
			c0.466,0.627,0.757,1.563,0.353,2.314c-0.118,0.007-0.265,0.161-0.353,0C306.724,44.754,306.155,43.97,305.406,43.413
			 M304.103,49.647c0.324-0.292,0.66-0.672,1.149-0.458l0.078,0.301c0.053,0.293-0.07,0.517-0.19,0.73
			c-0.402,0.113-0.824,0.288-1.271,0.157C303.756,50.101,304.025,49.887,304.103,49.647 M325.185,43.988
			c-0.082-0.103-0.119-0.26-0.264-0.302c-0.56-0.137-0.974,0.328-1.386,0.654c-0.679,0.414-0.878,1.102-1.04,1.771
			c-0.043,0.12-0.172,0.053-0.267,0.078c-0.346-0.342,0-0.772,0-1.162c0.344-1.169,1.669-1.823,2.305-2.879
			c0.679-0.026,0.764,0.749,1.084,1.151c0.085,0.327,0.506,0.74,0.077,1.041C325.464,44.385,325.254,44.187,325.185,43.988
			 M325.228,50.377c-0.279,0.086-0.574,0-0.848-0.035c-0.321-0.173-0.336-0.542-0.424-0.852c0.068-0.101,0.017-0.291,0.154-0.342
			c0.387,0.025,0.759,0.17,0.999,0.462C325.212,49.844,325.418,50.12,325.228,50.377 M292.63,52.191
			c0.051-0.188-0.096-0.293-0.147-0.429c-0.188-0.381-0.275-0.792-0.506-1.152c-0.49-0.019-1.05,0.017-1.54,0.119l-0.037-0.043
			c-0.134,0.069-0.309,0.027-0.461,0.043c-0.08,0.053-0.113,0.129-0.113,0.224c0.67,0.396,0.835,1.136,1.196,1.736
			C291.606,52.991,292.166,52.527,292.63,52.191 M337.778,50.842c-0.221-0.012-0.459,0.016-0.625,0l-0.031,0.033
			c-0.274-0.086-0.618,0.016-0.884-0.069c-0.295,0.38-0.492,0.844-0.391,1.342c0.175,0.31,0.542,0.318,0.808,0.465
			c0.293,0.016,0.715,0.152,0.924-0.12c0.206-0.49,0.369-0.999,0.462-1.541C337.973,50.868,337.885,50.823,337.778,50.842
			 M264.08,54.109c0.423,0.182,0.758-0.103,1.042-0.379c0.24-0.396,0.62-0.732,0.687-1.195c-0.12-0.291-0.482-0.566-0.766-0.387
			c-0.403,0.653-1.709,0.643-1.35,1.659C263.823,53.911,263.919,54.093,264.08,54.109 M363.442,52.114l-0.273-0.044
			c-0.182,0.166-0.596,0.275-0.5,0.619c0.396,0.535,0.672,1.411,1.431,1.499c0.243-0.114,0.558-0.174,0.684-0.458
			c0.037-0.198,0.132-0.369,0-0.543L363.442,52.114z M262.621,54.342c-0.545,0.325-0.525,0.953-0.5,1.539
			c-0.009,0.369-0.438,0.568-0.387,0.961c0.404,0.14,0.783,0.362,1.228,0.388c0.252-0.748,0.416-1.538,0.621-2.313l-0.697-0.686
			C262.781,54.231,262.706,54.307,262.621,54.342 M366.29,54.882c-0.14-0.221-0.3-0.454-0.54-0.575
			c-0.388-0.197-0.629,0.275-0.844,0.5c-0.06,0.585,0.229,1.125,0.343,1.692c0.077,0.268-0.017,0.647,0.233,0.808l1.149-0.344
			l0.044-0.307C366.213,56.198,366.472,55.452,366.29,54.882"/>
		<path fill="#FFFFFF" d="M352.332,110.046h1.995c-0.057-0.989-0.626-3.023-4.032-3.023c-2.721,0-4.204,1.311-4.204,3.023
			c0,3.161,3.272,2.836,5.175,3.275c0.839,0.19,1.201,0.495,1.201,1.161c0,0.685-0.591,1.467-2.325,1.467
			c-1.579,0-2.131-0.82-2.149-1.638H345.9c0.058,2.15,1.843,3.252,4.129,3.252c3.635,0,4.47-1.861,4.47-3.252
			c0-3.141-3.462-2.797-5.326-3.273c-0.668-0.172-1.066-0.496-1.066-1.105c0-1.046,1.295-1.294,2.112-1.294
			C351.4,108.638,352.237,108.979,352.332,110.046 M344.078,117.372v-1.671c0,0-0.801,0.037-1.18,0.037
			c-0.972,0-1.162-0.171-1.162-1.238v-5.673h2.512v-1.672h-2.512v-3.043h-2.015v3.043h-1.637v1.672h1.637v6.243
			c0,1.504,0.53,2.435,2.357,2.435C343.126,117.505,344.078,117.372,344.078,117.372 M336.261,117.429v-7.079
			c0-2.017-1.406-3.328-3.613-3.328c-1.522,0-2.591,0.646-3.18,1.405v-1.272h-1.995v10.274h2.014v-5.708
			c0-1.961,1.201-2.969,2.666-2.969c1.333,0,2.095,0.742,2.095,2.208v6.47H336.261z M320.484,115.89
			c-2.096,0-2.762-1.618-2.799-3.161h7.308v-0.513c0-3.369-1.77-5.193-4.565-5.193c-2.799,0-4.814,2.053-4.814,5.269
			c0,3.445,1.862,5.271,4.7,5.271c3.597,0,4.488-2.416,4.603-3.575l-1.979-0.038C322.844,114.729,322.14,115.89,320.484,115.89
			 M317.762,111.152c0.17-1.542,1.16-2.478,2.627-2.478c1.237,0,2.437,0.629,2.475,2.478H317.762z M311.507,110.046h1.997
			c-0.057-0.989-0.627-3.023-4.032-3.023c-2.722,0-4.206,1.311-4.206,3.023c0,3.161,3.271,2.836,5.177,3.275
			c0.836,0.19,1.199,0.495,1.199,1.161c0,0.685-0.591,1.467-2.321,1.467c-1.581,0-2.133-0.82-2.153-1.638h-2.092
			c0.058,2.15,1.845,3.252,4.128,3.252c3.635,0,4.473-1.861,4.473-3.252c0-3.141-3.462-2.797-5.328-3.273
			c-0.666-0.172-1.066-0.496-1.066-1.105c0-1.046,1.294-1.294,2.113-1.294C310.575,108.638,311.413,108.979,311.507,110.046
			 M298.658,115.89c-2.094,0-2.761-1.618-2.8-3.161h7.309v-0.513c0-3.369-1.767-5.193-4.566-5.193c-2.799,0-4.812,2.053-4.812,5.269
			c0,3.445,1.863,5.271,4.699,5.271c3.597,0,4.488-2.416,4.603-3.575l-1.976-0.038C301.021,114.729,300.315,115.89,298.658,115.89
			 M295.936,111.152c0.171-1.542,1.162-2.478,2.627-2.478c1.239,0,2.438,0.629,2.475,2.478H295.936z M292.344,109.208v-2.053h-0.723
			c-0.932,0-2.245,0.342-2.931,1.634v-1.634h-1.976v10.274h2.014v-5.595c0-1.921,1.027-2.626,2.949-2.626H292.344z M282.222,112.332
			c0,2.131-0.951,3.56-2.894,3.56c-1.027,0-1.714-0.4-2.094-0.952c-0.476-0.703-0.552-1.617-0.552-2.626
			c0-0.875,0.095-1.694,0.399-2.303c0.399-0.802,1.181-1.315,2.418-1.315c2,0,2.723,1.598,2.723,3.635V112.332z M279.537,117.562
			c3.33,0,4.737-2.51,4.737-5.422c0-2.552-1.159-5.118-4.471-5.118c-1.275,0-2.438,0.513-3.104,1.291v-1.158h-2.015v13.928h2.015
			v-4.566C277.119,116.955,277.938,117.562,279.537,117.562"/>
		<path fill="#FFFFFF" d="M522.265,506.9c1.649,0,2.288,1.078,2.321,1.917h2.438c-0.016-1.495-1.125-3.97-4.66-3.97
			c-4.04,0-5.403,3.298-5.403,6.11c0,2.408,0.841,6.041,5.285,6.041c3.267,0,4.679-2.153,4.83-4.054h-2.422
			c-0.017,0.59-0.472,2.004-2.357,2.004c-1.768,0-2.88-1.398-2.88-3.957C519.417,508.297,520.462,506.9,522.265,506.9
			 M514.742,505.032h-2.321v11.782h2.321V505.032z M510.262,513.165c0-1.483-0.792-2.24-1.749-2.696
			c-2.039-0.993-5.069-0.537-5.069-2.306c0-0.842,0.673-1.398,2.021-1.398c1.952,0.002,2.139,1.128,2.205,1.769h2.389
			c-0.186-2.827-2.287-3.686-4.646-3.686c-2.273,0-4.342,1.161-4.342,3.482c0,1.146,0.438,1.938,0.992,2.426
			c1.868,1.65,5.859,0.741,5.859,2.678c0,1.33-1.381,1.599-2.375,1.599c-1.447,0-2.273-0.64-2.273-1.935h-2.404
			c0.065,2.641,1.949,3.901,4.577,3.901C508.378,516.999,510.262,515.756,510.262,513.165z M494.208,515.051
			c-1.483,0-2.493-0.826-2.493-2.443v-7.575h-2.321v7.374c0,3.216,2.07,4.593,4.746,4.593c2.693,0,4.73-1.311,4.73-4.526v-7.44
			h-2.221v7.526C496.649,514.174,495.706,515.051,494.208,515.051 M480.77,513.601l-2.375-8.568h-3.652v11.782h2.323v-8.768
			l2.49,8.768h2.426l2.491-8.768v8.768h2.322v-11.782h-3.652L480.77,513.601z M460.365,511.026c0-2.694,1.095-4.126,2.896-4.126
			c1.649,0,2.256,1.078,2.29,1.917h2.422c-0.016-1.495-1.109-3.97-4.645-3.97c-4.04,0-5.421,3.298-5.421,6.11
			c0,3.046,1.279,6.041,5.219,6.041c1.297,0,2.356-0.453,3.115-1.294v1.109h2.103v-6.377h-5.033v2.017h2.812
			c-0.034,0.896-0.554,2.495-2.827,2.495C460.938,514.949,460.365,512.909,460.365,511.026 M455.685,516.814v-11.782h-2.304v8.214
			l-4.363-8.214h-2.943v11.782h2.323v-8.279l4.46,8.279H455.685z M443.399,505.032h-2.321v11.782h2.321V505.032z M436.566,516.814
			h2.795l-4.597-6.749l4.344-5.033h-2.776l-4.546,5.403v-5.403h-2.322v11.782h2.322v-3.265l1.464-1.7L436.566,516.814z
			 M423.961,512.457h-3.131l1.547-5.639L423.961,512.457z M419.635,516.814l0.639-2.355h4.259l0.674,2.355h2.543l-3.637-11.782
			h-3.367l-3.535,11.782H419.635z M409.459,513.601l-2.374-8.568h-3.651v11.782h2.32v-8.768l2.493,8.768h2.425l2.493-8.768v8.768
			h2.318v-11.782h-3.649L409.459,513.601z M397.455,507.103v-2.07h-9.256v2.07h3.467v9.712h2.321v-9.712H397.455z M381.777,515.051
			c-1.482,0-2.493-0.826-2.493-2.443v-7.575h-2.321v7.374c0,3.216,2.07,4.593,4.748,4.593c2.692,0,4.728-1.311,4.728-4.526v-7.44
			h-2.219v7.526C384.22,514.174,383.276,515.051,381.777,515.051 M372.433,510.94c0,2.459-1.095,4.009-2.881,4.009
			c-1.801,0-2.879-1.55-2.879-4.009c0-2.61,1.078-4.04,2.879-4.04C371.338,506.9,372.433,508.33,372.433,510.94 M374.888,510.94
			c0-3.822-2.338-6.093-5.336-6.093c-3.015,0-5.335,2.271-5.335,6.093c0,3.84,2.32,6.059,5.335,6.059
			C372.55,516.999,374.888,514.78,374.888,510.94 M360.313,513.23c0,1.011-0.606,1.633-1.786,1.633h-2.846v-3.147h2.829
			C359.64,511.716,360.313,512.303,360.313,513.23 M359.942,508.382c0,0.927-0.589,1.449-1.498,1.449h-2.763v-2.848h2.729
			C359.285,506.983,359.942,507.455,359.942,508.382 M362.669,513.365c0-1.938-1.362-2.559-2.053-2.777
			c0.555-0.285,1.631-0.992,1.631-2.542c0-2.273-1.85-3.014-3.551-3.014h-5.335v11.782h5.403
			C361.457,516.814,362.669,515.017,362.669,513.365 M347.857,512.457h-3.131l1.549-5.639L347.857,512.457z M343.53,516.814
			l0.639-2.355h4.261l0.675,2.355h2.54l-3.636-11.782h-3.367l-3.534,11.782H343.53z M329.356,513.601l-2.376-8.568h-3.649v11.782
			h2.32v-8.768l2.493,8.768h2.424l2.493-8.768v8.768h2.319v-11.782h-3.651L329.356,513.601z M321.368,516.814v-2.067h-5.775v-9.715
			h-2.32v11.782H321.368z M310.597,505.032h-2.321v11.782h2.321V505.032z M306.198,507.103v-2.07h-8.179v11.782h2.32v-4.493h5.455
			v-2.104h-5.455v-3.114H306.198z M288.507,512.457h-3.133l1.549-5.639L288.507,512.457z M284.18,516.814l0.64-2.355h4.258
			l0.675,2.355h2.541l-3.636-11.782h-3.367l-3.536,11.782H284.18z"/>
	</g>
</g>
</svg>
