<?xml version="1.0" encoding="utf-8"?>
<!-- Generator: Adobe Illustrator 15.0.0, SVG Export Plug-In  -->
<!DOCTYPE svg PUBLIC "-//W3C//DTD SVG 1.1//EN" "http://www.w3.org/Graphics/SVG/1.1/DTD/svg11.dtd" [
	<!ENTITY ns_flows "http://ns.adobe.com/Flows/1.0/">
]>
<svg version="1.1"
	 xmlns="http://www.w3.org/2000/svg" xmlns:xlink="http://www.w3.org/1999/xlink" xmlns:a="http://ns.adobe.com/AdobeSVGViewerExtensions/3.0/"
	 x="0px" y="0px" width="842px" height="595px" viewBox="-135.733 -45.06 842 595"
	 overflow="visible" enable-background="new -135.733 -45.06 842 595" xml:space="preserve">
<defs>
</defs>
<path fill="#FFFFFF" d="M206.391,227.44h-17.353l-8.807-44.547l-8.892,44.547h-17.697l-12.346-60.431h12.949l9.065,49.035
	l9.755-49.035h14.331l10.015,49.035l8.461-49.035h12.346L206.391,227.44z"/>
<path fill="#FFFFFF" d="M252.914,227.44v-29.353c0-5.611-3.108-8.633-8.201-8.633c-5.698,0-10.188,3.712-10.188,11.309v26.677
	h-11.653v-63.885h11.653v21.583c2.937-3.195,7.252-5.612,13.296-5.612c10.532,0,16.748,5.957,16.748,15.541v32.373H252.914z"/>
<path fill="#FFFFFF" d="M301.253,196.792v-1.64c0-3.713-1.555-6.13-8.549-6.13c-8.805,0-8.978,4.92-8.978,6.474h-11.224
	c0-6.992,3.626-15.971,21.237-15.971c16.748,0,19.164,8.374,19.164,15.194v26.072c0,3.625,0.605,6.647,0.605,6.647h-11.912v-4.748
	c-3.283,3.366-8.375,5.352-15.023,5.352c-9.323,0-16.057-5.352-16.057-14.849c0-10.792,10.273-13.296,14.417-13.899L301.253,196.792
	z M301.253,205.685c0,0-8.203,1.208-11.914,1.898c-1.9,0.346-3.712,0.778-5.009,1.812c-1.121,0.864-1.812,2.159-1.812,3.886
	c0,1.295,0.518,5.698,6.993,5.698c3.799,0,7.166-1.382,8.979-3.195c2.244-2.33,2.764-5.352,2.764-7.597V205.685z"/>
<path fill="#FFFFFF" d="M336.899,227.871c-9.15,0-12.518-3.281-12.518-11.05v-26.936h-7.164v-9.755h7.164v-13.122h11.652v13.122
	h10.619v9.755h-10.619v23.569c0,3.54,0.951,4.143,4.75,4.143c2.244,0,4.834-0.171,4.834-0.171v9.841
	C345.62,227.266,341.819,227.871,336.899,227.871z"/>
<path fill="#FFFFFF" d="M176.606,263.516v-20.03h11.655v63.885h-11.482v-4.229c-2.763,2.762-7.684,4.834-13.036,4.834
	c-9.41,0-15.021-4.317-17.957-10.188c-1.899-3.713-2.763-8.289-2.763-13.036c0-13.642,6.216-25.296,21.929-25.296
	C170.132,259.457,173.844,261.01,176.606,263.516z M165.47,298.307c3.712,0,6.561-1.209,8.374-3.455
	c1.984-2.416,2.763-6.127,2.763-10.963c0-3.627,0-7.338-1.554-10.102c-1.467-2.676-4.316-4.576-8.546-4.576
	c-8.633,0-11.568,6.734-11.568,15.195C154.937,290.363,156.405,298.307,165.47,298.307z"/>
<path fill="#FFFFFF" d="M196.801,254.622v-11.136h11.653v11.136H196.801z M196.801,307.371v-47.311h11.653v47.311H196.801z"/>
<path fill="#FFFFFF" d="M260.166,269.816v37.555h-11.654v-37.555h-15.712v37.555h-11.655v-37.555h-7.77v-9.756h7.77v-4.92
	c0-7.598,4.23-11.655,12.777-11.655c4.662,0,8.978,0.173,8.978,0.173v10.1c0,0-2.762-0.172-5.784-0.172
	c-2.244,0-4.315,0.259-4.315,3.194v3.279h15.712v-5.523c0-7.597,4.229-11.655,12.775-11.655c4.663,0,8.979,0.173,8.979,0.173v10.101
	c0,0-2.763-0.173-5.785-0.173c-2.244,0-4.315,0.259-4.315,3.194v3.886h10.101v9.756h-10.101V269.816z"/>
<path fill="#FFFFFF" d="M272.502,283.975c0-16.059,10.015-24.519,22.963-24.519c14.244,0,21.756,10.446,21.756,24.433
	c0,0.518,0,2.504,0,2.504h-32.632c0,5.353,2.158,11.914,10.707,11.914c4.66,0,8.459-2.332,9.408-6.734l11.826,0.26
	c-1.467,9.408-8.977,16.145-21.496,16.145C281.826,307.975,272.502,300.033,272.502,283.975z M304.876,278.018
	c-0.346-6.475-4.748-8.978-9.496-8.978c-5.439,0-9.755,3.366-10.36,8.978H304.876z"/>
<path fill="#FFFFFF" d="M347.343,271.802c-7.51,0-11.998,2.849-11.998,10.36v25.208H323.69v-47.31h11.223v6.993
	c2.158-4.317,6.562-6.993,12.26-6.993h3.453v11.74L347.343,271.802L347.343,271.802z"/>
<path fill="#FFFFFF" d="M353.124,283.975c0-16.059,10.014-24.519,22.963-24.519c14.246,0,21.756,10.446,21.756,24.433
	c0,0.518,0,2.504,0,2.504H365.21c0,5.353,2.158,11.914,10.703,11.914c4.664,0,8.461-2.332,9.41-6.734l11.828,0.26
	c-1.467,9.408-8.979,16.145-21.496,16.145C362.448,307.975,353.124,300.033,353.124,283.975z M385.497,278.018
	c-0.346-6.475-4.748-8.978-9.496-8.978c-5.439,0-9.758,3.366-10.359,8.978H385.497z"/>
<path fill="#FFFFFF" d="M434.354,307.371v-29.354c0-5.611-3.107-8.633-8.201-8.633c-5.699,0-10.188,3.713-10.188,11.309v26.678
	h-11.654v-47.311h11.482v5.008c2.676-3.193,7.426-5.611,13.467-5.611c10.531,0,16.748,5.957,16.748,15.541v32.373H434.354
	L434.354,307.371z"/>
<path fill="#FFFFFF" d="M452.218,283.975c0-16.488,9.584-24.519,22.531-24.519c11.654,0,19.941,6.216,21.152,18.044h-11.914
	c-0.604-5.182-3.887-8.374-9.064-8.374c-6.129,0-10.705,4.229-10.705,14.59c0,10.358,4.4,14.591,10.445,14.591
	c5.008,0,8.721-2.851,9.324-8.029h11.914c-0.865,10.272-8.549,17.697-21.67,17.697C461.024,307.975,452.218,300.033,452.218,283.975
	z"/>
<path fill="#FFFFFF" d="M499.778,283.975c0-16.059,10.016-24.519,22.965-24.519c14.244,0,21.756,10.446,21.756,24.433
	c0,0.518,0,2.504,0,2.504h-32.633c0,5.353,2.158,11.914,10.705,11.914c4.662,0,8.459-2.332,9.408-6.734l11.828,0.26
	c-1.467,9.408-8.979,16.145-21.496,16.145C509.103,307.975,499.778,300.033,499.778,283.975z M532.153,278.018
	c-0.344-6.475-4.748-8.978-9.496-8.978c-5.438,0-9.756,3.366-10.357,8.978H532.153z"/>
<path fill="#FFFFFF" d="M313.935,343.447v-20.028h11.656v63.886h-11.48v-4.23c-2.764,2.764-7.686,4.834-13.039,4.834
	c-9.408,0-15.02-4.314-17.956-10.186c-1.898-3.713-2.763-8.289-2.763-13.037c0-13.641,6.216-25.295,21.929-25.295
	C307.462,339.389,311.173,340.943,313.935,343.447z M302.8,378.238c3.711,0,6.561-1.207,8.373-3.453
	c1.984-2.418,2.762-6.129,2.762-10.963c0-3.627,0-7.338-1.553-10.102c-1.467-2.678-4.316-4.576-8.547-4.576
	c-8.633,0-11.568,6.734-11.568,15.195C292.267,370.297,293.735,378.238,302.8,378.238z"/>
<path fill="#FFFFFF" d="M331.974,363.648c0-16.059,9.494-24.26,22.703-24.26s22.705,8.201,22.705,24.26s-9.496,24.26-22.705,24.26
	S331.974,379.707,331.974,363.648z M343.888,363.648c0,10.359,4.66,14.59,10.789,14.59c6.131,0,10.793-4.229,10.793-14.59
	c0-10.359-4.662-14.59-10.793-14.59C348.548,349.059,343.888,353.289,343.888,363.648z"/>
<path fill="#FFFFFF" d="M381.606,363.908c0-16.059,10.014-24.52,22.965-24.52c14.244,0,21.754,10.446,21.754,24.434
	c0,0.518,0,2.502,0,2.502h-32.633c0,5.354,2.158,11.914,10.705,11.914c4.662,0,8.461-2.332,9.41-6.732l11.828,0.26
	c-1.469,9.408-8.98,16.143-21.496,16.143C390.931,387.908,381.606,379.965,381.606,363.908z M413.979,357.951
	c-0.346-6.475-4.748-8.979-9.496-8.979c-5.438,0-9.756,3.367-10.359,8.979H413.979z"/>
<path fill="#FFFFFF" d="M450.577,348.109c-3.193,0-7.684,0.949-7.684,4.836c0,1.812,1.209,3.193,3.281,3.797
	c4.662,1.381,13.035,1.381,18.904,4.404c3.715,1.896,6.562,5.178,6.562,11.135c0,7.166-4.662,15.627-21.322,15.627
	c-19.254,0-20.029-13.209-20.029-15.627h11.482c0,4.836,4.314,6.648,9.324,6.648c6.387,0,8.719-2.504,8.719-5.525
	c0-3.625-4.576-4.314-9.928-5.008c-2.762-0.344-5.613-0.777-8.289-1.555c-5.523-1.641-10.357-5.006-10.357-13.035
	c0-9.582,8.807-14.418,19.682-14.418c17.785,0,19.426,11.051,19.426,14.506h-11.482
	C458.864,350.095,455.585,348.109,450.577,348.109z"/>
<path fill="#FFFFFF" d="M497.099,334.555v-11.137h11.656v11.137H497.099z M497.099,387.303v-47.309h11.656v47.309H497.099z"/>
<path fill="#FFFFFF" d="M532.837,387.734c-9.15,0-12.518-3.279-12.518-11.049V349.75h-7.164v-9.755h7.164v-13.122h11.654v13.122
	h10.619v9.755h-10.619v23.568c0,3.539,0.951,4.145,4.748,4.145c2.246,0,4.836-0.174,4.836-0.174v9.842
	C541.558,387.131,537.759,387.734,532.837,387.734z"/>
<path fill="#FFFFFF" d="M256.796,467.236h-11.655v-29.438c0-4.662-1.899-8.549-7.337-8.549c-4.49,0-8.461,3.107-8.461,9.844v28.143
	h-11.654v-47.309h11.396v4.748c2.158-2.85,5.957-5.354,11.914-5.354c6.389,0,10.359,2.59,12.69,6.562
	c3.54-4.576,8.893-6.562,14.503-6.562c10.188,0,16.059,6.303,16.059,15.281v32.633h-11.654v-29.438c0-4.662-2.159-8.549-7.598-8.549
	c-4.489,0-8.201,3.107-8.201,9.844v28.143H256.796z"/>
<path fill="#FFFFFF" d="M321.103,436.588v-1.641c0-3.713-1.553-6.129-8.547-6.129c-8.805,0-8.979,4.92-8.979,6.475h-11.223
	c0-6.992,3.625-15.971,21.238-15.971c16.748,0,19.164,8.373,19.164,15.193v26.072c0,3.625,0.604,6.646,0.604,6.646h-11.912v-4.748
	c-3.281,3.367-8.375,5.354-15.021,5.354c-9.324,0-16.059-5.354-16.059-14.85c0-10.791,10.273-13.297,14.416-13.898L321.103,436.588z
	 M321.103,445.482c0,0-8.203,1.207-11.914,1.898c-1.896,0.346-3.713,0.775-5.008,1.811c-1.121,0.863-1.812,2.158-1.812,3.885
	c0,1.297,0.52,5.699,6.992,5.699c3.801,0,7.166-1.383,8.98-3.195c2.244-2.33,2.762-5.352,2.762-7.596V445.482z"/>
<path fill="#FFFFFF" d="M385.497,419.928l-17.523,18.043l18.389,29.266h-13.727l-12.949-21.238l-6.822,7.34v13.898h-11.652v-63.885
	h11.652v35.742l18.043-19.166H385.497z"/>
<path fill="#FFFFFF" d="M385.925,443.84c0-16.059,10.014-24.518,22.963-24.518c14.244,0,21.756,10.445,21.756,24.432
	c0,0.518,0,2.504,0,2.504h-32.633c0,5.352,2.156,11.914,10.705,11.914c4.66,0,8.461-2.332,9.41-6.734l11.826,0.26
	c-1.467,9.408-8.979,16.145-21.496,16.145C395.247,467.842,385.925,459.898,385.925,443.84z M418.298,437.883
	c-0.346-6.475-4.748-8.979-9.496-8.979c-5.439,0-9.754,3.367-10.359,8.979H418.298z"/>
<path fill="#FFFFFF" d="M451.702,406.201c5.18,0,9.15,1.295,12.086,3.451c3.799,2.764,5.783,7.08,5.783,12.434
	c0,12.604-12.861,18.041-13.467,25.898h-11.309c0.086-8.289,5.783-13.381,9.754-18.129c1.641-1.9,3.193-4.92,3.193-7.598
	c0-3.801-2.33-6.477-6.562-6.477c-5.266,0-7.596,3.541-7.596,9.584h-11.482C432.104,415.609,437.37,406.201,451.702,406.201z
	 M444.103,467.236v-12.777h12.777v12.777H444.103L444.103,467.236z"/>
<path fill="#FFFFFF" d="M399.399,74.404h2.197c1.738,0,2.336-0.859,2.846-2.315l3.705-10.769h-2.828l-1.879,6.359l-1.881-6.359
	h-2.934l3.375,9.715c-0.178,0.772-0.389,1.088-0.949,1.088h-1.652V74.404z M392.569,65.305c0-1.282,0.738-1.862,1.562-1.862
	c1.004,0,1.391,0.738,1.391,1.599v5.99h2.705v-6.623c0-1.878-1.229-3.211-3.426-3.211c-1.145,0-2.18,0.368-2.916,1.228
	c-0.459-0.72-1.248-1.228-2.564-1.228c-1.143,0-1.984,0.455-2.461,1.035v-0.914h-2.67v9.712h2.705v-5.725
	c0-1.284,0.756-1.864,1.582-1.864c1.002,0,1.371,0.738,1.371,1.599v5.99h2.721V65.305L392.569,65.305z M376.458,64.973
	c0.104-0.966,0.895-1.652,1.896-1.652c0.842,0,1.65,0.457,1.756,1.652H376.458z M378.267,71.155c3.338,0,4.461-2.194,4.602-3.407
	l-2.67-0.052c-0.035,0.316-0.438,1.265-1.844,1.265c-1.477,0-1.986-1.125-1.986-2.197h6.678V66.43c0-3.091-1.688-5.231-4.709-5.231
	c-2.791,0-4.791,1.982-4.791,4.986C373.544,69.084,375.159,71.155,378.267,71.155 M365.55,66.201c0-1.318,0.492-2.811,2.18-2.811
	c0.562,0,1.178,0.123,1.547,0.667c0.279,0.405,0.402,1.02,0.402,2.108c0,0.844-0.051,1.511-0.352,2.003
	c-0.299,0.476-0.861,0.792-1.705,0.792c-1.738,0-2.072-1.581-2.072-2.758V66.201z M369.714,71.032h2.652V58.036h-2.705v3.898
	c-0.42-0.404-1.246-0.736-2.338-0.736c-2.881,0-4.547,2.157-4.547,5.056c0,1.442,0.492,4.901,4.301,4.901
	c1.529,0,2.338-0.632,2.637-0.946V71.032z M353.017,64.498h2.613c0-0.387,0.104-1.195,1.705-1.195c1.303,0,1.615,0.457,1.615,1.125
	v0.333l-3.197,0.458c-0.896,0.124-3.055,0.667-3.055,2.881c0,1.95,1.369,3.055,3.371,3.055c1.668,0,2.531-0.562,2.953-1v0.877h2.859
	c0,0-0.209-0.738-0.209-1.44v-5.235c0-1.404-0.6-3.159-4.164-3.159C353.821,61.198,353.05,63.076,353.017,64.498 M358.952,67.309
	c0,0.826-0.561,1.88-2.162,1.88c-1.037,0-1.316-0.65-1.316-1.089c0-0.615,0.475-1.001,1.125-1.124
	c0.666-0.141,2.354-0.351,2.354-0.351V67.309L358.952,67.309z M349.339,67.362c-0.176,1.159-0.967,1.598-1.826,1.598
	c-1.107,0-1.984-0.791-1.984-2.775c0-2.004,0.859-2.794,2.02-2.794c0.914,0.001,1.617,0.456,1.758,1.651h2.723
	c-0.229-2.563-2.021-3.844-4.463-3.844c-2.791,0-4.826,1.738-4.826,5.022c0,3.303,1.896,4.935,4.686,4.935
	c2.496,0,4.34-1.281,4.621-3.792L349.339,67.362L349.339,67.362z M338.284,66.343h-2.828l1.424-5.445L338.284,66.343z
	 M338.917,68.713l0.633,2.319h3.02l-3.688-12.295h-3.881l-3.672,12.295h2.881l0.598-2.319H338.917z M324.669,67.362
	c-0.18,1.159-0.969,1.598-1.828,1.598c-1.105,0-1.984-0.791-1.984-2.775c0-2.004,0.859-2.794,2.02-2.794
	c0.914,0.001,1.615,0.456,1.758,1.651h2.723c-0.229-2.563-2.02-3.844-4.463-3.844c-2.791,0-4.826,1.738-4.826,5.022
	c0,3.303,1.896,4.935,4.688,4.935c2.494,0,4.34-1.281,4.619-3.792L324.669,67.362L324.669,67.362z M316.866,61.319h-2.701v9.711
	h2.701V61.319z M316.866,58.036h-2.701v2.353h2.701V58.036z M310.024,64.199h2.65c0-0.756-0.387-3.001-4.182-3.001
	c-2.318,0-4.162,1.035-4.162,3.036c0,2.268,1.824,2.742,3.918,3.023l0.525,0.071c0.756,0.105,1.459,0.263,1.459,0.86
	c0,0.703-0.756,0.985-1.617,0.985c-0.932-0.001-1.758-0.283-1.758-1.212h-2.721c0,0.508,0.227,3.194,4.322,3.194
	c3.633,0,4.512-1.773,4.512-3.266c0-3.919-5.938-2.354-5.938-3.849c0-0.667,0.738-0.878,1.426-0.878
	C309.39,63.164,310.024,63.531,310.024,64.199 M302.97,71.032V61.32h-2.703v5.586c0,1.284-0.688,2.055-1.846,2.055
	c-0.934,0-1.479-0.545-1.479-1.65V61.32h-2.705v6.5c0,1.897,1.109,3.336,3.373,3.336c1.354,0,2.215-0.492,2.689-0.982v0.859
	L302.97,71.032L302.97,71.032z M285.921,67.378l-2.46-8.641h-4.109v12.295h2.739v-8.711l2.512,8.711h2.637l2.512-8.711v8.711h2.738
	V58.737h-4.107L285.921,67.378z M273.99,58.036h-2.703v12.996h2.703V58.036z M269.666,58.036h-2.703v12.996h2.703V58.036z
	 M265.324,71.032V61.32h-2.701v5.586c0,1.284-0.688,2.055-1.847,2.055c-0.931,0-1.477-0.545-1.477-1.65V61.32h-2.702v6.5
	c0,1.897,1.104,3.336,3.371,3.336c1.353,0,2.215-0.492,2.688-0.982v0.859L265.324,71.032L265.324,71.032z M252.271,62.268
	c0,0.878-0.597,1.352-1.439,1.352h-2.725v-2.636h2.689C251.621,60.984,252.271,61.388,252.271,62.268 M252.624,67.292
	c0,0.966-0.58,1.511-1.688,1.511h-2.829V65.85h2.794C251.972,65.85,252.624,66.395,252.624,67.292 M255.432,67.379
	c0-1.793-1.228-2.565-2.106-2.863c0.719-0.351,1.667-1.177,1.667-2.582c0-2.407-2.019-3.197-3.88-3.197h-5.778v12.295h5.85
	C254.116,71.032,255.432,69.136,255.432,67.379 M233.156,66.201c0-1.318,0.492-2.811,2.181-2.811c0.562,0,1.177,0.123,1.546,0.667
	c0.282,0.405,0.404,1.02,0.404,2.108c0,0.844-0.053,1.511-0.354,2.003c-0.298,0.476-0.86,0.792-1.704,0.792
	c-1.741,0-2.074-1.581-2.074-2.758L233.156,66.201L233.156,66.201z M237.322,71.032h2.65V58.036h-2.703v3.898
	c-0.423-0.404-1.249-0.736-2.337-0.736c-2.881,0-4.548,2.157-4.548,5.056c0,1.442,0.49,4.901,4.302,4.901
	c1.528,0,2.336-0.632,2.636-0.946V71.032L237.322,71.032z M223.089,64.973c0.104-0.966,0.896-1.652,1.896-1.652
	c0.843,0,1.651,0.457,1.756,1.652H223.089z M224.899,71.155c3.337,0,4.462-2.194,4.604-3.407l-2.67-0.052
	c-0.035,0.316-0.439,1.265-1.845,1.265c-1.476,0-1.984-1.125-1.984-2.197h6.675V66.43c0-3.091-1.688-5.231-4.708-5.231
	c-2.793,0-4.794,1.982-4.794,4.986C220.175,69.084,221.792,71.155,224.899,71.155 M212.32,64.062v-3.06h2.461
	c1.125,0,1.722,0.51,1.722,1.512c0,0.914-0.721,1.548-1.845,1.548H212.32z M219.03,67.325c0-1.124-0.544-1.965-1.72-2.211
	c1.281-0.597,1.878-1.774,1.878-3.021c0-1.897-1.298-3.355-4.003-3.355h-5.639v12.295h2.773v-4.672h2.392
	c1.036,0,1.545,0.457,1.545,1.405v1.897c0,0.544,0,1.16,0.123,1.37h2.915c-0.123-0.193-0.265-0.755-0.265-1.176V67.325
	L219.03,67.325z"/>
<path fill="#FFFFFF" d="M356.048,41.317c-0.383-0.413-0.953-0.703-1.15-1.229c-0.344-0.808-0.18-1.894-0.963-2.458
	c-0.721-0.146-1.564,0.025-2.117-0.542c-0.299-0.276-0.422-0.672-0.309-1.076c0.455-0.971,0.74-2.105,0.5-3.276
	c0.043-0.379-0.447-0.791,0-1.109c1.367,0.37,3.162,0.508,4.383-0.274c1.137-0.75,1.928-1.911,1.85-3.312
	c-0.299-1.943-1.635-3.491-3.189-4.883c-0.197-0.173-0.357-0.354-0.344-0.612c0.035-0.146,0.051-0.326,0.223-0.386
	c0.816-0.052,1.609-0.163,2.312-0.499c1.242-0.68,1.566-2.045,1.387-3.389c-0.053-0.086-0.043-0.259-0.188-0.231
	c-0.344,0.36-0.742,0.565-1.158,0.73c-1.568,0.214-3.049,0.62-4.188,1.848c-0.389,0.483-0.432,1.36-0.123,1.884
	c0.963,1.848,3.217,2.967,3.732,5.003c0.289,0.878-0.098,1.661-0.766,2.228c-1.025,0.638-2.479,0.524-3.508,0
	c-2.443-1.237-4.49-3.44-7.189-4.042c-1.564-0.189-2.891-0.946-4.084-2.037c-1.016-0.781-2.33-0.895-3.5-1.308
	c-1.076-1.135-2.354-1.788-3.697-2.304c-0.756-0.337-1.705-0.233-2.348-0.852c-0.426-0.636-1.074-1.203-1.686-1.615
	c-0.939-0.535-2.297-0.974-3.312-0.387c-0.08,0.068-0.16,0.133-0.24,0.201c-2.098-3.521-5.186-6.389-8.871-8.216V0l-13.982,2.929
	V7.48c-5.75,1.272-10.631,4.879-13.594,9.774c-0.705-0.026-1.412,0.106-1.988,0.44c-1.635,1.439-3.665,1.944-5.583,2.728
	c-1.066,0.524-1.737,1.721-2.803,2.235c-1.461-0.024-2.752,0.354-3.812,1.309c-0.875,1.023-1.916,1.805-3.153,2.038
	c-2.209,0.067-4.035,1.021-5.623,2.579c-1.558,0.999-3.079,2.313-5.116,1.884c-0.767-0.208-1.504-0.904-1.771-1.651
	c-0.481-1.6,0.5-2.916,1.694-3.931c1.134-1.014,2.743-2.045,2.391-3.765c-0.269-1.462-1.894-1.746-3.08-2.006
	c-1.229-0.022-2.176-0.712-3.154-1.303c-0.233,0.36-0.319,0.771-0.275,1.228c0.094,1.134,1.023,2.305,2.115,2.657
	c0.712,0.406,1.688-0.172,2.347,0.346c0.198,0.187,0.12,0.384,0.08,0.616c-1.334,1.351-3.354,2.683-3.689,4.577
	c-0.269,1.521,0.272,2.947,1.462,3.928c1.289,0.997,3.369,1.221,4.885,0.541c0.18-0.068,0.42-0.058,0.542,0.146l0.152,2.081
	c0.079,0.97,0.854,1.693,0.731,2.692c-0.48,0.542-1.144,0.799-1.735,1.161l-1.539,0.155c-0.43,0.335-0.594,0.852-0.732,1.342
	c-0.051,1.108-1.308,1.778-2.115,2.313c-0.284,0.558-0.799,1.333-1.54,1.306c-0.513,0.592-0.549,1.384-0.729,2.116
	c0.705,0.069,1.366,0.351,2.115,0.189c0.919-0.199,1.032-1.194,1.538-1.805c0.603-0.63,1.412,0.068,2.082-0.157
	c0.85-0.422,1.677-0.937,2.383-1.726c1.614-0.818,3.454,0.487,5.003-0.391c0.688-0.798,1.824-0.66,2.347-1.65
	c0.284-0.764,0.853-1.409,0.964-2.233c-0.165-0.164-0.316-0.353-0.541-0.387c-0.182,0.353-0.404,0.678-0.61,1.006
	c-0.98,1.614-2.718,2.098-4.429,2.269c-2.271-0.051-4.327,0.405-5.813,2.271h-0.155c-0.103-0.034-0.163-0.087-0.188-0.197
	c0.782-1.385,2.192-2.375,3.697-2.581c2.365-0.229,5.016-0.291,6.312-2.615c0.833-1.245,0.585-2.939,0.955-4.384
	c0.016-0.171,0.13-0.318,0.31-0.311c0.094,0.043,0.239,0.069,0.275,0.198c-0.165,1.187-0.226,2.477,0.188,3.577
	c0.74,0.979,2.185,0.447,3.156,0.267c1.849-0.395,3.491,0.585,5.382,0.19c0.207-0.095,0.388-0.215,0.31-0.499
	c-0.076-0.415-0.326-0.749-0.232-1.231c0.062-0.136,0.199-0.229,0.352-0.229c0.285,0.153,0.233,0.514,0.347,0.771
	c0.746,2.185,3.961,2.064,4.151,4.619c-0.281,0.936-1.289,1.291-2.114,1.496c-1.533,0.353-1.868-1.512-2.735-2.306
	c-0.755-0.464-1.763-0.117-2.571,0c-0.204,0.08-0.274,0.288-0.231,0.501l0.92,1.496c0.335,0.714,1.237-0.129,1.618,0.584
	c0.352,0.774,1.101,1.704,2.038,1.729c1.41-0.292,2.664-0.912,3.962-1.462c0.5-0.645,1.453-0.179,2.082-0.542
	c0.203-0.079,0.328-0.241,0.443-0.421c3.883,5.103,10.021,8.407,16.914,8.407c7.113,0,13.416-3.516,17.273-8.895
	c0.027,0.11,0.053,0.221,0.072,0.333c0.174,0.793,1.018,0.292,1.541,0.542c0.705,1.041,1.926,0.982,2.934,1.384
	c0.715,0.24,1.41,0.647,2.227,0.543c0.773-0.233,1.246-1.05,1.307-1.814c0.25-0.372,0.869-0.044,1.152-0.425
	c0.344-0.53,0.791-0.995,1.008-1.572c-0.328-0.462-1.008-0.233-1.504-0.352c-0.121,0.051-0.328,0.043-0.426,0.043l-0.031-0.043
	c-1.109-0.07-1.131,1.204-1.697,1.811c-0.213,0.253-0.549,0.218-0.85,0.27c-0.902-0.328-2.312-0.457-2.381-1.729
	c0.352-0.747,1.15-1.41,1.807-1.925c0.746-0.146,1.424-0.55,1.926-1.231c0.385-0.351,0.23-1.136,0.92-1.16
	c0.309,0.489,0,1.117-0.234,1.581c1.293,0.149,2.549-0.067,3.744-0.273c1.828-0.44,3.549,0.56,5.303-0.112
	c0.887-0.441,0.949-1.438,1.041-2.305l-0.045-0.043l0.045-0.034c-0.008-0.464-0.129-0.876-0.188-1.316
	c-0.027-0.197-0.113-0.471,0.033-0.653c0.139-0.079,0.232-0.06,0.344,0.044c0.732,1.634,0.396,3.712,1.309,5.27
	c0.635,1.325,1.934,2.271,3.387,2.346c0.062,0.01,0.123-0.085,0.156,0c2.32-0.462,4.354,0.464,5.736,2.227v0.122
	c-0.088,0.086-0.164,0.201-0.311,0.155c-0.258-0.335-0.604-0.473-0.887-0.774c-1.283-1.237-3.143-1.314-4.928-1.108
	c-1.84,0.051-3.545-1.496-4.188-3.121c-0.156-0.164-0.146-0.517-0.43-0.499c-0.086,0.062-0.111,0.152-0.145,0.231
	c0.109,1.204,0.273,2.375,1.105,3.267c0.791,0.387,1.408,1.179,2.314,1.275c1.264-0.303,2.752-0.165,3.885,0.341
	c0.896,0.346,1.619,1.111,2.424,1.653c0.457,0.222,1.068,0.111,1.463-0.189c1.023-0.275,1.189,0.944,1.885,1.426
	c0.586,0.448,1.443,0.258,2.193,0.302l0.119-0.068c-0.104-0.706-0.248-1.394-0.541-2.003
	C357.048,42.943,356.546,41.964,356.048,41.317 M327.069,21.308c0.234-0.008,0.49-0.025,0.578,0.234
	c0.129,0.455-0.404,0.747-0.688,1.039c-0.947,0.715-1.811,1.694-2.312,2.658h-0.08C324.493,23.606,325.694,22.194,327.069,21.308
	 M304.88,6.124l11.275-2.278l0.01,4.724c-2.486-1.022-5.205-1.588-8.059-1.588c-1.098,0-2.178,0.085-3.23,0.248L304.88,6.124z
	 M290.517,22.924c0.137-0.015,0.299-0.077,0.42,0c0.379,0.275,0.541,0.705,0.732,1.084c0.203,0.722,0.283,1.634,0.074,2.382
	l-0.109,0.078c-0.109-0.181-0.109-0.413-0.156-0.62c-0.154-0.91-0.559-1.728-1.072-2.501
	C290.386,23.191,290.405,23.038,290.517,22.924 M328.61,36.047l-1.541,2.082l-0.223,0.461c-0.215,0.452-0.076,1.093-0.119,1.577
	c-0.379-0.201-0.402-0.672-0.541-1.041c-0.354-1.489,1.117-2.314,1.615-3.502c-0.326-0.138-0.621-0.35-0.994-0.385
	c-0.787,0.946-1.248,2.02-1.855,3.043c-0.041,0.34-0.008,0.662,0.059,0.977c-3.611,5.512-9.838,9.161-16.904,9.161
	c-6.715,0-12.672-3.299-16.348-8.355c0.256-0.463,0.52-0.921,0.449-1.514c-0.018-0.802-0.771-1.3-1.039-2.004
	c-0.154-0.362-0.303-0.759-0.498-1.074c-0.414-0.164-0.947-0.356-1.35-0.035c0.498,1.059,1.143,2.053,1.656,3.113
	c0.123,0.876-0.359,1.607-0.963,2.234c-0.086,0.088-0.205,0.011-0.273-0.079c0.188-0.634,0.438-1.288,0.389-1.959
	c-0.604-1.169-1.4-2.25-1.998-3.429c0.02-0.209,0.086-0.441,0.305-0.536c0.602-0.291,1.383-0.178,1.848-0.695
	c0.568-0.98,0.963-2.029,1.074-3.19c0.068-0.059,0.127-0.154,0.232-0.12c0.109,0.067,0.109,0.18,0.152,0.275
	c0.225,1.298-0.145,2.449-0.729,3.457c-0.088,0.12-0.008,0.248,0.074,0.352c0.436,0.188,0.889-0.035,1.311-0.079
	c0.791-0.564,1.924-0.316,2.811-0.651c0,0.092,0.156,0.112,0.113,0.224c-0.447,0.489-0.645,1.101-0.768,1.736
	c-0.533,0.602-1.35,1.092-1.35,1.926c0.139,0.345,0.439,0,0.654,0c0.146,0,0.232,0.163,0.197,0.302
	c-0.205,0.385-0.621,0.687-0.621,1.159c0.209,0.507,0,1.3,0.697,1.498c1.592,0.283,2.734-0.991,4.344-0.92
	c1.221,0.31,2.271-0.248,3.078-1.161c0.225-0.123,0.414,0.06,0.619,0.12c0.867,0.919,1.875,1.473,3.045,1.651
	c0.361,0.05,0.816,0.086,1.152-0.035c0.076-0.083,0.025-0.231-0.041-0.309c-0.861-0.337-1.705-0.817-2.35-1.618
	c-0.363-0.994-0.844-1.958-1.576-2.809c-0.057-0.054-0.057-0.191,0.035-0.226c0.826,0.198,1.521,1.032,1.893,1.762
	c0.67,1.032,1.678,1.883,2.959,1.773c0.154-0.043,0.387-0.028,0.344-0.268c-1.959-0.609-2.279-2.733-3.812-3.888
	c-0.744-1.858-1.418-3.738-1.762-5.768c-0.051-1.851-1.092-3.302-2.238-4.693c-1.803-2.736-4.631-4.294-6.994-6.314l-0.773-0.42
	c-0.305-0.182-0.648-0.326-1.014-0.426c2.795-4.406,7.25-7.66,12.477-8.879v6.773c-0.352-0.161-0.512-0.158-0.75-0.158
	c-2.371,0-4.453,2.21-4.453,3.68c0,1,0.789,1.578,1.844,1.578c1.16,0,2.561-0.605,3.586-1.682c0.816-0.866,1.104-1.734,1.104-3.287
	l0.023-7.17c1.055-0.168,2.133-0.26,3.232-0.26c2.863,0,5.59,0.6,8.061,1.679l0.006,2.69c-0.354-0.158-0.516-0.156-0.752-0.156
	c-2.373,0-4.455,2.207-4.455,3.68c0,1.001,0.791,1.579,1.844,1.579c1.164,0,2.561-0.604,3.586-1.682
	c0.816-0.869,1.107-1.736,1.107-3.289v-2.18c3.346,1.769,6.143,4.446,8.049,7.705c-2.596,1.995-5.379,3.532-7.828,5.84
	c-1.643,1.533-2.518,3.388-3.043,5.393c-1.229,3.509-1.512,7.737-5.229,9.887c-0.023,0.114,0.023,0.198,0.111,0.268
	c0.834,0.165,1.736-0.025,2.314-0.732c0.559-0.886,1.236-1.718,2.039-2.5h0.152c0.291,0.059,0.051,0.309,0.078,0.464
	c-1.119,1.065-1.139,2.655-2.623,3.5c-0.166,0.145-0.594,0.396-0.301,0.618c1.641,0.171,2.846-1.041,3.996-2.082l0.232-0.034
	c0.654,0.404,1.145,1.274,2.006,1.074c1.713-0.471,2.879,0.595,4.262,1.041c0.416,0.182,0.725-0.137,1.008-0.386
	c0.605-0.421,0.293-1.186,0.266-1.772l0.113-0.11c0.283-0.034,0.635,0.24,0.854-0.078c0.094-0.774-0.568-1.325-0.887-1.961
	c-0.172-1.263-1.627-1.995-1.85-3.233c0.07-0.053,0.119-0.145,0.197-0.154c0.586,0.344,1.066,0.92,1.65,1.265
	c0.889,0.448,1.953,0.427,3.002,0.462c0.164-0.035,0.164-0.196,0.152-0.344c-0.547-1.229-1.012-2.502-0.92-4.005
	c0.094-0.458-0.102-1.145,0.457-1.309c0.137,0.035,0.156,0.189,0.23,0.275c0.07,1.342,0.098,2.717,0.697,3.844
	c0.326,0.809,1.189,1.275,1.84,1.77C328.679,35.343,328.757,35.746,328.61,36.047 M299.44,31.353
	c-0.197-0.095-0.438-0.086-0.609,0.078l-0.619,0.729c-0.203-0.092-0.104-0.429-0.074-0.609c0.223-0.559,0.531-1.091,0.729-1.658
	c0.105-0.174,0.352-0.122,0.498-0.079c0.6,0.388,0.715,1.098,1.307,1.54c0.467,0.627,0.758,1.563,0.354,2.314
	c-0.119,0.007-0.266,0.161-0.354,0C300.757,32.694,300.188,31.91,299.44,31.353 M298.136,37.587c0.324-0.292,0.66-0.672,1.148-0.458
	l0.078,0.301c0.055,0.293-0.068,0.517-0.189,0.73c-0.402,0.113-0.824,0.288-1.271,0.157C297.79,38.041,298.06,37.827,298.136,37.587
	 M319.218,31.928c-0.082-0.103-0.119-0.26-0.264-0.302c-0.561-0.137-0.975,0.328-1.387,0.654c-0.678,0.414-0.877,1.102-1.039,1.771
	c-0.043,0.12-0.172,0.053-0.268,0.078c-0.346-0.342,0-0.772,0-1.162c0.344-1.169,1.67-1.823,2.305-2.879
	c0.68-0.026,0.764,0.749,1.084,1.151c0.086,0.327,0.506,0.74,0.078,1.041C319.497,32.325,319.288,32.127,319.218,31.928
	 M319.261,38.317c-0.279,0.086-0.574,0-0.848-0.035c-0.32-0.173-0.336-0.542-0.424-0.852c0.068-0.101,0.018-0.291,0.154-0.342
	c0.387,0.025,0.758,0.17,0.998,0.462C319.245,37.784,319.452,38.06,319.261,38.317 M286.663,40.131
	c0.051-0.188-0.096-0.293-0.146-0.429c-0.189-0.381-0.275-0.792-0.506-1.152c-0.491-0.019-1.05,0.017-1.541,0.119l-0.037-0.043
	c-0.134,0.069-0.309,0.027-0.461,0.043c-0.08,0.053-0.113,0.129-0.113,0.224c0.67,0.396,0.835,1.136,1.196,1.736
	C285.64,40.931,286.198,40.467,286.663,40.131 M331.812,38.782c-0.221-0.012-0.459,0.016-0.625,0l-0.031,0.033
	c-0.273-0.086-0.617,0.016-0.883-0.069c-0.295,0.38-0.492,0.844-0.391,1.342c0.174,0.31,0.541,0.318,0.807,0.465
	c0.293,0.016,0.715,0.152,0.924-0.12c0.207-0.49,0.369-0.999,0.463-1.541C332.007,38.808,331.919,38.763,331.812,38.782
	 M258.114,42.049c0.423,0.182,0.759-0.103,1.042-0.379c0.24-0.396,0.62-0.732,0.688-1.195c-0.12-0.291-0.482-0.566-0.767-0.387
	c-0.402,0.653-1.709,0.643-1.35,1.659C257.856,41.851,257.953,42.033,258.114,42.049 M357.476,40.054l-0.273-0.044
	c-0.182,0.166-0.596,0.275-0.5,0.619c0.396,0.535,0.674,1.411,1.432,1.499c0.244-0.114,0.559-0.174,0.684-0.458
	c0.037-0.198,0.133-0.369,0-0.543L357.476,40.054z M256.654,42.282c-0.545,0.325-0.524,0.953-0.5,1.539
	c-0.009,0.369-0.438,0.568-0.387,0.961c0.404,0.14,0.783,0.362,1.228,0.388c0.253-0.748,0.416-1.538,0.621-2.313l-0.696-0.686
	C256.815,42.171,256.739,42.247,256.654,42.282 M360.323,42.822c-0.139-0.221-0.299-0.454-0.539-0.575
	c-0.389-0.197-0.629,0.275-0.844,0.5c-0.061,0.585,0.229,1.125,0.342,1.692c0.078,0.268-0.016,0.647,0.234,0.808l1.148-0.344
	l0.045-0.307C360.245,44.138,360.505,43.392,360.323,42.822"/>
<path fill="#FFFFFF" d="M346.366,97.986h1.994c-0.057-0.989-0.625-3.023-4.031-3.023c-2.721,0-4.203,1.311-4.203,3.023
	c0,3.161,3.271,2.836,5.174,3.275c0.84,0.19,1.201,0.495,1.201,1.161c0,0.685-0.592,1.467-2.324,1.467
	c-1.58,0-2.131-0.82-2.15-1.638h-2.092c0.059,2.15,1.844,3.252,4.129,3.252c3.635,0,4.471-1.861,4.471-3.252
	c0-3.141-3.463-2.797-5.326-3.273c-0.668-0.172-1.066-0.496-1.066-1.105c0-1.046,1.295-1.294,2.113-1.294
	C345.435,96.578,346.271,96.919,346.366,97.986 M338.112,105.312v-1.671c0,0-0.801,0.037-1.18,0.037
	c-0.973,0-1.162-0.171-1.162-1.238v-5.673h2.512v-1.672h-2.512v-3.043h-2.016v3.043h-1.637v1.672h1.637v6.243
	c0,1.504,0.529,2.435,2.357,2.435C337.159,105.445,338.112,105.312,338.112,105.312 M330.294,105.369V98.29
	c0-2.017-1.406-3.328-3.613-3.328c-1.521,0-2.59,0.646-3.18,1.405v-1.272h-1.994v10.274h2.014v-5.708
	c0-1.961,1.201-2.969,2.666-2.969c1.332,0,2.094,0.742,2.094,2.208v6.47L330.294,105.369L330.294,105.369z M314.519,103.83
	c-2.096,0-2.762-1.618-2.799-3.161h7.307v-0.513c0-3.369-1.77-5.193-4.564-5.193c-2.799,0-4.814,2.053-4.814,5.269
	c0,3.445,1.863,5.271,4.701,5.271c3.596,0,4.488-2.416,4.602-3.575l-1.979-0.038C316.878,102.669,316.173,103.83,314.519,103.83
	 M311.796,99.092c0.17-1.542,1.16-2.478,2.627-2.478c1.236,0,2.436,0.629,2.475,2.478H311.796z M305.54,97.986h1.996
	c-0.057-0.989-0.627-3.023-4.031-3.023c-2.723,0-4.205,1.311-4.205,3.023c0,3.161,3.27,2.836,5.176,3.275
	c0.836,0.19,1.199,0.495,1.199,1.161c0,0.685-0.59,1.467-2.32,1.467c-1.582,0-2.133-0.82-2.154-1.638h-2.092
	c0.059,2.15,1.846,3.252,4.129,3.252c3.635,0,4.473-1.861,4.473-3.252c0-3.141-3.463-2.797-5.328-3.273
	c-0.666-0.172-1.066-0.496-1.066-1.105c0-1.046,1.295-1.294,2.113-1.294C304.608,96.578,305.446,96.919,305.54,97.986
	 M292.692,103.83c-2.094,0-2.762-1.618-2.801-3.161h7.309v-0.513c0-3.369-1.766-5.193-4.564-5.193s-4.812,2.053-4.812,5.269
	c0,3.445,1.863,5.271,4.699,5.271c3.596,0,4.488-2.416,4.604-3.575l-1.977-0.038C295.054,102.669,294.349,103.83,292.692,103.83
	 M289.97,99.092c0.17-1.542,1.162-2.478,2.627-2.478c1.238,0,2.438,0.629,2.475,2.478H289.97z M286.378,97.148v-2.053h-0.724
	c-0.932,0-2.245,0.342-2.931,1.634v-1.634h-1.976v10.274h2.014v-5.595c0-1.921,1.027-2.626,2.949-2.626H286.378z M276.255,100.272
	c0,2.131-0.951,3.56-2.895,3.56c-1.026,0-1.714-0.4-2.094-0.952c-0.476-0.703-0.552-1.617-0.552-2.626
	c0-0.875,0.095-1.694,0.398-2.303c0.399-0.802,1.182-1.315,2.418-1.315C275.532,96.636,276.255,98.234,276.255,100.272
	L276.255,100.272L276.255,100.272z M273.571,105.502c3.33,0,4.737-2.51,4.737-5.422c0-2.552-1.159-5.118-4.471-5.118
	c-1.275,0-2.438,0.513-3.104,1.291v-1.158h-2.015v13.928h2.015v-4.566C271.152,104.895,271.972,105.502,273.571,105.502"/>
<path fill="#FFFFFF" d="M516.298,494.84c1.648,0,2.289,1.078,2.32,1.918h2.439c-0.016-1.496-1.125-3.971-4.66-3.971
	c-4.041,0-5.404,3.297-5.404,6.109c0,2.408,0.842,6.041,5.285,6.041c3.268,0,4.68-2.152,4.83-4.053h-2.422
	c-0.016,0.59-0.471,2.004-2.357,2.004c-1.768,0-2.879-1.398-2.879-3.957C513.45,496.236,514.495,494.84,516.298,494.84
	 M508.776,492.973h-2.322v11.781h2.322V492.973z M504.296,501.105c0-1.484-0.793-2.24-1.75-2.697
	c-2.039-0.992-5.068-0.537-5.068-2.305c0-0.842,0.672-1.398,2.021-1.398c1.951,0.002,2.139,1.127,2.203,1.77h2.391
	c-0.188-2.828-2.287-3.688-4.646-3.688c-2.273,0-4.342,1.162-4.342,3.482c0,1.146,0.438,1.938,0.992,2.426
	c1.867,1.65,5.859,0.742,5.859,2.678c0,1.33-1.383,1.6-2.375,1.6c-1.447,0-2.273-0.641-2.273-1.936h-2.404
	c0.064,2.643,1.949,3.902,4.576,3.902C502.411,504.939,504.296,503.695,504.296,501.105z M488.241,502.99
	c-1.482,0-2.492-0.826-2.492-2.441v-7.576h-2.32v7.375c0,3.215,2.07,4.592,4.746,4.592c2.691,0,4.729-1.311,4.729-4.525v-7.439
	h-2.221v7.525C490.683,502.113,489.739,502.99,488.241,502.99 M474.804,501.541l-2.375-8.568h-3.652v11.783h2.322v-8.77l2.49,8.77
	h2.426l2.492-8.77v8.77h2.322v-11.783h-3.652L474.804,501.541z M454.399,498.967c0-2.695,1.094-4.127,2.896-4.127
	c1.648,0,2.256,1.078,2.289,1.918h2.422c-0.016-1.496-1.109-3.971-4.645-3.971c-4.041,0-5.422,3.297-5.422,6.109
	c0,3.047,1.279,6.041,5.219,6.041c1.297,0,2.357-0.453,3.115-1.293v1.109h2.104v-6.379h-5.033v2.018h2.812
	c-0.035,0.896-0.555,2.496-2.828,2.496C454.972,502.889,454.399,500.85,454.399,498.967 M449.718,504.754v-11.781h-2.305v8.213
	l-4.361-8.213h-2.943v11.781h2.322v-8.279l4.461,8.279H449.718z M437.433,492.973h-2.32v11.781h2.32V492.973z M430.601,504.754
	h2.795l-4.598-6.748l4.344-5.033h-2.775l-4.547,5.402v-5.402h-2.322v11.781h2.322v-3.266l1.465-1.699L430.601,504.754z
	 M417.995,500.396h-3.131l1.547-5.639L417.995,500.396z M413.669,504.754l0.639-2.355h4.258l0.674,2.355h2.543l-3.637-11.781h-3.367
	l-3.535,11.781H413.669z M403.493,501.541l-2.375-8.568h-3.65v11.783h2.318v-8.77l2.494,8.77h2.424l2.494-8.77v8.77h2.318v-11.783
	h-3.65L403.493,501.541z M391.489,495.043v-2.07h-9.256v2.07h3.467v9.713h2.32v-9.713H391.489z M375.812,502.99
	c-1.482,0-2.494-0.826-2.494-2.441v-7.576h-2.32v7.375c0,3.215,2.07,4.592,4.748,4.592c2.691,0,4.729-1.311,4.729-4.525v-7.439
	h-2.219v7.525C378.253,502.113,377.31,502.99,375.812,502.99 M366.466,498.881c0,2.459-1.096,4.008-2.881,4.008
	c-1.801,0-2.879-1.549-2.879-4.008c0-2.611,1.078-4.041,2.879-4.041C365.37,494.84,366.466,496.27,366.466,498.881 M368.921,498.881
	c0-3.822-2.338-6.094-5.336-6.094c-3.016,0-5.334,2.271-5.334,6.094c0,3.84,2.318,6.059,5.334,6.059
	C366.583,504.939,368.921,502.721,368.921,498.881 M354.347,501.17c0,1.012-0.605,1.633-1.785,1.633h-2.846v-3.146h2.828
	C353.673,499.656,354.347,500.242,354.347,501.17 M353.976,496.322c0,0.926-0.588,1.449-1.498,1.449h-2.762v-2.848h2.729
	C353.319,494.924,353.976,495.395,353.976,496.322 M356.702,501.305c0-1.938-1.361-2.559-2.053-2.777
	c0.555-0.285,1.631-0.992,1.631-2.541c0-2.273-1.85-3.014-3.551-3.014h-5.334v11.781h5.402
	C355.491,504.754,356.702,502.957,356.702,501.305 M341.892,500.396h-3.131l1.549-5.639L341.892,500.396z M337.563,504.754
	l0.639-2.355h4.262l0.676,2.355h2.539l-3.635-11.781h-3.367l-3.535,11.781H337.563z M323.39,501.541l-2.375-8.568h-3.65v11.783h2.32
	v-8.77l2.494,8.77h2.424l2.492-8.77v8.77h2.32v-11.783h-3.652L323.39,501.541z M315.401,504.754v-2.066h-5.773v-9.715h-2.32v11.781
	H315.401L315.401,504.754z M304.63,492.973h-2.32v11.781h2.32V492.973z M300.231,495.043v-2.07h-8.178v11.783h2.32v-4.494h5.453
	v-2.104h-5.453v-3.115H300.231L300.231,495.043z M282.542,500.396h-3.134l1.55-5.639L282.542,500.396z M278.214,504.754l0.64-2.355
	h4.258l0.675,2.355h2.541l-3.635-11.781h-3.367l-3.536,11.781H278.214z"/>
<path fill="#FFFFFF" d="M216.203,378.686h-4.654l4.654-7.051V378.686z M220.898,381.096v-2.41h-1.778v-9.619h-4.016l-6.214,9.486
	v2.543h7.312v3.162h2.917v-3.162H220.898L220.898,381.096z M206.624,369.066h-2.61c-0.066,1.34-0.637,1.561-1.581,1.561h-1.229
	v2.607h2.328v11.023h3.094L206.624,369.066L206.624,369.066z M193.383,371.326c1.272,0,2.614,0.834,2.614,5.338
	c0,4.523-1.342,5.314-2.614,5.314c-1.275,0-2.615-0.791-2.615-5.314C190.768,372.16,192.107,371.326,193.383,371.326 M193.383,384.5
	c2.46,0,5.685-1.338,5.685-7.836c0-6.5-3.225-7.859-5.685-7.859c-2.461,0-5.687,1.359-5.687,7.859
	C187.697,383.162,190.922,384.5,193.383,384.5 M180.215,368.805c-3.866,0-5.643,2.41-5.643,5.619h2.939
	c0-2.439,1.339-3.055,2.637-3.055c1.361,0,2.329,0.855,2.329,2.129c0,0.969-0.176,1.867-1.714,3.143l-5.819,4.832v2.785h10.474
	v-2.564h-6.697l4.085-3.34c1.646-1.34,2.612-2.701,2.612-4.877C185.418,370.732,183.377,368.805,180.215,368.805 M161.244,371.15
	c1.493,0,2.593,0.68,2.593,1.979c0,1.141-0.814,2.062-2.593,2.062c-1.78,0-2.592-0.922-2.592-2.062
	C158.651,371.83,159.749,371.15,161.244,371.15 M161.244,377.518c1.713,0,2.724,0.879,2.724,2.197c0,1.295-1.034,2.283-2.724,2.283
	c-1.692,0-2.724-0.988-2.724-2.283C158.519,378.396,159.53,377.518,161.244,377.518 M161.244,384.5c3.337,0,5.751-1.645,5.751-4.631
	c0-1.979-1.25-3.184-2.457-3.602c1.12-0.439,2.084-1.602,2.084-3.186c0-2.896-2.435-4.277-5.378-4.277c-2.944,0-5.4,1.381-5.4,4.277
	c0,1.584,0.986,2.746,2.105,3.186c-1.207,0.418-2.457,1.623-2.457,3.602C155.492,382.855,157.904,384.5,161.244,384.5
	 M152.638,369.066h-2.61c-0.065,1.34-0.637,1.561-1.581,1.561h-1.229v2.607h2.327v11.023h3.093V369.066z M126.994,368.891
	l5.094,9.836v5.531h3.005v-5.531l5.094-9.836h-3.36l-3.204,6.697l-3.16-6.697H126.994z M122.668,373.479
	c0,0.615-0.285,1.207-0.725,1.582c-0.504,0.418-1.208,0.594-2.197,0.594h-2.856v-4.152h3.361
	C121.789,371.502,122.668,372.115,122.668,373.479 M125.388,379.604c-0.044-1.58-0.877-2.523-2.129-2.787
	c1.778-0.766,2.414-2.195,2.414-3.777c0-2.219-1.624-4.146-4.873-4.146h-6.938v15.367h3.027v-6.039h3.559
	c1.253,0,1.868,0.594,1.956,1.713c0.132,1.561,0,3.053,0.33,4.326h3.181c-0.109-0.178-0.241-0.506-0.351-1.252
	C125.476,382.35,125.432,381.404,125.388,379.604 M106.746,378.574h-4.084l2.02-7.355L106.746,378.574z M101.103,384.258
	l0.834-3.072h5.555l0.878,3.072h3.316l-4.743-15.367h-4.392l-4.611,15.367H101.103z M90.248,381.955
	c-1.932,0-3.251-1.074-3.251-3.184v-9.881H83.97v9.619c0,4.191,2.698,5.99,6.191,5.99c3.514,0,6.168-1.713,6.168-5.904v-9.705
	h-2.896v9.814C93.434,380.814,92.204,381.955,90.248,381.955 M78.075,373.479c0,0.615-0.288,1.207-0.726,1.582
	c-0.505,0.418-1.208,0.594-2.196,0.594h-2.856v-4.152h3.361C77.195,371.502,78.075,372.115,78.075,373.479 M80.795,379.604
	c-0.044-1.58-0.878-2.523-2.128-2.787c1.777-0.766,2.414-2.195,2.414-3.777c0-2.219-1.624-4.146-4.874-4.146H69.27v15.367h3.027
	v-6.039h3.559c1.251,0,1.868,0.594,1.956,1.713c0.131,1.561,0,3.053,0.328,4.326h3.182c-0.109-0.178-0.242-0.506-0.351-1.252
	C80.883,382.35,80.838,381.404,80.795,379.604 M63.466,379.582c0,1.318-0.791,2.133-2.328,2.133h-3.713v-4.109h3.692
	C62.587,377.605,63.466,378.375,63.466,379.582 M62.983,373.26c0,1.209-0.769,1.891-1.954,1.891h-3.604v-3.715h3.56
	C62.126,371.436,62.983,372.051,62.983,373.26 M66.537,379.758c0-2.525-1.775-3.336-2.675-3.621
	c0.723-0.373,2.126-1.295,2.126-3.316c0-2.965-2.413-3.93-4.63-3.93h-6.961v15.367h7.048
	C64.957,384.258,66.537,381.912,66.537,379.758 M51.329,384.258v-2.697h-7.795v-3.67h7.048v-2.74h-7.048v-3.562h7.576v-2.697H40.507
	v15.367H51.329z M37.902,371.588v-2.697H27.234v15.367h3.027v-5.861h7.114v-2.742h-7.114v-4.064h7.641V371.588z"/>
<path fill="#FFFFFF" d="M247.474,357.402v-2.697h-7.795v-3.67h7.048v-2.74h-7.048v-3.562h7.576v-2.696h-10.604v15.366H247.474z
	 M233.918,352.641c0-1.934-1.03-2.922-2.28-3.514c-2.657-1.297-6.612-0.703-6.612-3.012c0-1.098,0.88-1.821,2.636-1.821
	c2.55,0.001,2.791,1.472,2.879,2.306h3.115c-0.242-3.687-2.984-4.806-6.061-4.806c-2.964,0-5.664,1.515-5.664,4.543
	c0,1.492,0.571,2.524,1.296,3.163c2.436,2.15,7.641,0.965,7.641,3.49c0,1.736-1.8,2.088-3.097,2.088
	c-1.888-0.002-2.964-0.836-2.964-2.523h-3.139c0.088,3.443,2.545,5.09,5.971,5.09C231.462,357.645,233.918,356.021,233.918,352.641
	L233.918,352.641z M215.44,351.719h-4.084l2.021-7.355L215.44,351.719z M209.797,357.402l0.834-3.072h5.555l0.878,3.072h3.316
	l-4.743-15.366h-4.393l-4.61,15.366H209.797z M204.58,357.402v-2.697h-7.795v-3.67h7.049v-2.74h-7.049v-3.562h7.575v-2.696h-10.604
	v15.366H204.58z M191.262,357.402v-2.697h-7.531v-12.669h-3.027v15.366H191.262z M177.635,357.402v-2.697h-7.795v-3.67h7.048v-2.74
	h-7.048v-3.562h7.576v-2.696h-10.604v15.366H177.635z M160.689,346.623c0,0.615-0.285,1.208-0.726,1.583
	c-0.505,0.417-1.208,0.593-2.196,0.593h-2.855v-4.152h3.361C159.809,344.646,160.689,345.26,160.689,346.623 M163.409,352.748
	c-0.043-1.58-0.878-2.521-2.128-2.786c1.777-0.767,2.414-2.196,2.414-3.776c0-2.22-1.624-4.148-4.874-4.148h-6.937v15.367h3.027
	v-6.039h3.558c1.252,0,1.868,0.594,1.957,1.713c0.131,1.561,0,3.053,0.327,4.326h3.183c-0.11-0.176-0.241-0.504-0.352-1.252
	C163.496,355.494,163.453,354.549,163.409,352.748 M143.757,357.402v-2.697h-7.532v-12.669h-3.027v15.366H143.757z M126.079,351.719
	h-4.084l2.021-7.355L126.079,351.719z M120.436,357.402l0.835-3.072h5.555l0.878,3.072h3.315l-4.742-15.366h-4.392l-4.611,15.366
	H120.436z M117.367,344.732v-2.696h-12.074v2.696h4.523v12.67h3.027v-12.67H117.367z M102.984,342.036h-3.027v15.366h3.027V342.036z
	 M86.252,349.852c0-3.514,1.428-5.382,3.778-5.382c2.154,0.001,2.944,1.405,2.988,2.503h3.159c-0.022-1.953-1.448-5.179-6.059-5.179
	c-5.27,0-7.069,4.301-7.069,7.97c0,3.975,1.667,7.881,6.806,7.881c1.69,0,3.075-0.594,4.062-1.689l0.001,1.447h2.742v-8.317h-6.564
	v2.632h3.669c-0.046,1.166-0.725,3.252-3.69,3.252C86.999,354.969,86.252,352.311,86.252,349.852 M80.217,342.036h-3.028v15.366
	h3.028V342.036z M71.186,349.609c0,4.219-2.351,5.207-4.241,5.207h-2.657v-10.191h2.657
	C68.835,344.625,71.186,345.393,71.186,349.609 M74.323,349.501c0-5.315-3.071-7.465-6.651-7.465h-6.41v15.366h5.859
	c2.373,0,4.305-0.92,5.447-2.303C73.774,353.607,74.323,351.586,74.323,349.501 M52.914,357.402v-2.697H45.12v-3.67h7.048v-2.74
	H45.12v-3.562h7.575v-2.696H42.092v15.366H52.914z M39.024,357.402v-2.697h-7.795v-3.67h7.048v-2.74h-7.048v-3.562h7.576v-2.696
	H28.202v15.366H39.024z M22.077,346.623c0,0.615-0.285,1.208-0.725,1.583c-0.505,0.417-1.208,0.593-2.197,0.593H16.3v-4.152h3.362
	C21.199,344.646,22.077,345.26,22.077,346.623 M24.797,352.748c-0.042-1.58-0.876-2.521-2.126-2.786
	c1.777-0.767,2.412-2.196,2.412-3.776c0-2.22-1.624-4.148-4.872-4.148h-6.939v15.367H16.3v-6.039h3.56
	c1.251,0,1.867,0.594,1.955,1.713c0.132,1.561,0,3.053,0.329,4.326h3.181c-0.11-0.176-0.242-0.504-0.352-1.252
	C24.885,355.494,24.841,354.549,24.797,352.748 M10.668,344.732v-2.696H0v15.366h3.027v-5.861h7.115v-2.742H3.027v-4.064h7.641
	V344.732z"/>
</svg>
