<?xml version="1.0" encoding="utf-8"?>
<!-- Generator: Adobe Illustrator 15.0.0, SVG Export Plug-In  -->
<!DOCTYPE svg PUBLIC "-//W3C//DTD SVG 1.1//EN" "http://www.w3.org/Graphics/SVG/1.1/DTD/svg11.dtd" [
	<!ENTITY ns_flows "http://ns.adobe.com/Flows/1.0/">
]>
<svg version="1.1"
	 xmlns="http://www.w3.org/2000/svg" xmlns:xlink="http://www.w3.org/1999/xlink" xmlns:a="http://ns.adobe.com/AdobeSVGViewerExtensions/3.0/"
	 x="0px" y="0px" width="842px" height="595px" viewBox="-84 -140.28 842 595"
	 overflow="visible" enable-background="new -84 -140.28 842 595" xml:space="preserve">
<defs>
</defs>
<path fill="#FFFFFF" d="M669.554,274.214c-0.898-1.418-1.932-2.906-3.471-3.684c-2.475-1.268-4.016,1.76-5.396,3.195
	c-0.389,3.75,1.471,7.213,2.205,10.834c0.48,1.713-0.113,4.146,1.484,5.176l7.363-2.199l0.279-1.971
	C669.054,282.636,670.714,277.862,669.554,274.214 M5.707,270.751c-3.485,2.086-3.366,6.104-3.204,9.859
	c-0.056,2.361-2.81,3.635-2.474,6.154c2.586,0.893,5.014,2.316,7.859,2.482c1.61-4.785,2.658-9.852,3.975-14.809l-4.457-4.395
	C6.738,270.046,6.25,270.53,5.707,270.751 M651.319,256.489l-1.756-0.283c-1.158,1.059-3.809,1.764-3.203,3.971
	c2.543,3.416,4.309,9.031,9.154,9.594c1.57-0.729,3.572-1.111,4.387-2.932c0.24-1.271,0.84-2.367,0-3.475L651.319,256.489
	L651.319,256.489z M15.05,269.263c2.705,1.166,4.852-0.658,6.67-2.424c1.541-2.533,3.967-4.686,4.401-7.654
	c-0.774-1.863-3.088-3.629-4.907-2.475c-2.58,4.186-10.949,4.119-8.636,10.619C13.4,268.001,14.015,269.157,15.05,269.263
	 M486.97,248.339c-1.404-0.066-2.928,0.106-3.99,0l-0.203,0.219c-1.758-0.551-3.963,0.105-5.67-0.44
	c-1.883,2.426-3.143,5.403-2.486,8.593c1.109,1.98,3.465,2.035,5.174,2.977c1.871,0.105,4.576,0.979,5.902-0.771
	c1.326-3.139,2.361-6.391,2.959-9.857C488.218,248.507,487.663,248.222,486.97,248.339 M197.861,256.985
	c0.33-1.211-0.602-1.875-0.934-2.745c-1.205-2.438-1.763-5.077-3.246-7.383c-3.137-0.116-6.715,0.108-9.857,0.761l-0.231-0.271
	c-0.869,0.447-1.978,0.168-2.961,0.271c-0.504,0.337-0.716,0.828-0.716,1.438c4.289,2.528,5.339,7.273,7.654,11.121
	C191.314,262.101,194.896,259.136,197.861,256.985 M406.614,245.366c-1.805,0.559-3.684,0-5.438-0.223
	c-2.059-1.103-2.152-3.471-2.713-5.45c0.441-0.649,0.105-1.87,0.996-2.2c2.475,0.166,4.85,1.096,6.391,2.967
	C406.509,241.952,407.829,243.72,406.614,245.366 M406.343,204.454c-0.543-0.656-0.777-1.66-1.703-1.927
	c-3.578-0.88-6.229,2.096-8.865,4.187c-4.354,2.646-5.627,7.045-6.662,11.342c-0.285,0.768-1.105,0.332-1.707,0.498
	c-2.213-2.193,0-4.951,0-7.44c2.205-7.492,10.682-11.677,14.766-18.438c4.338-0.17,4.881,4.797,6.938,7.371
	c0.545,2.096,3.232,4.733,0.486,6.67C408.116,206.996,406.78,205.734,406.343,204.454 M271.328,240.69
	c2.084-1.867,4.226-4.301,7.365-2.936l0.5,1.938c0.334,1.872-0.44,3.304-1.207,4.678c-2.59,0.72-5.285,1.83-8.154,0.995
	C269.112,243.597,270.828,242.235,271.328,240.69 M279.684,200.773c-1.256-0.608-2.799-0.556-3.907,0.493l-3.959,4.666
	c-1.318-0.592-0.668-2.741-0.49-3.896c1.425-3.583,3.41-6.992,4.672-10.621c0.669-1.111,2.252-0.781,3.193-0.507
	c3.848,2.481,4.575,7.035,8.364,9.865c2.976,4.006,4.854,10.011,2.261,14.813c-0.763,0.047-1.701,1.031-2.261,0
	C288.116,209.361,284.481,204.341,279.684,200.773 M466.468,230.828l-9.859,13.331l-1.422,2.958
	c-1.375,2.89-0.502,6.998-0.775,10.095c-2.416-1.283-2.574-4.305-3.449-6.67c-2.27-9.527,7.145-14.812,10.336-22.417
	c-2.09-0.88-3.979-2.241-6.377-2.468c-5.033,6.055-7.988,12.932-11.852,19.486c-0.279,2.181-0.061,4.24,0.355,6.255
	c-23.117,35.292-62.996,58.657-108.239,58.657c-43.004,0-81.161-21.111-104.692-53.502c1.638-2.967,3.338-5.896,2.881-9.697
	c-0.104-5.135-4.952-8.316-6.655-12.828c-0.985-2.316-1.927-4.859-3.198-6.885c-2.642-1.051-6.058-2.271-8.636-0.225
	c3.188,6.777,7.319,13.151,10.617,19.938c0.782,5.609-2.308,10.295-6.167,14.309c-0.549,0.559-1.311,0.064-1.756-0.502
	c1.207-4.066,2.808-8.246,2.488-12.547c-3.861-7.49-8.977-14.419-12.785-21.966c0.109-1.335,0.543-2.813,1.931-3.423
	c3.86-1.868,8.86-1.148,11.836-4.452c3.642-6.274,6.164-12.999,6.877-20.433c0.453-0.373,0.83-0.982,1.492-0.77
	c0.713,0.436,0.713,1.154,0.985,1.764c1.435,8.312-0.935,15.688-4.67,22.139c-0.558,0.772-0.054,1.593,0.478,2.252
	c2.772,1.205,5.688-0.223,8.387-0.5c5.062-3.627,12.319-2.03,17.996-4.176c0,0.596,0.996,0.715,0.726,1.432
	c-2.865,3.131-4.127,7.054-4.908,11.125c-3.412,3.852-8.641,6.988-8.641,12.335c0.879,2.194,2.807,0,4.188,0
	c0.935,0,1.486,1.041,1.261,1.923c-1.319,2.473-3.959,4.396-3.959,7.43c1.317,3.24,0,8.326,4.451,9.59
	c10.192,1.809,17.521-6.35,27.819-5.896c7.817,1.982,14.532-1.589,19.705-7.434c1.437-0.783,2.642,0.383,3.969,0.771
	c5.558,5.888,12.002,9.423,19.494,10.575c2.315,0.318,5.233,0.553,7.379-0.225c0.49-0.543,0.168-1.486-0.271-1.98
	c-5.51-2.16-10.916-5.232-15.043-10.355c-2.313-6.373-5.399-12.545-10.076-17.996c-0.377-0.34-0.377-1.223,0.216-1.442
	c5.284,1.267,9.754,6.61,12.116,11.293c4.291,6.601,10.742,12.056,18.949,11.349c0.987-0.277,2.478-0.176,2.196-1.715
	c-12.547-3.904-14.586-17.506-24.397-24.895c-4.782-11.896-9.079-23.94-11.284-36.939c-0.324-11.841-6.99-21.141-14.33-30.053
	c-11.55-17.514-29.664-27.487-44.795-40.427l-4.961-2.692c-1.943-1.156-4.154-2.082-6.482-2.728
	c17.898-28.215,46.427-49.05,79.888-56.854v43.365c-2.244-1.029-3.267-1.008-4.791-1.008c-15.192,0-28.535,14.155-28.535,23.566
	c0,6.397,5.062,10.108,11.815,10.108c7.431,0,16.386-3.881,22.968-10.776c5.224-5.55,7.069-11.106,7.069-21.05l0.147-45.919
	c6.746-1.077,13.654-1.663,20.709-1.663c18.333,0,35.786,3.841,51.602,10.752l0.021,17.231c-2.248-1.019-3.273-1.008-4.797-1.008
	c-15.189,0-28.529,14.142-28.529,23.572c0,6.406,5.064,10.111,11.811,10.111c7.445,0,16.389-3.874,22.967-10.774
	c5.229-5.564,7.082-11.113,7.082-21.057V66.227c21.428,11.323,39.33,28.473,51.547,49.336
	c-16.613,12.776-34.443,22.616-50.135,37.405c-10.512,9.809-16.123,21.69-19.488,34.527c-7.857,22.469-9.684,49.549-33.479,63.318
	c-0.154,0.723,0.164,1.26,0.715,1.711c5.346,1.057,11.127-0.161,14.818-4.684c3.582-5.672,7.93-11.006,13.047-16.019h0.992
	c1.869,0.381,0.332,1.979,0.504,2.976c-7.17,6.824-7.287,17.006-16.805,22.416c-1.053,0.928-3.797,2.525-1.924,3.951
	c10.51,1.096,18.225-6.66,25.592-13.324l1.506-0.223c4.18,2.59,7.316,8.156,12.824,6.887c10.961-3.019,18.439,3.803,27.305,6.66
	c2.646,1.164,4.631-0.879,6.441-2.475c3.861-2.699,1.879-7.59,1.713-11.344l0.725-0.711c1.811-0.211,4.064,1.541,5.445-0.496
	c0.607-4.959-3.637-8.479-5.674-12.557c-1.102-8.093-10.412-12.785-11.83-20.709c0.438-0.337,0.764-0.928,1.244-0.988
	c3.768,2.207,6.844,5.899,10.586,8.099c5.674,2.866,12.502,2.743,19.227,2.969c1.041-0.226,1.041-1.255,0.975-2.202
	c-3.51-7.877-6.482-16.023-5.887-25.656c0.602-2.926-0.656-7.328,2.926-8.377c0.871,0.227,0.99,1.213,1.471,1.766
	c0.455,8.593,0.627,17.396,4.469,24.617c2.088,5.177,7.611,8.16,11.783,11.334C466.921,226.322,467.413,228.899,466.468,230.828
	 M222.537,146.795c0.881-0.097,1.922-0.49,2.693,0c2.428,1.762,3.469,4.522,4.69,6.945c1.312,4.617,1.812,10.459,0.483,15.255
	l-0.709,0.489c-0.711-1.153-0.711-2.638-0.996-3.958c-0.987-5.83-3.578-11.069-6.877-16.022
	C221.707,148.512,221.82,147.527,222.537,146.795 M314.522,39.217l72.209-14.59l0.057,30.252
	c-15.928-6.548-33.336-10.174-51.603-10.174c-7.032,0-13.944,0.543-20.69,1.588L314.522,39.217L314.522,39.217z M456.608,136.451
	c1.494-0.055,3.145-0.162,3.699,1.494c0.818,2.913-2.582,4.784-4.4,6.659c-6.07,4.571-11.58,10.841-14.811,17.02h-0.512
	C440.103,151.16,447.806,142.116,456.608,136.451 M642.175,264.573c-2.459-2.635-6.105-4.494-7.373-7.863
	c-2.186-5.176-1.16-12.123-6.17-15.748c-4.617-0.932-10.018,0.166-13.551-3.469c-1.912-1.764-2.693-4.303-1.975-6.883
	c2.91-6.217,4.738-13.486,3.189-20.98c0.285-2.431-2.865-5.066,0-7.103c8.754,2.366,20.254,3.247,28.078-1.755
	c7.266-4.807,12.334-12.237,11.836-21.204c-1.912-12.453-10.455-22.361-20.422-31.275c-1.268-1.11-2.299-2.27-2.201-3.913
	c0.229-0.935,0.33-2.092,1.426-2.477c5.23-0.329,10.307-1.045,14.811-3.187c7.943-4.361,10.023-13.097,8.879-21.703
	c-0.332-0.55-0.287-1.652-1.211-1.481c-2.205,2.311-4.74,3.624-7.428,4.681c-10.039,1.365-19.5,3.96-26.818,11.83
	c-2.488,3.088-2.758,8.705-0.781,12.067c6.168,11.836,20.594,18.99,23.896,32.036c1.869,5.622-0.605,10.639-4.902,14.267
	c-6.559,4.083-15.855,3.358-22.453,0c-15.639-7.924-28.75-22.029-46.035-25.884c-10.027-1.207-18.508-6.054-26.158-13.048
	c-6.502-4.999-14.92-5.726-22.41-8.367c-6.891-7.269-15.076-11.45-23.682-14.758c-4.834-2.153-10.906-1.49-15.023-5.45
	c-2.717-4.074-6.883-7.707-10.789-10.347c-6.006-3.425-14.707-6.229-21.205-2.483c-0.523,0.439-1.043,0.853-1.564,1.295
	c-13.416-22.555-33.182-40.914-56.795-52.616V0l-89.54,18.763v29.14c-36.812,8.144-68.065,31.246-87.042,62.586
	c-4.517-0.166-9.049,0.685-12.742,2.823c-10.461,9.214-23.461,12.45-35.74,17.467c-6.83,3.357-11.121,11.018-17.951,14.315
	c-9.354-0.158-17.621,2.264-24.399,8.375c-5.605,6.553-12.267,11.553-20.201,13.047c-14.148,0.434-25.83,6.541-36.006,16.521
	c-9.969,6.389-19.715,14.807-32.763,12.057c-4.913-1.322-9.631-5.783-11.348-10.572c-3.084-10.246,3.201-18.672,10.853-25.16
	c7.264-6.5,17.565-13.102,15.307-24.116c-1.711-9.366-12.119-11.185-19.725-12.853c-7.871-0.14-13.927-4.549-20.197-8.342
	c-1.492,2.311-2.045,4.944-1.76,7.863c0.602,7.27,6.547,14.761,13.545,17.014c4.553,2.597,10.795-1.101,15.03,2.214
	c1.257,1.205,0.763,2.466,0.5,3.953c-8.539,8.646-21.487,17.177-23.629,29.302c-1.711,9.742,1.756,18.877,9.361,25.156
	c8.258,6.379,21.584,7.816,31.279,3.467c1.153-0.445,2.694-0.373,3.469,0.937l0.982,13.323c0.499,6.216,5.46,10.846,4.686,17.238
	c-3.084,3.468-7.322,5.119-11.117,7.435l-9.856,0.988c-2.75,2.149-3.806,5.459-4.687,8.594c-0.326,7.103-8.365,11.392-13.547,14.812
	c-1.82,3.57-5.117,8.541-9.854,8.367c-3.296,3.789-3.523,8.869-4.673,13.547c4.506,0.445,8.748,2.256,13.535,1.211
	c5.892-1.27,6.613-7.65,9.851-11.551c3.86-4.037,9.041,0.438,13.332-1.012c5.45-2.695,10.747-5.996,15.258-11.053
	c10.346-5.238,22.127,3.125,32.039-2.494c4.405-5.109,11.68-4.229,15.032-10.566c1.818-4.896,5.455-9.027,6.173-14.31
	c-1.054-1.048-2.037-2.259-3.462-2.476c-1.167,2.263-2.596,4.342-3.918,6.445c-6.278,10.338-17.391,13.434-28.356,14.527
	c-14.543-0.33-27.701,2.594-37.226,14.539h-0.993c-0.658-0.217-1.041-0.551-1.211-1.27c5.016-8.863,14.037-15.205,23.68-16.523
	c15.145-1.469,32.107-1.864,40.416-16.741c5.334-7.976,3.75-18.819,6.111-28.077c0.108-1.094,0.834-2.033,1.985-1.984
	c0.607,0.271,1.533,0.442,1.769,1.268c-1.058,7.605-1.445,15.857,1.205,22.914c4.737,6.27,13.983,2.854,20.207,1.701
	c11.84-2.532,22.356,3.752,34.473,1.219c1.318-0.611,2.471-1.378,1.977-3.2c-0.491-2.647-2.088-4.791-1.489-7.876
	c0.391-0.875,1.268-1.479,2.26-1.479c1.818,0.983,1.486,3.297,2.209,4.943c4.783,13.985,25.377,13.219,26.588,29.572
	c-1.816,6-8.26,8.271-13.537,9.576c-9.813,2.264-11.963-9.676-17.52-14.756c-4.839-2.973-11.287-0.756-16.463,0
	c-1.316,0.5-1.757,1.834-1.486,3.199l5.889,9.58c2.154,4.576,7.924-0.822,10.357,3.738c2.256,4.961,7.049,10.912,13.049,11.076
	c9.027-1.881,17.065-5.84,25.379-9.365c3.201-4.125,9.303-1.148,13.333-3.473c1.295-0.502,2.108-1.547,2.842-2.701
	c24.867,32.682,64.176,53.834,108.322,53.834c45.535,0,85.9-22.498,110.599-56.953c0.18,0.709,0.346,1.418,0.467,2.131
	c1.107,5.084,6.514,1.879,9.859,3.471c4.527,6.666,12.338,6.285,18.795,8.865c4.562,1.539,9.029,4.145,14.26,3.479
	c4.947-1.494,7.98-6.719,8.354-11.619c1.598-2.377,5.564-0.277,7.391-2.709c2.188-3.396,5.064-6.379,6.445-10.071
	c-2.102-2.967-6.445-1.489-9.627-2.251c-0.781,0.332-2.105,0.271-2.719,0.271l-0.211-0.271c-7.105-0.447-7.23,7.701-10.863,11.6
	c-1.363,1.621-3.521,1.391-5.434,1.723c-5.795-2.104-14.814-2.926-15.254-11.07c2.248-4.785,7.371-9.031,11.564-12.33
	c4.777-0.932,9.121-3.523,12.322-7.881c2.477-2.253,1.49-7.273,5.893-7.424c1.982,3.13,0,7.152-1.486,10.125
	c8.27,0.949,16.303-0.43,23.967-1.754c11.709-2.818,22.732,3.58,33.965-0.719c5.672-2.824,6.061-9.211,6.664-14.758l-0.279-0.276
	l0.279-0.222c-0.061-2.967-0.822-5.61-1.215-8.426c-0.176-1.27-0.719-3.018,0.223-4.183c0.883-0.503,1.488-0.386,2.197,0.286
	c4.689,10.457,2.535,23.771,8.373,33.74c4.064,8.48,12.383,14.537,21.691,15.03c0.389,0.063,0.779-0.548,0.99,0
	c14.867-2.97,27.875,2.972,36.734,14.259v0.771c-0.555,0.559-1.045,1.283-1.98,0.996c-1.656-2.145-3.859-3.027-5.666-4.963
	c-8.23-7.918-20.123-8.416-31.557-7.096c-11.785,0.332-22.699-9.582-26.826-19.986c-0.998-1.047-0.924-3.309-2.748-3.19
	c-0.549,0.388-0.719,0.978-0.934,1.483c0.717,7.705,1.771,15.197,7.096,20.916c5.072,2.48,9.023,7.543,14.818,8.162
	c8.102-1.932,17.613-1.061,24.885,2.188c5.725,2.211,10.363,7.113,15.52,10.586c2.926,1.426,6.838,0.713,9.367-1.211
	c6.557-1.762,7.611,6.049,12.057,9.133c3.75,2.871,9.256,1.65,14.055,1.926l0.764-0.439c-0.656-4.52-1.596-8.918-3.465-12.82
	C648.579,274.991,645.372,268.722,642.175,264.573"/>
</svg>
