<?xml version="1.0" encoding="utf-8"?>
<!-- Generator: Adobe Illustrator 15.0.0, SVG Export Plug-In  -->
<!DOCTYPE svg PUBLIC "-//W3C//DTD SVG 1.1//EN" "http://www.w3.org/Graphics/SVG/1.1/DTD/svg11.dtd" [
	<!ENTITY ns_flows "http://ns.adobe.com/Flows/1.0/">
]>
<svg version="1.1"
	 xmlns="http://www.w3.org/2000/svg" xmlns:xlink="http://www.w3.org/1999/xlink" xmlns:a="http://ns.adobe.com/AdobeSVGViewerExtensions/3.0/"
	 x="0px" y="0px" width="292px" height="45px" viewBox="-3.865 -3.809 292 45"
	 overflow="visible" enable-background="new -3.865 -3.809 292 45" xml:space="preserve">
<defs>
</defs>
<g>
	<defs>
		<rect id="SVGID_4_" y="0.002" width="284" height="37.598"/>
	</defs>
	<clipPath id="SVGID_5_">
		<use xlink:href="#SVGID_4_"  overflow="visible"/>
	</clipPath>
	<path clip-path="url(#SVGID_5_)" d="M216.106,13.211V9.89h-13.123v18.9h3.727v-7.209h8.748v-3.375h-8.748v-4.995H216.106z
		 M200.014,28.79v-3.321h-9.585V20.96h8.667v-3.375h-8.667v-4.374h9.314V9.89h-13.041v18.9H200.014z M180.278,19.205
		c0,5.184-2.89,6.397-5.211,6.397h-3.269V13.075h3.269C177.389,13.075,180.278,14.02,180.278,19.205 M184.139,19.068
		c0-6.533-3.78-9.18-8.183-9.18h-7.883v18.9h7.209c2.916,0,5.291-1.135,6.695-2.835C183.463,24.118,184.139,21.634,184.139,19.068
		 M155.978,19.205c0,5.184-2.89,6.397-5.211,6.397H147.5V13.075h3.267C153.088,13.075,155.978,14.02,155.978,19.205 M159.838,19.068
		c0-6.533-3.779-9.18-8.181-9.18h-7.885v18.9h7.209c2.916,0,5.293-1.135,6.696-2.835C159.163,24.118,159.838,21.634,159.838,19.068
		 M137.213,15.532c0,0.757-0.351,1.484-0.891,1.943c-0.621,0.514-1.485,0.729-2.7,0.729h-3.51v-5.104h4.131
		C136.133,13.102,137.213,13.857,137.213,15.532 M140.561,23.064c-0.054-1.942-1.08-3.104-2.619-3.429
		c2.187-0.945,2.97-2.7,2.97-4.645c0-2.728-1.998-5.104-5.994-5.104h-8.532v18.9h3.726v-7.426h4.374
		c1.539,0,2.295,0.729,2.403,2.105c0.162,1.917,0,3.753,0.405,5.319h3.915c-0.135-0.217-0.297-0.621-0.432-1.539
		C140.669,26.439,140.614,25.279,140.561,23.064 M118.421,21.796h-5.022l2.484-9.045L118.421,21.796z M111.482,28.79l1.026-3.78
		h6.831l1.08,3.78h4.077l-5.832-18.9h-5.4l-5.67,18.9H111.482z M103.329,19.205c0,5.184-2.889,6.397-5.211,6.397h-3.267V13.075
		h3.267C100.44,13.075,103.329,14.02,103.329,19.205 M107.19,19.068c0-6.533-3.78-9.18-8.181-9.18h-7.884v18.9h7.209
		c2.916,0,5.292-1.135,6.696-2.835C106.515,24.118,107.19,21.634,107.19,19.068 M87.885,28.79V9.89h-3.699v13.176L77.193,9.89
		h-4.725v18.9h3.726V15.505l7.155,13.284L87.885,28.79L87.885,28.79z M64.503,21.796h-5.022l2.484-9.045L64.503,21.796z
		 M57.564,28.79l1.026-3.78h6.831l1.08,3.78h4.077l-5.832-18.9h-5.4l-5.67,18.9H57.564z M54.621,13.211V9.89h-14.85v3.321h5.562
		V28.79h3.726V13.211H54.621z M38.691,22.93c0-2.376-1.269-3.591-2.808-4.32c-3.267-1.593-8.127-0.862-8.127-3.697
		c0-1.352,1.08-2.241,3.24-2.241c3.132,0,3.429,1.809,3.537,2.835h3.834c-0.297-4.537-3.672-5.914-7.452-5.914
		c-3.645,0-6.966,1.863-6.966,5.589c0,1.836,0.702,3.104,1.593,3.888c2.997,2.646,9.396,1.188,9.396,4.294
		c0,2.134-2.214,2.564-3.807,2.564c-2.322,0-3.645-1.026-3.645-3.104h-3.861c0.108,4.238,3.132,6.265,7.344,6.265
		C35.667,29.087,38.691,27.088,38.691,22.93"/>
</g>
<g>
	<defs>
		<rect id="SVGID_3_" y="0.002" width="284" height="37.598"/>
	</defs>
	<clipPath id="SVGID_6_">
		<use xlink:href="#SVGID_3_"  overflow="visible"/>
	</clipPath>
	<rect x="239" y="1" clip-path="url(#SVGID_6_)" fill="none" stroke="#000000" stroke-width="2" width="44" height="35.598"/>
</g>
<g>
	<defs>
		<rect id="SVGID_2_" y="0.002" width="284" height="37.598"/>
	</defs>
	<clipPath id="SVGID_7_">
		<use xlink:href="#SVGID_2_"  overflow="visible"/>
	</clipPath>
	<path clip-path="url(#SVGID_7_)" d="M276.561,20.479c0,0.84-0.551,1.279-1.5,1.279h-2.021v-2.49h1.561
		C275.721,19.269,276.561,19.528,276.561,20.479 M276.35,17.33c0,0.8-0.649,1.22-1.409,1.22h-1.9v-2.312h2.012
		C275.76,16.238,276.35,16.508,276.35,17.33 M277.43,20.549c0-1.062-0.729-1.551-1.379-1.689c0.521-0.21,1.129-0.75,1.129-1.641
		c0-1.42-1.198-1.72-2.239-1.72h-2.75v6.999h3.041C276.75,22.499,277.43,21.489,277.43,20.549 M267.27,21.618l-2.09-6.118h-1.34
		v6.999h0.851V16.42l2.061,6.079h0.99l2.1-6.079v6.079h0.85V15.5h-1.279L267.27,21.618z M258.04,21.89
		c-0.711,0-1.521-0.431-1.521-2.86c0-2.421,0.811-2.841,1.521-2.841c0.71,0,1.511,0.42,1.511,2.841
		C259.551,21.46,258.75,21.89,258.04,21.89 M258.04,15.46c-1.1,0-2.399,0.658-2.399,3.569c0,2.931,1.3,3.579,2.399,3.579
		c1.101,0,2.398-0.648,2.398-3.579C260.44,16.118,259.141,15.46,258.04,15.46 M252.1,18.569c-0.899,0-1.489-0.439-1.489-1.22
		c0-0.791,0.621-1.171,1.489-1.171c0.86,0,1.481,0.38,1.481,1.171C253.581,18.13,253,18.569,252.1,18.569 M252.1,21.89
		c-0.989,0-1.59-0.54-1.59-1.33c0-0.791,0.562-1.312,1.59-1.312c1.021,0,1.582,0.521,1.582,1.312
		C253.682,21.35,253.079,21.89,252.1,21.89 M252.1,15.46c-1.271,0-2.289,0.648-2.289,1.851c0,0.79,0.459,1.359,1.14,1.59
		c-0.66,0.159-1.299,0.759-1.299,1.689c0,1.271,0.998,2.02,2.448,2.02c1.451,0,2.438-0.749,2.438-2.02
		c0-0.932-0.629-1.53-1.299-1.689c0.689-0.229,1.14-0.8,1.14-1.59C254.379,16.108,253.36,15.46,252.1,15.46 M248.03,16.338
		l-2.898,6.16h0.93l2.84-6.229V15.6h-4.58v0.738H248.03z"/>
</g>
<g>
	<defs>
		<rect id="SVGID_1_" y="0.002" width="284" height="37.598"/>
	</defs>
	<clipPath id="SVGID_8_">
		<use xlink:href="#SVGID_1_"  overflow="visible"/>
	</clipPath>
	<rect x="1" y="1" clip-path="url(#SVGID_8_)" fill="none" stroke="#000000" stroke-width="2" width="238" height="35.598"/>
</g>
</svg>
