<?xml version="1.0" encoding="utf-8"?>
<!-- Generator: Adobe Illustrator 15.0.0, SVG Export Plug-In  -->
<!DOCTYPE svg PUBLIC "-//W3C//DTD SVG 1.1//EN" "http://www.w3.org/Graphics/SVG/1.1/DTD/svg11.dtd" [
	<!ENTITY ns_flows "http://ns.adobe.com/Flows/1.0/">
]>
<svg version="1.1"
	 xmlns="http://www.w3.org/2000/svg" xmlns:xlink="http://www.w3.org/1999/xlink" xmlns:a="http://ns.adobe.com/AdobeSVGViewerExtensions/3.0/"
	 x="0px" y="0px" width="292px" height="45px" viewBox="-3.808 -3.73 292 45"
	 overflow="visible" enable-background="new -3.808 -3.73 292 45" xml:space="preserve">
<defs>
</defs>
<g>
	<defs>
		<rect id="SVGID_4_" y="0.002" width="284" height="37.598"/>
	</defs>
	<clipPath id="SVGID_5_">
		<use xlink:href="#SVGID_4_"  overflow="visible"/>
	</clipPath>
	<path clip-path="url(#SVGID_5_)" fill="#FFFFFF" d="M216.105,13.211V9.89h-13.122v18.9h3.726v-7.209h8.748v-3.375h-8.748v-4.995
		H216.105z M200.013,28.791V25.47h-9.586v-4.509h8.668v-3.375h-8.668v-4.375h9.315V9.89h-13.041v18.9L200.013,28.791L200.013,28.791
		z M180.277,19.206c0,5.184-2.889,6.397-5.211,6.397h-3.268V13.077h3.268C177.388,13.077,180.277,14.021,180.277,19.206
		 M184.138,19.069c0-6.532-3.78-9.18-8.182-9.18h-7.885v18.9h7.21c2.915,0,5.291-1.135,6.695-2.835
		C183.462,24.12,184.138,21.635,184.138,19.069 M155.977,19.206c0,5.184-2.89,6.397-5.211,6.397H147.5V13.077h3.267
		C153.087,13.077,155.977,14.021,155.977,19.206 M159.837,19.069c0-6.532-3.778-9.18-8.18-9.18h-7.885v18.9h7.209
		c2.916,0,5.292-1.135,6.695-2.835C159.164,24.12,159.837,21.635,159.837,19.069 M137.213,15.534c0,0.756-0.352,1.483-0.892,1.942
		c-0.62,0.515-1.485,0.729-2.7,0.729h-3.51v-5.104h4.131C136.132,13.103,137.213,13.858,137.213,15.534 M140.56,23.065
		c-0.055-1.942-1.08-3.104-2.619-3.429c2.188-0.945,2.971-2.7,2.971-4.644c0-2.729-1.998-5.104-5.994-5.104h-8.532v18.9h3.726
		v-7.426h4.374c1.539,0,2.295,0.729,2.403,2.105c0.162,1.917,0,3.753,0.404,5.319h3.916c-0.135-0.217-0.297-0.621-0.433-1.539
		C140.668,26.44,140.614,25.28,140.56,23.065 M118.42,21.797h-5.021l2.484-9.045L118.42,21.797z M111.481,28.791l1.026-3.78h6.83
		l1.08,3.78h4.078l-5.832-18.9h-5.4l-5.67,18.9H111.481z M103.328,19.206c0,5.184-2.889,6.397-5.211,6.397H94.85V13.077h3.267
		C100.439,13.077,103.328,14.021,103.328,19.206 M107.189,19.069c0-6.532-3.779-9.18-8.182-9.18h-7.883v18.9h7.209
		c2.916,0,5.291-1.135,6.695-2.835C106.514,24.12,107.189,21.635,107.189,19.069 M87.884,28.791v-18.9h-3.699v13.176L77.192,9.89
		h-4.725v18.9h3.726V15.506l7.155,13.284L87.884,28.791L87.884,28.791z M64.502,21.797H59.48l2.484-9.045L64.502,21.797z
		 M57.563,28.791l1.026-3.78h6.831l1.08,3.78h4.077l-5.832-18.9h-5.4l-5.67,18.9H57.563z M54.62,13.211V9.89H39.77v3.321h5.562
		v15.58h3.726v-15.58H54.62z M38.69,22.931c0-2.376-1.269-3.591-2.808-4.32c-3.267-1.593-8.127-0.862-8.127-3.697
		c0-1.352,1.08-2.241,3.24-2.241c3.132,0,3.429,1.809,3.537,2.835h3.834c-0.297-4.536-3.672-5.913-7.452-5.913
		c-3.645,0-6.966,1.863-6.966,5.589c0,1.836,0.702,3.105,1.593,3.888c2.997,2.646,9.396,1.188,9.396,4.294
		c0,2.134-2.214,2.564-3.807,2.564c-2.322,0-3.645-1.026-3.645-3.104h-3.861c0.108,4.237,3.132,6.264,7.344,6.264
		C35.666,29.087,38.69,27.089,38.69,22.931"/>
</g>
<g>
	<defs>
		<rect id="SVGID_3_" y="0.002" width="284" height="37.598"/>
	</defs>
	<clipPath id="SVGID_6_">
		<use xlink:href="#SVGID_3_"  overflow="visible"/>
	</clipPath>
	<rect x="239" y="1" clip-path="url(#SVGID_6_)" fill="none" stroke="#FFFFFF" stroke-width="2" width="44" height="35.598"/>
</g>
<g>
	<defs>
		<rect id="SVGID_2_" y="0.002" width="284" height="37.598"/>
	</defs>
	<clipPath id="SVGID_7_">
		<use xlink:href="#SVGID_2_"  overflow="visible"/>
	</clipPath>
	<path clip-path="url(#SVGID_7_)" fill="#FFFFFF" d="M276.56,20.48c0,0.84-0.551,1.279-1.5,1.279h-2.021v-2.49h1.562
		C275.72,19.27,276.56,19.529,276.56,20.48 M276.349,17.331c0,0.8-0.649,1.22-1.409,1.22h-1.901v-2.312h2.012
		C275.759,16.239,276.349,16.509,276.349,17.331 M277.429,20.55c0-1.062-0.729-1.551-1.379-1.689c0.52-0.21,1.129-0.75,1.129-1.641
		c0-1.42-1.199-1.72-2.239-1.72h-2.75v6.999h3.04C276.75,22.5,277.429,21.491,277.429,20.55 M267.269,21.62l-2.09-6.119h-1.34V22.5
		h0.85v-6.079l2.061,6.079h0.99l2.1-6.079V22.5h0.851v-6.999h-1.278L267.269,21.62z M258.041,21.891
		c-0.711,0-1.521-0.431-1.521-2.86c0-2.421,0.811-2.841,1.521-2.841c0.709,0,1.51,0.42,1.51,2.841
		C259.55,21.46,258.75,21.891,258.041,21.891 M258.041,15.46c-1.101,0-2.399,0.659-2.399,3.569c0,2.931,1.3,3.579,2.399,3.579
		c1.101,0,2.398-0.648,2.398-3.579C260.439,16.12,259.14,15.46,258.041,15.46 M252.099,18.57c-0.899,0-1.49-0.439-1.49-1.22
		c0-0.791,0.621-1.171,1.49-1.171c0.859,0,1.48,0.38,1.48,1.171C253.582,18.13,253,18.57,252.099,18.57 M252.099,21.891
		c-0.989,0-1.59-0.54-1.59-1.33c0-0.791,0.561-1.312,1.59-1.312c1.021,0,1.582,0.521,1.582,1.312
		C253.681,21.351,253.08,21.891,252.099,21.891 M252.099,15.46c-1.271,0-2.289,0.648-2.289,1.851c0,0.79,0.459,1.359,1.14,1.59
		c-0.659,0.159-1.299,0.76-1.299,1.689c0,1.271,0.998,2.02,2.448,2.02c1.451,0,2.439-0.749,2.439-2.02c0-0.931-0.63-1.53-1.3-1.689
		c0.688-0.229,1.14-0.8,1.14-1.59C254.378,16.109,253.36,15.46,252.099,15.46 M248.03,16.339l-2.899,6.16h0.931l2.84-6.229v-0.669
		h-4.58v0.738H248.03z"/>
</g>
<g>
	<defs>
		<rect id="SVGID_1_" y="0.002" width="284" height="37.598"/>
	</defs>
	<clipPath id="SVGID_8_">
		<use xlink:href="#SVGID_1_"  overflow="visible"/>
	</clipPath>
	<rect x="1" y="1" clip-path="url(#SVGID_8_)" fill="none" stroke="#FFFFFF" stroke-width="2" width="238" height="35.598"/>
</g>
</svg>
