<?xml version="1.0" encoding="utf-8"?>
<!-- Generator: Adobe Illustrator 15.0.0, SVG Export Plug-In  -->
<!DOCTYPE svg PUBLIC "-//W3C//DTD SVG 1.1//EN" "http://www.w3.org/Graphics/SVG/1.1/DTD/svg11.dtd" [
	<!ENTITY ns_flows "http://ns.adobe.com/Flows/1.0/">
]>
<svg version="1.1"
	 xmlns="http://www.w3.org/2000/svg" xmlns:xlink="http://www.w3.org/1999/xlink" xmlns:a="http://ns.adobe.com/AdobeSVGViewerExtensions/3.0/"
	 x="0px" y="0px" width="425px" height="425px" viewBox="0 0 425 425" overflow="visible" enable-background="new 0 0 425 425"
	 xml:space="preserve">
<defs>
</defs>
<path fill="#FFFFFF" d="M330.923,305.358h-13.411v13.408h13.411V305.358z M304.915,274.817h12.055
	c0-6.341,2.446-10.057,7.972-10.057c4.439,0,6.889,2.809,6.889,6.795c0,2.809-1.632,5.979-3.354,7.976
	c-4.17,4.984-10.149,10.33-10.241,19.031h11.871c0.636-8.248,14.137-13.956,14.137-27.187c0-5.617-2.085-10.15-6.072-13.05
	c-3.081-2.262-7.248-3.623-12.685-3.623C310.443,254.703,304.915,264.581,304.915,274.817 M280.179,319.399
	c13.14,0,21.022-7.064,22.563-16.945l-12.416-0.27c-0.994,4.622-4.98,7.067-9.876,7.067c-8.971,0-11.235-6.886-11.235-12.506h34.253
	v-2.626c0-14.681-7.885-25.644-22.836-25.644c-13.592,0-24.103,8.877-24.103,25.733
	C256.529,311.064,266.312,319.399,280.179,319.399 M269.667,287.958c0.636-5.889,5.165-9.425,10.875-9.425
	c4.983,0,9.604,2.629,9.967,9.425H269.667z M240.888,269.108l-18.937,20.119v-37.517h-12.234v67.056h12.234v-14.589l7.155-7.701
	l13.596,22.29h14.407l-19.302-30.718l18.398-18.938h-15.318V269.108z M188.65,298.562c0,2.354-0.545,5.526-2.901,7.972
	c-1.903,1.902-5.436,3.353-9.424,3.353c-6.798,0-7.34-4.622-7.34-5.978c0-1.813,0.722-3.174,1.902-4.079
	c1.359-1.087,3.262-1.538,5.255-1.902c3.897-0.727,12.506-1.993,12.506-1.993v2.628H188.65z M171.522,289.229
	c-4.351,0.634-15.134,3.264-15.134,14.589c0,9.966,7.07,15.584,16.855,15.584c6.979,0,12.323-2.082,15.768-5.618v4.984h12.504
	c0,0-0.636-3.167-0.636-6.978v-27.365c0-7.161-2.536-15.948-20.114-15.948c-18.486,0-22.293,9.425-22.293,16.763h11.781
	c0-1.631,0.182-6.795,9.425-6.795c7.338,0,8.971,2.536,8.971,6.434v1.72L171.522,289.229z M121.241,289.229
	c0-7.071,3.897-10.329,8.608-10.329c5.709,0,7.974,4.074,7.974,8.971v30.897h12.236v-34.25c0-9.427-6.163-16.04-16.855-16.04
	c-5.89,0-11.507,2.083-15.223,6.885c-2.447-4.169-6.616-6.885-13.322-6.885c-6.253,0-10.24,2.627-12.505,5.615v-4.982h-11.96v49.657
	h12.233v-29.539c0-7.071,4.168-10.329,8.882-10.329c5.708,0,7.701,4.074,7.701,8.971v30.897h12.232L121.241,289.229L121.241,289.229
	z"/>
<path fill="#FFFFFF" d="M419.821,234.681v-10.327c0,0-2.718,0.18-5.072,0.18c-3.987,0-4.984-0.634-4.984-4.349v-24.741h11.146
	v-10.237h-11.146v-13.774h-12.235v13.774h-7.521v10.237h7.521v28.274c0,8.155,3.535,11.601,13.142,11.601
	C415.835,235.317,419.821,234.681,419.821,234.681 M385.418,185.207h-12.235v49.657h12.235V185.207z M385.418,167.808h-12.235v11.69
	h12.235V167.808z M333.041,199.796h12.052c0-3.625-1.723-15.222-20.39-15.222c-11.418,0-20.658,5.072-20.658,15.133
	c0,8.427,5.074,11.961,10.873,13.683c2.808,0.813,5.8,1.267,8.699,1.629c5.618,0.727,10.421,1.45,10.421,5.256
	c0,3.172-2.448,5.8-9.153,5.8c-5.257,0-9.787-1.903-9.787-6.977h-12.052c0,2.536,0.816,16.399,21.024,16.399
	c17.488,0,22.382-8.881,22.382-16.399c0-6.254-2.992-9.697-6.886-11.691c-6.164-3.172-14.953-3.172-19.846-4.622
	c-2.174-0.632-3.443-2.082-3.443-3.985c0-4.08,4.712-5.075,8.064-5.075C329.599,193.725,333.041,195.807,333.041,199.796
	 M275.683,235.497c13.141,0,21.023-7.065,22.562-16.945l-12.411-0.271c-0.997,4.618-4.983,7.067-9.878,7.067
	c-8.972,0-11.235-6.887-11.235-12.505h34.251v-2.626c0-14.681-7.885-25.645-22.834-25.645c-13.594,0-24.104,8.878-24.104,25.733
	C252.032,227.161,261.817,235.497,275.683,235.497 M265.172,204.057c0.635-5.893,5.164-9.425,10.873-9.425
	c4.985,0,9.607,2.629,9.968,9.425H265.172z M223.886,194.72c6.435,0,11.328,4.443,11.328,15.314
	c0,10.873-4.894,15.316-11.328,15.316c-6.432,0-11.328-4.441-11.328-15.316C212.558,199.164,217.454,194.72,223.886,194.72
	 M223.886,235.497c13.864,0,23.832-8.607,23.832-25.462c0-16.854-9.968-25.461-23.832-25.461c-13.862,0-23.83,8.608-23.83,25.461
	C200.056,226.891,210.023,235.497,223.886,235.497 M158.391,210.759c0-8.881,3.081-15.948,12.14-15.948
	c4.441,0,7.431,1.994,8.971,4.806c1.632,2.898,1.632,6.794,1.632,10.6c0,5.071-0.816,8.971-2.898,11.506
	c-1.905,2.357-4.896,3.626-8.791,3.626C159.931,225.351,158.391,217.014,158.391,210.759 M168.901,184.574
	c-16.492,0-23.017,12.234-23.017,26.55c0,4.981,0.908,9.784,2.899,13.683c3.082,6.163,8.972,10.691,18.848,10.691
	c5.619,0,10.785-2.173,13.684-5.072v4.438h12.051v-67.055h-12.233v21.021C178.236,186.203,174.337,184.574,168.901,184.574"/>
<path fill="#FFFFFF" d="M399.355,151.596c13.141,0,21.024-7.069,22.564-16.947l-12.413-0.271c-0.998,4.621-4.985,7.069-9.878,7.069
	c-8.972,0-11.236-6.889-11.236-12.506h34.254v-2.627c0-14.682-7.886-25.646-22.837-25.646c-13.593,0-24.102,8.882-24.102,25.735
	C375.706,143.258,385.492,151.596,399.355,151.596 M388.846,120.151c0.635-5.89,5.164-9.426,10.873-9.426
	c4.984,0,9.606,2.629,9.969,9.426H388.846z M348.974,151.596c13.776,0,21.841-7.793,22.747-18.577h-12.506
	c-0.637,5.437-4.531,8.428-9.786,8.428c-6.345,0-10.967-4.44-10.967-15.316c0-10.873,4.804-15.314,11.238-15.314
	c5.437,0,8.878,3.352,9.515,8.789h12.506c-1.27-12.414-9.969-18.938-22.202-18.938c-13.593,0-23.651,8.427-23.651,25.734
	C325.869,143.258,335.11,151.596,348.974,151.596 M319.471,150.961v-33.983c0-10.059-6.523-16.312-17.58-16.312
	c-6.345,0-11.329,2.538-14.138,5.89v-5.254h-12.052v49.658h12.233v-28.001c0-7.974,4.712-11.869,10.694-11.869
	c5.345,0,8.609,3.171,8.609,9.061v30.811H319.471z M245.728,151.596c13.14,0,21.022-7.069,22.564-16.947l-12.414-0.271
	c-0.998,4.621-4.982,7.069-9.879,7.069c-8.969,0-11.235-6.889-11.235-12.506h34.254v-2.627c0-14.682-7.884-25.646-22.837-25.646
	c-13.591,0-24.103,8.882-24.103,25.735C222.076,143.258,231.862,151.596,245.728,151.596 M235.216,120.151
	c0.635-5.89,5.167-9.426,10.875-9.426c4.984,0,9.605,2.629,9.967,9.426H235.216z M219.523,113.627v-12.323h-3.627
	c-5.979,0-10.602,2.809-12.869,7.339v-7.339H191.25v49.658h12.233V124.5c0-7.885,4.713-10.873,12.596-10.873H219.523z
	 M161.276,151.596c13.139,0,21.024-7.069,22.563-16.947l-12.412-0.271c-0.997,4.621-4.986,7.069-9.877,7.069
	c-8.972,0-11.236-6.889-11.236-12.506h34.253v-2.627c0-14.682-7.886-25.646-22.836-25.646c-13.592,0-24.105,8.882-24.105,25.735
	C137.625,143.258,147.412,151.596,161.276,151.596 M150.764,120.151c0.635-5.89,5.166-9.426,10.875-9.426
	c4.984,0,9.604,2.629,9.966,9.426H150.764z M135.387,111.542v-10.238h-10.602v-4.079c0-3.081,2.175-3.352,4.531-3.352
	c3.171,0,6.071,0.181,6.071,0.181V83.452c0,0-4.529-0.183-9.424-0.183c-8.97,0-13.41,4.261-13.41,12.235v5.8H96.06V97.86
	c0-3.08,2.175-3.352,4.531-3.352c3.171,0,6.071,0.181,6.071,0.181V84.088c0,0-4.529-0.182-9.423-0.182
	c-8.97,0-13.412,4.259-13.412,12.234v5.167h-8.155v10.238h8.155v39.419h12.234v-39.422h16.492v39.419h12.234v-39.419H135.387z
	 M70.48,101.304H58.246v49.658H70.48V101.304z M70.48,83.903H58.246v11.689H70.48V83.903z M14.316,126.855
	c0-8.881,3.082-15.949,12.142-15.949c4.441,0,7.432,1.993,8.971,4.804c1.633,2.898,1.633,6.795,1.633,10.602
	c0,5.073-0.816,8.97-2.899,11.506c-1.904,2.356-4.894,3.627-8.79,3.627C15.857,141.447,14.316,133.11,14.316,126.855
	 M24.828,100.668c-16.492,0-23.017,12.234-23.017,26.552c0,4.984,0.906,9.787,2.899,13.683c3.082,6.162,8.972,10.693,18.848,10.693
	c5.619,0,10.785-2.175,13.685-5.075v4.44h12.051V83.903H37.062v21.023C34.163,102.299,30.266,100.668,24.828,100.668"/>
<path fill="#FFFFFF" d="M214.313,66.876V56.545c0,0-2.719,0.182-5.074,0.182c-3.987,0-4.985-0.635-4.985-4.35V27.639h11.147V17.398
	h-11.147V3.625H192.02v13.773H184.5V27.64h7.519v28.272c0,8.155,3.536,11.598,13.142,11.598
	C210.326,67.51,214.313,66.876,214.313,66.876 M167.846,46.849c0,2.356-0.541,5.528-2.9,7.975c-1.902,1.903-5.436,3.353-9.423,3.353
	c-6.796,0-7.34-4.622-7.34-5.98c0-1.812,0.725-3.172,1.904-4.08c1.358-1.087,3.263-1.539,5.256-1.902
	c3.896-0.726,12.504-1.992,12.504-1.992V46.849z M150.719,37.516c-4.349,0.633-15.132,3.262-15.132,14.587
	c0,9.967,7.067,15.586,16.855,15.586c6.978,0,12.325-2.085,15.766-5.619v4.986h12.507c0,0-0.635-3.172-0.635-6.979V32.713
	c0-7.16-2.538-15.95-20.118-15.95c-18.485,0-22.292,9.424-22.292,16.764h11.78c0-1.63,0.183-6.795,9.425-6.795
	c7.338,0,8.969,2.537,8.969,6.435v1.722L150.719,37.516z M129.353,67.057V33.076c0-10.059-6.525-16.311-17.58-16.311
	c-6.343,0-10.874,2.536-13.955,5.89V0H85.585v67.057h12.232V39.056c0-7.975,4.713-11.871,10.692-11.871
	c5.347,0,8.607,3.173,8.607,9.061v30.811H129.353L129.353,67.057z M80.738,3.625H67.781l-8.881,51.47L48.389,3.625H33.347
	l-10.241,51.47l-9.513-51.47H0l12.957,63.432h18.576l9.334-46.759l9.242,46.759h18.213L80.738,3.625z"/>
<path fill="#FFFFFF" d="M393.661,347.767c1.731,0,2.405,1.132,2.439,2.011h2.561c-0.017-1.57-1.182-4.167-4.893-4.167
	c-4.241,0-5.673,3.461-5.673,6.415c0,2.526,0.882,6.342,5.549,6.342c3.427,0,4.912-2.26,5.071-4.257h-2.543
	c-0.018,0.618-0.494,2.104-2.474,2.104c-1.855,0-3.025-1.466-3.025-4.154C390.671,349.232,391.77,347.767,393.661,347.767
	 M385.768,345.805h-2.438v12.368h2.438V345.805z M381.062,354.342c0-1.558-0.83-2.353-1.835-2.829
	c-2.141-1.046-5.321-0.565-5.321-2.422c0-0.884,0.707-1.469,2.12-1.469c2.05,0.005,2.247,1.188,2.315,1.859h2.509
	c-0.194-2.97-2.402-3.869-4.879-3.869c-2.384,0-4.556,1.218-4.556,3.655c0,1.199,0.459,2.032,1.041,2.546
	c1.962,1.729,6.15,0.776,6.15,2.812c0,1.396-1.45,1.677-2.493,1.677c-1.521,0-2.388-0.671-2.388-2.032h-2.523
	c0.07,2.772,2.049,4.097,4.805,4.097C379.083,358.368,381.062,357.062,381.062,354.342z M364.21,356.321
	c-1.557,0-2.617-0.869-2.617-2.563v-7.953h-2.436v7.738c0,3.378,2.172,4.824,4.981,4.824c2.828,0,4.965-1.378,4.965-4.752v-7.812
	h-2.332v7.902C366.771,355.401,365.784,356.321,364.21,356.321 M350.104,354.8l-2.494-8.995h-3.834v12.368h2.437v-9.203l2.617,9.203
	h2.545l2.617-9.203v9.203h2.437v-12.368h-3.834L350.104,354.8z M328.683,352.099c0-2.831,1.15-4.33,3.042-4.33
	c1.732,0,2.368,1.13,2.404,2.01h2.544c-0.019-1.569-1.165-4.166-4.876-4.166c-4.242,0-5.692,3.461-5.692,6.413
	c0,3.198,1.344,6.343,5.48,6.343c1.359,0,2.472-0.477,3.269-1.36v1.165h2.205v-6.693h-5.283v2.116h2.952
	c-0.036,0.939-0.583,2.621-2.97,2.621C329.282,356.217,328.683,354.072,328.683,352.099 M323.77,358.173v-12.368h-2.418v8.622
	l-4.581-8.622h-3.089v12.368h2.437v-8.691l4.685,8.691H323.77z M310.871,345.805h-2.437v12.368h2.437V345.805z M303.7,358.173h2.935
	l-4.825-7.084l4.559-5.284h-2.916l-4.77,5.672v-5.672h-2.438v12.367h2.438v-3.427l1.537-1.782L303.7,358.173z M290.465,353.598
	h-3.287l1.627-5.919L290.465,353.598z M285.926,358.173l0.672-2.474h4.471l0.707,2.474h2.669l-3.817-12.368h-3.533l-3.712,12.368
	H285.926z M275.243,354.8l-2.491-8.995h-3.833v12.368h2.436v-9.203l2.616,9.203h2.547l2.616-9.203v9.203h2.434v-12.368h-3.83
	L275.243,354.8z M262.643,347.978v-2.173h-9.719v2.173h3.641v10.195h2.437v-10.195H262.643z M246.186,356.321
	c-1.558,0-2.618-0.869-2.618-2.563v-7.953h-2.438v7.738c0,3.378,2.173,4.824,4.984,4.824c2.827,0,4.963-1.378,4.963-4.752v-7.812
	h-2.329v7.902C248.748,355.401,247.758,356.321,246.186,356.321 M236.375,352.008c0,2.581-1.149,4.209-3.025,4.209
	c-1.889,0-3.021-1.627-3.021-4.209c0-2.74,1.133-4.241,3.021-4.241C235.226,347.767,236.375,349.268,236.375,352.008
	 M238.951,352.008c0-4.013-2.454-6.397-5.602-6.397c-3.163,0-5.6,2.383-5.6,6.397c0,4.03,2.436,6.359,5.6,6.359
	C236.499,358.368,238.951,356.038,238.951,352.008 M223.652,354.412c0,1.061-0.636,1.714-1.876,1.714h-2.986v-3.305h2.972
	C222.945,352.821,223.652,353.437,223.652,354.412 M223.264,349.322c0,0.973-0.619,1.521-1.573,1.521h-2.899v-2.989h2.865
	C222.573,347.854,223.264,348.349,223.264,349.322 M226.125,354.553c0-2.035-1.432-2.688-2.153-2.917
	c0.582-0.298,1.712-1.042,1.712-2.669c0-2.387-1.943-3.162-3.728-3.162h-5.602v12.368h5.671
	C224.854,358.173,226.125,356.285,226.125,354.553 M210.575,353.598h-3.285l1.626-5.919L210.575,353.598z M206.034,358.173
	l0.672-2.474h4.47l0.708,2.474h2.668l-3.818-12.368H207.2l-3.711,12.368H206.034z M191.153,354.8l-2.49-8.995h-3.833v12.368h2.434
	v-9.203l2.618,9.203h2.545l2.617-9.203v9.203h2.436v-12.368h-3.831L191.153,354.8z M182.768,358.173v-2.17h-6.061v-10.198h-2.436
	v12.368H182.768z M171.461,345.805h-2.438v12.368h2.438V345.805z M166.842,347.978v-2.173h-8.584v12.368h2.436v-4.717h5.726v-2.206
	h-5.726v-3.272H166.842L166.842,347.978z M148.273,353.598h-3.288l1.625-5.919L148.273,353.598z M143.729,358.173l0.671-2.474h4.471
	l0.708,2.474h2.668l-3.818-12.368h-3.534l-3.711,12.368H143.729z"/>
</svg>
