<?xml version="1.0" encoding="utf-8"?>
<!-- Generator: Adobe Illustrator 15.1.0, SVG Export Plug-In  -->
<!DOCTYPE svg PUBLIC "-//W3C//DTD SVG 1.0//EN" "http://www.w3.org/TR/2001/REC-SVG-20010904/DTD/svg10.dtd" [
	<!ENTITY ns_flows "http://ns.adobe.com/Flows/1.0/">
]>
<svg version="1.0"
	 xmlns="http://www.w3.org/2000/svg" xmlns:xlink="http://www.w3.org/1999/xlink" xmlns:a="http://ns.adobe.com/AdobeSVGViewerExtensions/3.0/"
	 x="0px" y="0px" width="425px" height="425px" viewBox="-42 -40.0600586 425 425"
	 overflow="visible" enable-background="new -42 -40.0600586 425 425" xml:space="preserve">
<defs>
</defs>
<g>
	<path fill="#FFFFFF" d="M242.9960938,50.828125h1.5c1.1875,0,1.5957031-0.5874023,1.9433594-1.5820312l2.5322266-7.3569336
		h-1.9316406l-1.2841797,4.34375l-1.2841797-4.34375h-2.0039062l2.3037109,6.6367188
		c-0.1201172,0.5268555-0.2636719,0.7431641-0.6474609,0.7431641h-1.1279297V50.828125z M238.3300781,44.6118164
		c0-0.8759766,0.5039062-1.2719727,1.0673828-1.2719727c0.6855469,0,0.9492188,0.5039062,0.9492188,1.0922852v4.0917969h1.8466797
		V44c0-1.2832031-0.8398438-2.1938477-2.3388672-2.1938477c-0.7802734,0-1.4882812,0.2509766-1.9931641,0.8388672
		c-0.3115234-0.4921875-0.8505859-0.8388672-1.7509766-0.8388672c-0.7802734,0-1.3564453,0.3105469-1.6806641,0.7070312v-0.6240234
		h-1.8232422v6.6347656h1.8476562V44.612793c0-0.8769531,0.515625-1.2729492,1.0800781-1.2729492
		c0.6845703,0,0.9365234,0.5039062,0.9365234,1.0922852v4.0917969h1.859375V44.6118164z M227.3232422,44.3847656
		c0.0712891-0.659668,0.6113281-1.1289062,1.2958984-1.1289062c0.5751953,0,1.1279297,0.3120117,1.1992188,1.1289062H227.3232422z
		 M228.5585938,48.6079102c2.2802734,0,3.0478516-1.4990234,3.1445312-2.3271484l-1.8242188-0.0356445
		c-0.0244141,0.2158203-0.2998047,0.8637695-1.2597656,0.8637695c-1.0087891,0-1.3564453-0.7680664-1.3564453-1.5009766h4.5605469
		v-0.2280273c0-2.1118164-1.1523438-3.5737305-3.2167969-3.5737305c-1.90625,0-3.2734375,1.3540039-3.2734375,3.4057617
		C225.3330078,47.1928711,226.4355469,48.6079102,228.5585938,48.6079102 M219.8720703,45.2241211
		c0-0.9003906,0.3359375-1.9199219,1.4873047-1.9199219c0.3857422,0,0.8056641,0.0839844,1.0576172,0.4555664
		c0.1914062,0.2763672,0.2753906,0.6962891,0.2753906,1.4399414c0,0.5761719-0.0351562,1.0322266-0.2392578,1.3681641
		c-0.2041016,0.3251953-0.5878906,0.5410156-1.1650391,0.5410156c-1.1884766,0-1.4160156-1.0800781-1.4160156-1.8837891V45.2241211z
		 M222.7167969,48.5239258h1.8105469v-8.8779297h-1.8466797v2.6630859
		c-0.2880859-0.2763672-0.8515625-0.5029297-1.5966797-0.5029297c-1.9677734,0-3.1074219,1.4736328-3.1074219,3.4536133
		c0,0.9853516,0.3359375,3.3481445,2.9394531,3.3481445c1.0449219,0,1.5966797-0.4321289,1.8007812-0.6469727V48.5239258z
		 M211.3085938,44.0600586h1.7861328c0-0.2641602,0.0722656-0.815918,1.1650391-0.815918
		c0.8886719,0,1.1054688,0.3120117,1.1054688,0.7680664v0.2275391l-2.1865234,0.3129883
		c-0.6103516,0.0844727-2.0859375,0.4560547-2.0859375,1.9682617c0,1.3320312,0.9345703,2.0869141,2.3027344,2.0869141
		c1.140625,0,1.7294922-0.3837891,2.0175781-0.6831055v0.5991211h1.9541016c0,0-0.1445312-0.5039062-0.1445312-0.9838867v-3.5761719
		c0-0.9589844-0.4072266-2.1577148-2.8427734-2.1577148C211.859375,41.8061523,211.3330078,43.0888672,211.3085938,44.0600586
		 M215.3652344,45.980957c0,0.5639648-0.3847656,1.2841797-1.4775391,1.2841797
		c-0.7089844,0-0.9013672-0.4443359-0.9013672-0.7441406c0-0.4199219,0.3242188-0.684082,0.7695312-0.7680664
		c0.4560547-0.0961914,1.609375-0.2397461,1.609375-0.2397461V45.980957z M208.7978516,46.0170898
		c-0.1201172,0.7919922-0.6601562,1.0917969-1.2480469,1.0917969c-0.7558594,0-1.3564453-0.5400391-1.3564453-1.8959961
		c0-1.3691406,0.5878906-1.9086914,1.3808594-1.9086914c0.6230469,0.0009766,1.1035156,0.3115234,1.1992188,1.1279297h1.8603516
		c-0.1552734-1.7509766-1.3798828-2.6259766-3.0478516-2.6259766c-1.9082031,0-3.2988281,1.1870117-3.2988281,3.4306641
		c0,2.2563477,1.2958984,3.3710938,3.203125,3.3710938c1.703125,0,2.9628906-0.875,3.15625-2.5908203H208.7978516z
		 M201.2460938,45.3208008h-1.9316406l0.9707031-3.7197266L201.2460938,45.3208008z M201.6777344,46.9399414l0.4316406,1.5839844
		h2.0644531L201.6542969,40.125h-2.6523438l-2.5078125,8.3989258h1.9677734l0.4072266-1.5839844H201.6777344z
		 M191.9433594,46.0170898c-0.1191406,0.7919922-0.6601562,1.0917969-1.2480469,1.0917969
		c-0.7558594,0-1.3554688-0.5400391-1.3554688-1.8959961c0-1.3691406,0.5878906-1.9086914,1.3798828-1.9086914
		c0.6240234,0.0009766,1.1044922,0.3115234,1.2001953,1.1279297h1.859375
		c-0.1552734-1.7509766-1.3789062-2.6259766-3.046875-2.6259766c-1.9082031,0-3.2988281,1.1870117-3.2988281,3.4306641
		c0,2.2563477,1.2949219,3.3710938,3.2021484,3.3710938c1.7041016,0,2.9638672-0.875,3.15625-2.5908203H191.9433594z
		 M186.6132812,41.8891602h-1.8457031v6.6337891h1.8457031V41.8891602z M186.6132812,39.6459961h-1.8457031v1.6069336h1.8457031
		V39.6459961z M181.9394531,43.855957h1.8115234c0-0.5161133-0.2646484-2.0498047-2.8544922-2.0498047
		c-1.5859375,0-2.8447266,0.7070312-2.8447266,2.0737305c0,1.5493164,1.2470703,1.8730469,2.6748047,2.0649414l0.3613281,0.0483398
		c0.515625,0.0717773,0.9960938,0.1796875,0.9960938,0.5878906c0,0.4799805-0.515625,0.6728516-1.1035156,0.6728516
		c-0.6376953-0.0009766-1.2011719-0.1928711-1.2011719-0.828125h-1.859375c0,0.347168,0.15625,2.1821289,2.9511719,2.1821289
		c2.484375,0,3.0839844-1.2109375,3.0839844-2.230957c0-2.6772461-4.0566406-1.6079102-4.0566406-2.6289062
		c0-0.4560547,0.5039062-0.6000977,0.9726562-0.6000977C181.5078125,43.1489258,181.9394531,43.3999023,181.9394531,43.855957
		 M177.1210938,48.5239258v-6.6347656h-1.8476562v3.815918c0,0.8769531-0.4677734,1.4038086-1.2597656,1.4038086
		c-0.6367188,0-1.0087891-0.3720703-1.0087891-1.1269531v-4.0927734h-1.847168v4.4399414
		c0,1.2958984,0.7558594,2.2788086,2.3032227,2.2788086c0.9248047,0,1.5126953-0.3359375,1.8369141-0.6708984v0.5869141H177.1210938
		z M165.4746094,46.027832L163.7939453,40.125h-2.8071289v8.3989258h1.8710938v-5.9511719l1.7158203,5.9511719H166.375
		l1.7158203-5.9511719v5.9511719h1.8710938V40.125h-2.8071289L165.4746094,46.027832z M157.324707,39.6459961h-1.8466797v8.8779297
		h1.8466797V39.6459961z M154.3696289,39.6459961h-1.8457031v8.8779297h1.8457031V39.6459961z M151.4047852,48.5239258v-6.6347656
		h-1.8461914v3.815918c0,0.8769531-0.46875,1.4038086-1.2607422,1.4038086c-0.6362305,0-1.0092773-0.3720703-1.0092773-1.1269531
		v-4.0927734h-1.8457031v4.4399414c0,1.2958984,0.7548828,2.2788086,2.3027344,2.2788086
		c0.9243164,0,1.5131836-0.3359375,1.8374023-0.6708984v0.5869141H151.4047852z M142.487793,42.5371094
		c0,0.6000977-0.4082031,0.9238281-0.9838867,0.9238281h-1.8613281v-1.8007812h1.8374023
		C142.0439453,41.6601562,142.487793,41.9360352,142.487793,42.5371094 M142.7280273,45.96875
		c0,0.6601562-0.3959961,1.0322266-1.1523438,1.0322266h-1.9331055v-2.0170898h1.9091797
		C142.2836914,44.9838867,142.7280273,45.355957,142.7280273,45.96875 M144.6469727,46.0288086
		c0-1.2246094-0.8393555-1.7519531-1.4389648-1.9560547c0.4907227-0.2397461,1.1386719-0.8037109,1.1386719-1.7636719
		c0-1.644043-1.3789062-2.184082-2.6508789-2.184082h-3.9482422v8.3989258h3.9960938
		C143.7475586,48.5239258,144.6469727,47.2290039,144.6469727,46.0288086 M129.4296875,45.2241211
		c0-0.9003906,0.3359375-1.9199219,1.4892578-1.9199219c0.3837891,0,0.8037109,0.0839844,1.0556641,0.4555664
		c0.1923828,0.2763672,0.2773438,0.6962891,0.2773438,1.4399414c0,0.5761719-0.0361328,1.0322266-0.2412109,1.3681641
		c-0.2041016,0.3251953-0.5878906,0.5410156-1.1640625,0.5410156c-1.1889648,0-1.4169922-1.0800781-1.4169922-1.8837891V45.2241211z
		 M132.2749023,48.5239258h1.8110352v-8.8779297h-1.8461914v2.6630859c-0.2890625-0.2763672-0.8530273-0.5029297-1.597168-0.5029297
		c-1.9677734,0-3.1069336,1.4736328-3.1069336,3.4536133c0,0.9853516,0.3349609,3.3481445,2.9389648,3.3481445
		c1.0439453,0,1.5961914-0.4321289,1.800293-0.6469727V48.5239258z M122.5527344,44.3847656
		c0.0722656-0.659668,0.6123047-1.1289062,1.2958984-1.1289062c0.5761719,0,1.1279297,0.3120117,1.2001953,1.1289062H122.5527344z
		 M123.7885742,48.6079102c2.2802734,0,3.0483398-1.4990234,3.144043-2.3271484l-1.8237305-0.0356445
		c-0.0239258,0.2158203-0.300293,0.8637695-1.2602539,0.8637695c-1.0078125,0-1.355957-0.7680664-1.355957-1.5009766h4.5600586
		v-0.2280273c0-2.1118164-1.1518555-3.5737305-3.2158203-3.5737305c-1.9082031,0-3.2749023,1.3540039-3.2749023,3.4057617
		C120.5620117,47.1928711,121.6660156,48.6079102,123.7885742,48.6079102 M115.1958008,43.762207v-2.090332h1.6811523
		c0.7680664,0,1.1757812,0.3481445,1.1757812,1.0332031c0,0.6240234-0.4916992,1.0571289-1.2597656,1.0571289H115.1958008z
		 M119.7797852,45.9916992c0-0.7675781-0.3720703-1.3427734-1.1748047-1.5107422
		c0.875-0.4082031,1.2827148-1.2119141,1.2827148-2.0639648c0-1.2958984-0.8867188-2.2919922-2.7348633-2.2919922h-3.8520508
		v8.3989258h1.8950195v-3.1918945h1.6328125c0.7080078,0,1.0561523,0.3120117,1.0561523,0.9599609v1.2958984
		c0,0.3720703,0,0.7919922,0.0839844,0.9360352h1.9912109c-0.0839844-0.1318359-0.1801758-0.5161133-0.1801758-0.8037109V45.9916992
		z"/>
	<path fill="#FFFFFF" d="M213.3808594,28.2250977c-0.2617188-0.2822266-0.6503906-0.4804688-0.7861328-0.8393555
		c-0.2333984-0.5517578-0.1240234-1.2939453-0.6591797-1.6796875c-0.4921875-0.1000977-1.0683594,0.0166016-1.4453125-0.3701172
		c-0.203125-0.1889648-0.2871094-0.4589844-0.2109375-0.7348633c0.3115234-0.6630859,0.5058594-1.4384766,0.3417969-2.2382812
		c0.0292969-0.2587891-0.3066406-0.5400391,0-0.7578125c0.9335938,0.2529297,2.1601562,0.3466797,2.9951172-0.1870117
		c0.7744141-0.512207,1.3154297-1.3051758,1.2626953-2.262207c-0.2041016-1.328125-1.1162109-2.3847656-2.1796875-3.3359375
		c-0.1347656-0.1191406-0.2441406-0.2421875-0.234375-0.4179688c0.0234375-0.1000977,0.0351562-0.2231445,0.1523438-0.2641602
		c0.5576172-0.034668,1.0996094-0.1108398,1.5800781-0.3398438c0.8476562-0.4648438,1.0693359-1.3969727,0.9462891-2.3149414
		c-0.0351562-0.059082-0.0292969-0.1772461-0.1289062-0.1582031c-0.234375,0.2460938-0.5058594,0.3862305-0.7919922,0.4990234
		c-1.0712891,0.1459961-2.0810547,0.4233398-2.8613281,1.262207c-0.265625,0.3300781-0.2929688,0.9287109-0.0839844,1.2871094
		c0.6582031,1.2626953,2.1972656,2.0268555,2.5507812,3.4179688c0.1982422,0.5996094-0.0654297,1.1347656-0.5234375,1.5219727
		c-0.6992188,0.4360352-1.6914062,0.3579102-2.3964844,0c-1.6679688-0.8452148-3.0664062-2.3500977-4.9101562-2.7612305
		c-1.0693359-0.1289062-1.9746094-0.6459961-2.7900391-1.3920898c-0.6943359-0.5327148-1.5927734-0.6108398-2.3916016-0.8925781
		c-0.734375-0.7753906-1.6074219-1.2211914-2.5253906-1.5742188c-0.515625-0.2299805-1.1640625-0.1591797-1.6035156-0.5820312
		c-0.2890625-0.434082-0.734375-0.8217773-1.1503906-1.1030273c-0.640625-0.3657227-1.5693359-0.6650391-2.2617188-0.2651367
		c-0.0566406,0.0473633-0.1113281,0.0913086-0.1679688,0.1381836c-1.4306641-2.4057617-3.5390625-4.3652344-6.0585938-5.612793V0
		l-9.5527344,2.0009766v3.1088867c-3.9257812,0.8691406-7.2612305,3.3330078-9.2851562,6.6767578
		c-0.4819336-0.0175781-0.965332,0.0732422-1.359375,0.3012695c-1.1157227,0.9829102-2.5029297,1.328125-3.8129883,1.862793
		c-0.7290039,0.3583984-1.1870117,1.1762695-1.9145508,1.5273438c-0.9980469-0.0161133-1.8803711,0.2416992-2.6030273,0.894043
		c-0.5981445,0.6987305-1.309082,1.2329102-2.1552734,1.3916016c-1.5087891,0.0463867-2.7558594,0.6982422-3.8408203,1.762207
		c-1.0639648,0.6821289-2.1030273,1.5800781-3.4951172,1.2871094c-0.5239258-0.1420898-1.027832-0.6171875-1.2109375-1.1279297
		C147.4897461,18.5917969,148.159668,17.6928711,148.9765625,17c0.7753906-0.6933594,1.8740234-1.3969727,1.6333008-2.5722656
		c-0.1831055-0.9990234-1.2929688-1.1928711-2.1040039-1.3710938c-0.8398438-0.0146484-1.4858398-0.4858398-2.1552734-0.8896484
		c-0.1586914,0.2456055-0.2177734,0.5268555-0.1879883,0.8388672c0.0639648,0.7749023,0.6992188,1.5742188,1.4453125,1.8149414
		c0.4858398,0.2768555,1.1518555-0.1181641,1.6030273,0.2358398c0.1347656,0.128418,0.0820312,0.2631836,0.0537109,0.4213867
		c-0.9106445,0.9228516-2.2919922,1.8330078-2.5209961,3.1269531c-0.1826172,1.0390625,0.1870117,2.0126953,0.9990234,2.6826172
		c0.8813477,0.6811523,2.3022461,0.8344727,3.3369141,0.3701172c0.1230469-0.046875,0.2871094-0.0400391,0.3701172,0.1000977
		l0.1040039,1.4208984c0.0541992,0.6630859,0.5830078,1.1572266,0.5,1.8393555
		c-0.3291016,0.3696289-0.7807617,0.5458984-1.1860352,0.7929688l-1.0507812,0.105957
		c-0.2929688,0.2290039-0.40625,0.5820312-0.5,0.9169922c-0.0351562,0.7568359-0.8930664,1.2148438-1.4453125,1.5800781
		c-0.1948242,0.3808594-0.5458984,0.9106445-1.0517578,0.8916016c-0.3510742,0.4052734-0.375,0.9462891-0.4980469,1.4462891
		c0.480957,0.046875,0.9331055,0.2397461,1.4438477,0.1289062c0.6279297-0.1362305,0.7050781-0.815918,1.0512695-1.2329102
		c0.4121094-0.4301758,0.9638672,0.046875,1.421875-0.1069336c0.5810547-0.2880859,1.1459961-0.6401367,1.6279297-1.1791992
		c1.1030273-0.559082,2.3598633,0.3330078,3.4179688-0.2670898c0.4702148-0.5449219,1.2460938-0.4506836,1.6030273-1.1269531
		c0.1943359-0.5219727,0.5820312-0.9628906,0.6591797-1.5258789c-0.1132812-0.1118164-0.2172852-0.2412109-0.3701172-0.2641602
		c-0.1240234,0.2412109-0.2758789,0.4628906-0.4169922,0.6870117c-0.6699219,1.1030273-1.855957,1.4331055-3.0249023,1.550293
		c-1.5522461-0.0351562-2.9560547,0.2768555-3.972168,1.5507812h-0.105957
		c-0.0698242-0.0229492-0.1108398-0.059082-0.1289062-0.1347656c0.5351562-0.9462891,1.4980469-1.6220703,2.5258789-1.7631836
		c1.6162109-0.1572266,3.4262695-0.1992188,4.3120117-1.7861328c0.5688477-0.8510742,0.3999023-2.0078125,0.6518555-2.9951172
		c0.0112305-0.1166992,0.0893555-0.2167969,0.2124023-0.2119141c0.0639648,0.0292969,0.1625977,0.0473633,0.1879883,0.1352539
		c-0.1132812,0.8110352-0.1542969,1.6918945,0.1289062,2.4438477c0.5048828,0.6689453,1.4916992,0.3051758,2.1557617,0.1821289
		c1.2631836-0.2700195,2.3852539,0.3999023,3.6772461,0.1298828c0.1411133-0.0649414,0.2636719-0.1469727,0.2109375-0.3408203
		c-0.0522461-0.2832031-0.2231445-0.5112305-0.1591797-0.8413086c0.0419922-0.0927734,0.1362305-0.1567383,0.2412109-0.1567383
		c0.1938477,0.1049805,0.1591797,0.3510742,0.2358398,0.5268555c0.5102539,1.4921875,2.7070312,1.4101562,2.8359375,3.1552734
		c-0.1928711,0.6396484-0.8808594,0.8818359-1.4438477,1.0219727c-1.046875,0.2407227-1.2758789-1.0332031-1.8691406-1.5751953
		c-0.515625-0.3168945-1.2036133-0.0800781-1.7558594,0c-0.1401367,0.0541992-0.1879883,0.1958008-0.1591797,0.3417969
		l0.6293945,1.0219727c0.2290039,0.4882812,0.8447266-0.0878906,1.1049805,0.3994141
		c0.2397461,0.5288086,0.7519531,1.1640625,1.3916016,1.1806641c0.9633789-0.199707,1.8203125-0.6230469,2.7070312-0.9990234
		c0.3422852-0.4399414,0.9931641-0.1220703,1.4223633-0.3696289c0.1386719-0.0541992,0.2246094-0.1650391,0.3037109-0.2880859
		c2.6523438,3.4858398,6.8461914,5.7426758,11.5551758,5.7426758c4.8574219,0,9.1640625-2.4008789,11.7988281-6.0756836
		c0.0195312,0.074707,0.0371094,0.1508789,0.0507812,0.2270508c0.1171875,0.5419922,0.6943359,0.199707,1.0507812,0.3696289
		c0.4833984,0.7114258,1.3164062,0.6713867,2.0058594,0.9462891c0.4863281,0.1640625,0.9628906,0.4418945,1.5205078,0.3710938
		c0.5283203-0.1591797,0.8505859-0.7172852,0.8916016-1.2392578c0.1699219-0.2539062,0.59375-0.0297852,0.7890625-0.2900391
		c0.2324219-0.3618164,0.5390625-0.6796875,0.6865234-1.0737305c-0.2236328-0.315918-0.6865234-0.1591797-1.0263672-0.2402344
		c-0.0839844,0.0351562-0.2246094,0.0292969-0.2910156,0.0292969l-0.0214844-0.0292969
		c-0.7578125-0.0478516-0.7714844,0.8222656-1.1591797,1.2373047c-0.1455078,0.1728516-0.3759766,0.1489258-0.5800781,0.1835938
		c-0.6181641-0.2236328-1.5800781-0.3120117-1.6269531-1.1806641c0.2402344-0.5102539,0.7861328-0.9628906,1.2333984-1.3149414
		c0.5097656-0.1000977,0.9736328-0.3759766,1.3144531-0.8413086c0.2636719-0.2397461,0.1591797-0.7758789,0.6289062-0.7919922
		c0.2109375,0.3339844,0,0.7631836-0.1582031,1.0800781c0.8808594,0.1020508,1.7382812-0.0458984,2.5566406-0.1870117
		c1.2490234-0.3007812,2.4248047,0.3818359,3.6230469-0.0771484c0.6054688-0.3007812,0.6464844-0.9819336,0.7109375-1.5737305
		l-0.0302734-0.0302734l0.0302734-0.0229492c-0.0058594-0.3168945-0.0878906-0.5991211-0.1289062-0.8989258
		c-0.0195312-0.1347656-0.0771484-0.3217773,0.0234375-0.4458008c0.09375-0.0541992,0.1582031-0.0410156,0.234375,0.0297852
		c0.5,1.1162109,0.2695312,2.5361328,0.8925781,3.6000977c0.4345703,0.9047852,1.3212891,1.5507812,2.3144531,1.6030273
		c0.0419922,0.0068359,0.0830078-0.0581055,0.1054688,0c1.5859375-0.315918,2.9746094,0.3168945,3.9199219,1.5209961v0.0830078
		c-0.0595703,0.059082-0.1123047,0.1367188-0.2128906,0.105957c-0.1757812-0.2290039-0.4101562-0.3232422-0.6035156-0.5288086
		c-0.8779297-0.8452148-2.1464844-0.8979492-3.3662109-0.7573242c-1.2578125,0.0351562-2.421875-1.0219727-2.8623047-2.1318359
		c-0.1064453-0.1118164-0.0986328-0.3530273-0.2929688-0.3408203c-0.0585938,0.0419922-0.0761719,0.1040039-0.0996094,0.1577148
		c0.0761719,0.8222656,0.1894531,1.6220703,0.7568359,2.2319336c0.5410156,0.2641602,0.9638672,0.8051758,1.5810547,0.8710938
		c0.8642578-0.2070312,1.8789062-0.112793,2.6542969,0.2329102c0.6113281,0.2363281,1.1054688,0.7592773,1.65625,1.1289062
		c0.3115234,0.1523438,0.7294922,0.0761719,0.9980469-0.1289062c0.7011719-0.1879883,0.8125,0.6450195,1.2871094,0.9741211
		c0.4003906,0.3061523,0.9873047,0.1757812,1.4990234,0.2060547l0.0810547-0.046875
		c-0.0693359-0.4824219-0.1699219-0.9521484-0.3681641-1.3681641
		C214.0634766,29.3359375,213.7216797,28.6669922,213.3808594,28.2250977 M193.5849609,14.5556641
		c0.1591797-0.0048828,0.3349609-0.0166016,0.3955078,0.1601562c0.0859375,0.3110352-0.2773438,0.5102539-0.4707031,0.7099609
		c-0.6484375,0.4882812-1.234375,1.1572266-1.5800781,1.815918h-0.0537109
		C191.8242188,16.1259766,192.6464844,15.1606445,193.5849609,14.5556641 M178.4267578,4.1831055l7.703125-1.5561523
		l0.0058594,3.2270508c-1.6982422-0.6982422-3.5556641-1.0849609-5.5048828-1.0849609
		c-0.75,0-1.4873047,0.0576172-2.2070312,0.1689453L178.4267578,4.1831055z M168.6137695,15.659668
		c0.0942383-0.0097656,0.2050781-0.0517578,0.2871094,0c0.2587891,0.1879883,0.3701172,0.4824219,0.5009766,0.7412109
		c0.1391602,0.4931641,0.1928711,1.1162109,0.0507812,1.6269531l-0.0756836,0.0532227
		c-0.0751953-0.1240234-0.0751953-0.2822266-0.105957-0.4233398c-0.1049805-0.6220703-0.3823242-1.1806641-0.7333984-1.7089844
		C168.5249023,15.8427734,168.5375977,15.737793,168.6137695,15.659668 M194.6367188,24.625l-1.0517578,1.421875
		l-0.1523438,0.3149414c-0.1474609,0.309082-0.0527344,0.7470703-0.0830078,1.0771484
		c-0.2568359-0.137207-0.2734375-0.4589844-0.3671875-0.7109375c-0.2421875-1.0170898,0.7617188-1.5810547,1.1025391-2.3920898
		c-0.2236328-0.0942383-0.4248047-0.2392578-0.6806641-0.2631836c-0.5371094,0.6459961-0.8515625,1.3789062-1.2646484,2.0791016
		c-0.0283203,0.2319336-0.0058594,0.4521484,0.0380859,0.6669922c-2.4658203,3.7651367-6.7197266,6.2578125-11.546875,6.2578125
		c-4.5869141,0-8.6582031-2.2529297-11.1679688-5.7080078c0.1738281-0.315918,0.355957-0.6289062,0.3071289-1.0336914
		c-0.0112305-0.5483398-0.5283203-0.8881836-0.7104492-1.3691406c-0.1049805-0.2470703-0.2055664-0.5180664-0.3408203-0.7338867
		c-0.2817383-0.1123047-0.6459961-0.2431641-0.9208984-0.0239258c0.3398438,0.7226562,0.7797852,1.402832,1.1318359,2.1269531
		c0.0839844,0.5981445-0.2460938,1.0981445-0.6577148,1.5258789c-0.0581055,0.0600586-0.1401367,0.0068359-0.1870117-0.0541992
		c0.1289062-0.4326172,0.2998047-0.8789062,0.2646484-1.3378906c-0.4116211-0.7988281-0.9570312-1.5380859-1.3637695-2.3427734
		c0.012207-0.1430664,0.0581055-0.3012695,0.2070312-0.3662109c0.4111328-0.1987305,0.9448242-0.1220703,1.2617188-0.4750977
		c0.3891602-0.6689453,0.6582031-1.3857422,0.734375-2.1787109c0.0478516-0.0400391,0.0878906-0.1049805,0.1586914-0.0820312
		c0.0761719,0.0458984,0.0761719,0.1230469,0.1049805,0.1879883c0.1533203,0.8867188-0.0996094,1.6728516-0.4980469,2.3618164
		c-0.0595703,0.0820312-0.0058594,0.1689453,0.0512695,0.2402344c0.2958984,0.1279297,0.6069336-0.0239258,0.8950195-0.0541992
		c0.5390625-0.3857422,1.3139648-0.2158203,1.9189453-0.4448242c0,0.0629883,0.1069336,0.0756836,0.078125,0.152832
		c-0.3061523,0.3339844-0.4399414,0.7519531-0.5239258,1.1860352c-0.3642578,0.4111328-0.9223633,0.7460938-0.9223633,1.315918
		c0.0942383,0.2353516,0.300293,0,0.4472656,0c0.1000977,0,0.1586914,0.1113281,0.1347656,0.2060547
		c-0.1411133,0.2631836-0.4228516,0.4692383-0.4228516,0.7919922c0.1411133,0.3461914,0,0.8881836,0.4750977,1.0229492
		c1.0869141,0.1933594,1.8691406-0.6767578,2.9677734-0.6289062c0.8339844,0.2119141,1.5498047-0.1689453,2.1025391-0.7929688
		c0.1523438-0.0839844,0.28125,0.0410156,0.421875,0.0820312c0.59375,0.6279297,1.28125,1.0058594,2.0800781,1.1279297
		c0.2480469,0.0341797,0.5585938,0.059082,0.7871094-0.0239258c0.0537109-0.0571289,0.0185547-0.1582031-0.0273438-0.2109375
		c-0.5878906-0.2299805-1.1650391-0.5581055-1.6054688-1.1049805c-0.2460938-0.6791992-0.5761719-1.3378906-1.0742188-1.9189453
		c-0.0410156-0.0371094-0.0410156-0.1313477,0.0224609-0.1542969c0.5634766,0.1352539,1.0400391,0.7050781,1.2919922,1.2041016
		c0.4580078,0.7050781,1.1464844,1.2861328,2.0214844,1.2109375c0.1054688-0.0297852,0.2646484-0.019043,0.234375-0.1831055
		c-1.3378906-0.4160156-1.5556641-1.8666992-2.6035156-2.6557617c-0.5097656-1.269043-0.9667969-2.5541992-1.2021484-3.9399414
		c-0.0351562-1.2641602-0.7460938-2.2563477-1.5292969-3.2060547c-1.2314453-1.8691406-3.1650391-2.9331055-4.7788086-4.3129883
		l-0.5288086-0.2871094c-0.2080078-0.1240234-0.4433594-0.2231445-0.6923828-0.2910156
		c1.9101562-3.0097656,4.953125-5.2329102,8.5224609-6.065918v4.6269531
		c-0.2392578-0.1098633-0.3476562-0.1079102-0.5097656-0.1079102c-1.6210938,0-3.0449219,1.5097656-3.0449219,2.5141602
		c0,0.6826172,0.5390625,1.0776367,1.2597656,1.0776367c0.7929688,0,1.7480469-0.4140625,2.4511719-1.1489258
		c0.5566406-0.5917969,0.7539062-1.1850586,0.7539062-2.2460938l0.015625-4.8979492
		c0.7197266-0.1147461,1.4570312-0.1777344,2.2089844-0.1777344c1.9560547,0,3.8183594,0.409668,5.5048828,1.1469727
		l0.0029297,1.8378906c-0.2402344-0.1079102-0.3496094-0.1069336-0.5117188-0.1069336
		c-1.6210938,0-3.0439453,1.5078125-3.0439453,2.5136719c0,0.684082,0.5410156,1.0791016,1.2597656,1.0791016
		c0.7949219,0,1.7490234-0.4130859,2.4501953-1.1489258c0.5576172-0.59375,0.7558594-1.1860352,0.7558594-2.2470703V7.0649414
		c2.2861328,1.2080078,4.1953125,3.0371094,5.4990234,5.2626953c-1.7724609,1.3632812-3.6748047,2.4130859-5.3486328,3.9902344
		c-1.1210938,1.046875-1.71875,2.3139648-2.078125,3.684082c-0.8398438,2.3969727-1.0332031,5.284668-3.5722656,6.7539062
		c-0.0175781,0.078125,0.0175781,0.1347656,0.0761719,0.1831055c0.5703125,0.112793,1.1875-0.0170898,1.5800781-0.5
		c0.3828125-0.6049805,0.8466797-1.1743164,1.3925781-1.7080078h0.1054688
		c0.1992188,0.0400391,0.0351562,0.2109375,0.0537109,0.3168945c-0.7646484,0.7280273-0.7763672,1.8139648-1.7919922,2.3911133
		c-0.1113281,0.0986328-0.4052734,0.2700195-0.2050781,0.421875c1.1210938,0.1171875,1.9433594-0.7109375,2.7304688-1.421875
		l0.1601562-0.0229492c0.4453125,0.2758789,0.7802734,0.8696289,1.3681641,0.7338867
		c1.1689453-0.3222656,1.9677734,0.4057617,2.9121094,0.7109375c0.2832031,0.1240234,0.4941406-0.09375,0.6884766-0.2641602
		c0.4121094-0.2875977,0.1992188-0.8100586,0.1816406-1.2099609l0.0771484-0.0756836
		c0.1943359-0.0234375,0.4345703,0.1640625,0.5820312-0.0532227c0.0634766-0.5288086-0.3876953-0.9047852-0.6064453-1.3398438
		c-0.1171875-0.8632812-1.1113281-1.3632812-1.2617188-2.2089844c0.046875-0.0361328,0.0810547-0.0991211,0.1328125-0.1049805
		c0.4023438,0.2348633,0.7304688,0.6289062,1.1289062,0.8637695c0.6064453,0.3061523,1.3339844,0.2919922,2.0507812,0.315918
		c0.1113281-0.0239258,0.1113281-0.1337891,0.1044922-0.2338867c-0.3740234-0.8408203-0.6904297-1.7099609-0.6279297-2.7368164
		c0.0644531-0.3129883-0.0703125-0.7822266,0.3125-0.894043c0.0917969,0.0239258,0.1054688,0.1289062,0.15625,0.1879883
		c0.0488281,0.9169922,0.0673828,1.855957,0.4765625,2.6259766c0.2236328,0.5517578,0.8125,0.8710938,1.2578125,1.2089844
		C194.6845703,24.144043,194.7363281,24.4189453,194.6367188,24.625 M174.7099609,21.4179688
		c-0.1337891-0.0649414-0.2978516-0.059082-0.4160156,0.0527344l-0.4228516,0.4980469
		c-0.140625-0.0629883-0.0712891-0.2929688-0.0527344-0.4160156c0.1523438-0.3818359,0.3642578-0.7460938,0.4980469-1.1328125
		c0.0722656-0.1191406,0.2402344-0.0830078,0.3417969-0.0541992c0.4101562,0.2651367,0.4882812,0.75,0.8916016,1.0522461
		c0.3173828,0.4277344,0.5185547,1.0678711,0.2412109,1.5810547c-0.0810547,0.0048828-0.1816406,0.1098633-0.2412109,0
		C175.609375,22.3339844,175.2216797,21.7988281,174.7099609,21.4179688 M173.8183594,25.6767578
		c0.2226562-0.199707,0.4511719-0.4589844,0.7871094-0.3129883l0.0527344,0.2060547
		c0.0351562,0.2001953-0.046875,0.3530273-0.1289062,0.4990234c-0.2763672,0.0771484-0.5644531,0.1958008-0.8710938,0.1069336
		C173.5830078,25.9868164,173.765625,25.8408203,173.8183594,25.6767578 M188.2216797,21.8110352
		c-0.0566406-0.0703125-0.0820312-0.1772461-0.1806641-0.2060547c-0.3828125-0.0932617-0.6650391,0.2236328-0.9462891,0.4467773
		c-0.4638672,0.2822266-0.6005859,0.7519531-0.7109375,1.2099609c-0.0302734,0.0820312-0.1181641,0.0361328-0.1826172,0.0532227
		c-0.2353516-0.2338867,0-0.5283203,0-0.7939453c0.2363281-0.7993164,1.140625-1.2451172,1.5761719-1.9672852
		c0.4628906-0.0180664,0.5205078,0.512207,0.7392578,0.7871094c0.0576172,0.2231445,0.3447266,0.5048828,0.0517578,0.7109375
		C188.4121094,22.0820312,188.2685547,21.9467773,188.2216797,21.8110352 M188.2509766,26.1757812
		c-0.1923828,0.059082-0.3916016,0-0.5791016-0.0239258c-0.2207031-0.1181641-0.2304688-0.3701172-0.2900391-0.5820312
		c0.046875-0.0688477,0.0107422-0.1992188,0.1064453-0.2338867c0.2636719,0.0170898,0.5175781,0.1157227,0.6816406,0.315918
		C188.2402344,25.8110352,188.3808594,26,188.2509766,26.1757812 M165.9819336,27.4150391
		c0.034668-0.1293945-0.0649414-0.2001953-0.1000977-0.2929688c-0.1289062-0.2602539-0.1879883-0.5410156-0.3461914-0.7871094
		c-0.3349609-0.0131836-0.7167969,0.0107422-1.0517578,0.0810547l-0.0249023-0.0292969
		c-0.0922852,0.0473633-0.2109375,0.0180664-0.3154297,0.0292969c-0.0537109,0.0356445-0.0766602,0.0878906-0.0766602,0.152832
		c0.4580078,0.2700195,0.5698242,0.7758789,0.8168945,1.1860352
		C165.2827148,27.9609375,165.6650391,27.644043,165.9819336,27.4150391 M196.8242188,26.4926758
		c-0.1503906-0.0078125-0.3134766,0.0112305-0.4257812,0l-0.0224609,0.0229492
		c-0.1865234-0.0585938-0.4228516,0.0112305-0.6044922-0.046875c-0.2011719,0.2592773-0.3359375,0.5761719-0.265625,0.9169922
		c0.1191406,0.2109375,0.3701172,0.2172852,0.5517578,0.3168945c0.2001953,0.0112305,0.4882812,0.1040039,0.6298828-0.0820312
		c0.140625-0.3349609,0.2519531-0.6816406,0.3164062-1.0517578
		C196.9570312,26.5107422,196.8984375,26.4799805,196.8242188,26.4926758 M146.4790039,28.7250977
		c0.2885742,0.1235352,0.5175781-0.0703125,0.7119141-0.2592773c0.1640625-0.2700195,0.4228516-0.5,0.46875-0.815918
		c-0.0820312-0.1992188-0.3291016-0.387207-0.5229492-0.2641602c-0.2749023,0.4462891-1.1679688,0.4389648-0.921875,1.1333008
		C146.3027344,28.5898438,146.3686523,28.7138672,146.4790039,28.7250977 M214.3564453,27.3618164l-0.1865234-0.0297852
		c-0.1240234,0.112793-0.4072266,0.1879883-0.3417969,0.4228516c0.2705078,0.3647461,0.4589844,0.9638672,0.9765625,1.0239258
		c0.1669922-0.078125,0.3808594-0.1191406,0.4667969-0.3129883c0.0263672-0.1347656,0.0898438-0.2519531,0-0.3710938
		L214.3564453,27.3618164z M145.4819336,28.8837891c-0.3720703,0.222168-0.3588867,0.6508789-0.3422852,1.0512695
		c-0.0058594,0.2519531-0.2988281,0.3876953-0.2636719,0.6567383c0.2758789,0.0952148,0.534668,0.2470703,0.8388672,0.2651367
		c0.171875-0.5112305,0.2841797-1.0512695,0.4238281-1.5800781l-0.4760742-0.46875
		C145.5917969,28.8081055,145.5400391,28.8598633,145.4819336,28.8837891 M216.3017578,29.2529297
		c-0.0957031-0.1508789-0.2060547-0.3100586-0.3701172-0.3930664c-0.2636719-0.1347656-0.4287109,0.1879883-0.5761719,0.3408203
		c-0.0410156,0.4003906,0.1572266,0.769043,0.2353516,1.15625c0.0517578,0.1831055-0.0117188,0.4418945,0.1591797,0.5517578
		l0.7851562-0.2348633l0.0292969-0.2099609C216.2490234,30.1518555,216.4257812,29.6420898,216.3017578,29.2529297"/>
	<path fill="#FFFFFF" d="M201.078125,65.8808594h1.0488281c-0.0292969-0.5200195-0.3300781-1.5888672-2.1191406-1.5888672
		c-1.4306641,0-2.2089844,0.6889648-2.2089844,1.5888672c0,1.6611328,1.71875,1.4912109,2.7197266,1.7211914
		c0.4404297,0.1000977,0.6298828,0.2597656,0.6298828,0.6098633c0,0.3603516-0.3105469,0.7700195-1.2207031,0.7700195
		c-0.8300781,0-1.1201172-0.4296875-1.1308594-0.8598633h-1.0986328c0.0302734,1.1298828,0.9697266,1.7089844,2.1689453,1.7089844
		c1.9101562,0,2.3496094-0.9790039,2.3496094-1.7089844c0-1.6508789-1.8183594-1.4702148-2.7988281-1.7211914
		c-0.3505859-0.0898438-0.5605469-0.2597656-0.5605469-0.5795898c0-0.550293,0.6796875-0.6801758,1.109375-0.6801758
		C200.5878906,65.1411133,201.0283203,65.3212891,201.078125,65.8808594 M196.6552734,69.730957v-0.8789062
		c0,0-0.4199219,0.0200195-0.6201172,0.0200195c-0.5097656,0-0.609375-0.0898438-0.609375-0.6499023v-2.980957h1.3203125v-0.8793945
		h-1.3203125V62.762207h-1.0595703v1.5996094h-0.8603516v0.8793945h0.8603516v3.2807617
		c0,0.7900391,0.2802734,1.2792969,1.2392578,1.2792969C196.1552734,69.8012695,196.6552734,69.730957,196.6552734,69.730957
		 M192.4628906,69.7612305v-3.7202148c0-1.0600586-0.7382812-1.7490234-1.8984375-1.7490234
		c-0.8007812,0-1.3613281,0.340332-1.6708984,0.7392578v-0.6694336H187.84375v5.3994141h1.0595703V66.762207
		c0-1.03125,0.6298828-1.5610352,1.4013672-1.5610352c0.6992188,0,1.0996094,0.3901367,1.0996094,1.159668v3.4003906H192.4628906z
		 M184.0898438,68.9511719c-1.1015625,0-1.4511719-0.8491211-1.4716797-1.6601562h3.8408203v-0.2700195
		c0-1.7700195-0.9296875-2.7290039-2.3994141-2.7290039c-1.4716797,0-2.5302734,1.0791016-2.5302734,2.769043
		c0,1.8100586,0.9785156,2.7700195,2.4707031,2.7700195c1.8896484,0,2.3583984-1.269043,2.4179688-1.8789062l-1.0390625-0.0200195
		C185.3300781,68.3422852,184.9589844,68.9511719,184.0898438,68.9511719 M182.6582031,66.4619141
		c0.0898438-0.8110352,0.6103516-1.3007812,1.3808594-1.3007812c0.6503906,0,1.2802734,0.3300781,1.3007812,1.3007812H182.6582031z
		 M179.2871094,65.8808594h1.0488281c-0.0292969-0.5200195-0.328125-1.5888672-2.1191406-1.5888672
		c-1.4296875,0-2.2089844,0.6889648-2.2089844,1.5888672c0,1.6611328,1.71875,1.4912109,2.7197266,1.7211914
		c0.4404297,0.1000977,0.6298828,0.2597656,0.6298828,0.6098633c0,0.3603516-0.3105469,0.7700195-1.2207031,0.7700195
		c-0.8300781,0-1.1201172-0.4296875-1.1308594-0.8598633h-1.0986328c0.0302734,1.1298828,0.9697266,1.7089844,2.1699219,1.7089844
		c1.9101562,0,2.3486328-0.9790039,2.3486328-1.7089844c0-1.6508789-1.8183594-1.4702148-2.7988281-1.7211914
		c-0.3505859-0.0898438-0.5605469-0.2597656-0.5605469-0.5795898c0-0.550293,0.6796875-0.6801758,1.1113281-0.6801758
		C178.796875,65.1411133,179.2373047,65.3212891,179.2871094,65.8808594 M172.4511719,68.9511719
		c-1.1005859,0-1.4506836-0.8491211-1.4707031-1.6601562h3.8398438v-0.2700195c0-1.7700195-0.9287109-2.7290039-2.3984375-2.7290039
		c-1.4716797,0-2.5302734,1.0791016-2.5302734,2.769043c0,1.8100586,0.9790039,2.7700195,2.4697266,2.7700195
		c1.890625,0,2.359375-1.269043,2.4189453-1.8789062l-1.0390625-0.0200195
		C173.6914062,68.3422852,173.3212891,68.9511719,172.4511719,68.9511719 M171.0205078,66.4619141
		c0.0898438-0.8110352,0.6098633-1.3007812,1.3808594-1.3007812c0.6494141,0,1.2802734,0.3300781,1.2998047,1.3007812H171.0205078z
		 M169.0483398,65.440918v-1.0791016h-0.3798828c-0.4902344,0-1.1801758,0.1801758-1.5400391,0.859375v-0.859375h-1.0380859
		v5.3994141h1.0581055v-2.9399414c0-1.0102539,0.5400391-1.3803711,1.5498047-1.3803711H169.0483398z M163.6455078,67.0820312
		c0,1.1201172-0.5009766,1.8701172-1.5209961,1.8701172c-0.5400391,0-0.8999023-0.2099609-1.1010742-0.5
		c-0.25-0.3701172-0.2900391-0.8500977-0.2900391-1.3798828c0-0.4604492,0.0498047-0.8901367,0.2099609-1.2104492
		c0.2109375-0.4208984,0.6210938-0.690918,1.2709961-0.690918
		C163.2646484,65.1708984,163.6455078,66.0112305,163.6455078,67.0820312z M162.234375,69.8310547
		c1.75,0,2.4892578-1.3188477,2.4892578-2.8491211c0-1.3408203-0.609375-2.6899414-2.3491211-2.6899414
		c-0.6699219,0-1.2802734,0.2700195-1.6313477,0.6791992v-0.609375h-1.0576172v7.3193359h1.0576172v-2.3989258
		C160.9633789,69.5112305,161.3945312,69.8310547,162.234375,69.8310547"/>
	<path fill="#FFFFFF" d="M282.0253906,310.4428711h-8.7275391v8.7265625h8.7275391V310.4428711z M265.1005859,290.5708008h7.84375
		c0-4.1279297,1.5917969-6.5449219,5.1884766-6.5449219c2.8886719,0,4.4824219,1.828125,4.4824219,4.421875
		c0,1.828125-1.0625,3.8916016-2.1826172,5.1884766c-2.7128906,3.2441406-6.6044922,6.7236328-6.6640625,12.3847656h7.7255859
		c0.4130859-5.3662109,9.1992188-9.0810547,9.1992188-17.6914062c0-3.65625-1.3564453-6.6044922-3.9511719-8.4912109
		c-2.0048828-1.4736328-4.7167969-2.3583984-8.2548828-2.3583984
		C268.6982422,277.4799805,265.1005859,283.9077148,265.1005859,290.5708008 M249.0029297,319.5825195
		c8.5507812,0,13.6806641-4.5986328,14.6835938-11.0273438l-8.0791016-0.1767578
		c-0.6484375,3.0078125-3.2421875,4.6005859-6.4277344,4.6005859c-5.8369141,0-7.3115234-4.4824219-7.3115234-8.1386719h22.2900391
		v-1.7099609c0-9.5527344-5.1298828-16.6875-14.8603516-16.6875c-8.8447266,0-15.6845703,5.7783203-15.6845703,16.7470703
		C233.6132812,314.1577148,239.9804688,319.5825195,249.0029297,319.5825195 M242.1630859,299.1206055
		c0.4130859-3.8320312,3.3603516-6.1318359,7.0761719-6.1318359c3.2431641,0,6.2509766,1.7099609,6.4863281,6.1318359H242.1630859z
		 M223.4345703,286.855957l-12.3232422,13.0908203v-24.4130859h-7.9609375v43.6367188h7.9609375v-9.4941406l4.6572266-5.0126953
		l8.8466797,14.5068359h9.375l-12.5605469-19.9912109l11.9716797-12.3232422H223.4345703z M189.4414062,306.0209961
		c0,1.5322266-0.3544922,3.5966797-1.8876953,5.1884766c-1.2392578,1.2382812-3.5380859,2.1816406-6.1328125,2.1816406
		c-4.4228516,0-4.7763672-3.0078125-4.7763672-3.8916016c0-1.1796875,0.4707031-2.0644531,1.2382812-2.6542969
		c0.8847656-0.7070312,2.1230469-1.0019531,3.4199219-1.2373047c2.5361328-0.4726562,8.1386719-1.2978516,8.1386719-1.2978516
		V306.0209961z M178.2958984,299.9467773c-2.8310547,0.4130859-9.8481445,2.1230469-9.8481445,9.4941406
		c0,6.4853516,4.6000977,10.1416016,10.9682617,10.1416016c4.5410156,0,8.0195312-1.3564453,10.2607422-3.65625v3.2441406h8.1376953
		c0,0-0.4140625-2.0634766-0.4140625-4.5410156v-17.8076172c0-4.6591797-1.6503906-10.3789062-13.0898438-10.3789062
		c-12.0292969,0-14.5068359,6.1328125-14.5068359,10.9082031h7.6660156c0-1.0605469,0.1181641-4.421875,6.1337891-4.421875
		c4.7753906,0,5.8378906,1.6513672,5.8378906,4.1875v1.1201172L178.2958984,299.9467773z M145.574707,299.9467773
		c0-4.6005859,2.5361328-6.7226562,5.6020508-6.7226562c3.715332,0,5.1889648,2.6533203,5.1889648,5.8378906v20.1083984h7.9614258
		v-22.2900391c0-6.1328125-4.0102539-10.4375-10.9682617-10.4375c-3.8330078,0-7.4887695,1.3564453-9.9067383,4.4814453
		c-1.5922852-2.7128906-4.3051758-4.4814453-8.668457-4.4814453c-4.0688477,0-6.6635742,1.7099609-8.1376953,3.6552734v-3.2421875
		h-7.7832031v32.3144531h7.9599609v-19.2236328c0-4.6005859,2.7133789-6.7226562,5.7792969-6.7226562
		c3.7148438,0,5.0117188,2.6533203,5.0117188,5.8378906v20.1083984h7.9609375V299.9467773z"/>
	<path fill="#FFFFFF" d="M339.875,264.4516602v-6.7216797c0,0-1.7685547,0.1181641-3.3017578,0.1181641
		c-2.5947266,0-3.2431641-0.4130859-3.2431641-2.8310547V238.918457h7.2529297v-6.6621094h-7.2529297v-8.9638672h-7.9609375
		v8.9638672h-4.8945312v6.6621094h4.8945312v18.3984375c0,5.3066406,2.2998047,7.5478516,8.5507812,7.5478516
		C337.28125,264.8647461,339.875,264.4516602,339.875,264.4516602 M317.4863281,232.2563477h-7.9609375v32.3134766h7.9609375
		V232.2563477z M317.4863281,220.934082h-7.9609375v7.6064453h7.9609375V220.934082z M283.4033203,241.7495117h7.8427734
		c0-2.3583984-1.1201172-9.90625-13.2685547-9.90625c-7.4296875,0-13.4433594,3.3017578-13.4433594,9.8476562
		c0,5.484375,3.3017578,7.7832031,7.0761719,8.9042969c1.8271484,0.5302734,3.7734375,0.8251953,5.6611328,1.0605469
		c3.6552734,0.4726562,6.7802734,0.9443359,6.7802734,3.4199219c0,2.0644531-1.5917969,3.7744141-5.9560547,3.7744141
		c-3.4199219,0-6.3681641-1.2382812-6.3681641-4.5400391h-7.8427734c0,1.6513672,0.53125,10.6728516,13.6816406,10.6728516
		c11.3798828,0,14.5644531-5.7792969,14.5644531-10.6728516c0-4.0693359-1.9462891-6.3105469-4.4814453-7.6074219
		c-4.0107422-2.0634766-9.7304688-2.0634766-12.9140625-3.0068359c-1.4150391-0.4130859-2.2412109-1.3564453-2.2412109-2.5947266
		c0-2.6542969,3.0664062-3.3017578,5.2480469-3.3017578C281.1630859,237.7993164,283.4033203,239.1547852,283.4033203,241.7495117
		 M246.0771484,264.9829102c8.5507812,0,13.6806641-4.5986328,14.6826172-11.0273438l-8.078125-0.1767578
		c-0.6484375,3.0068359-3.2421875,4.6005859-6.4277344,4.6005859c-5.8378906,0-7.3115234-4.4824219-7.3115234-8.1386719h22.2900391
		v-1.7099609c0-9.5527344-5.1308594-16.6875-14.8603516-16.6875c-8.8447266,0-15.6855469,5.7783203-15.6855469,16.7470703
		C230.6865234,259.5581055,237.0546875,264.9829102,246.0771484,264.9829102 M239.2373047,244.5209961
		c0.4130859-3.8330078,3.3603516-6.1328125,7.0751953-6.1328125c3.2441406,0,6.2519531,1.7109375,6.4873047,6.1328125H239.2373047z
		 M212.3710938,238.4467773c4.1865234,0,7.3710938,2.890625,7.3710938,9.9658203
		c0,7.0761719-3.1845703,9.9667969-7.3710938,9.9667969c-4.1855469,0-7.3710938-2.890625-7.3710938-9.9667969
		C205,241.3374023,208.1855469,238.4467773,212.3710938,238.4467773 M212.3710938,264.9829102
		c9.0214844,0,15.5087891-5.6015625,15.5087891-16.5703125c0-10.9677734-6.4873047-16.5693359-15.5087891-16.5693359
		s-15.5078125,5.6015625-15.5078125,16.5693359C196.8632812,259.3813477,203.3496094,264.9829102,212.3710938,264.9829102
		 M169.75,248.8852539c0-5.7792969,2.0048828-10.3789062,7.9003906-10.3789062c2.890625,0,4.8359375,1.2978516,5.8378906,3.1259766
		c1.0625,1.8867188,1.0625,4.421875,1.0625,6.8984375c0,3.3017578-0.53125,5.8378906-1.8867188,7.4892578
		c-1.2392578,1.5332031-3.1855469,2.359375-5.7207031,2.359375C170.7519531,258.3793945,169.75,252.9536133,169.75,248.8852539
		 M176.5898438,231.8432617c-10.7319336,0-14.9780273,7.9609375-14.9780273,17.2773438
		c0,3.2431641,0.590332,6.3681641,1.887207,8.9042969c2.0048828,4.0097656,5.8378906,6.9580078,12.2646484,6.9580078
		c3.65625,0,7.0185547-1.4150391,8.9052734-3.3017578v2.8886719h7.8417969V220.934082h-7.9599609v13.6796875
		C182.6640625,232.9038086,180.1279297,231.8432617,176.5898438,231.8432617"/>
	<path fill="#FFFFFF" d="M326.5566406,210.3833008c8.5517578,0,13.6816406-4.5996094,14.6835938-11.0273438l-8.078125-0.1767578
		c-0.6494141,3.0068359-3.2441406,4.5996094-6.4277344,4.5996094c-5.8378906,0-7.3125-4.4824219-7.3125-8.1376953h22.2900391
		v-1.7099609c0-9.5537109-5.1298828-16.6884766-14.8603516-16.6884766c-8.8447266,0-15.6845703,5.7792969-15.6845703,16.7470703
		S317.5351562,210.3833008,326.5566406,210.3833008 M319.7167969,189.9204102
		c0.4130859-3.8330078,3.3613281-6.1328125,7.0761719-6.1328125c3.2431641,0,6.2509766,1.7109375,6.4873047,6.1328125H319.7167969z
		 M293.7714844,210.3833008c8.9638672,0,14.2119141-5.0712891,14.8017578-12.0888672h-8.1386719
		c-0.4130859,3.5380859-2.9472656,5.484375-6.3671875,5.484375c-4.1279297,0-7.1367188-2.8896484-7.1367188-9.9658203
		s3.1259766-9.9658203,7.3125-9.9658203c3.5380859,0,5.7783203,2.1816406,6.1914062,5.7197266h8.1386719
		c-0.8261719-8.078125-6.4873047-12.3242188-14.4482422-12.3242188c-8.8447266,0-15.3896484,5.484375-15.3896484,16.7470703
		C278.7353516,204.9575195,284.75,210.3833008,293.7714844,210.3833008 M274.5722656,209.9702148v-22.1132812
		c0-6.5449219-4.2460938-10.6142578-11.4404297-10.6142578c-4.1279297,0-7.3710938,1.6513672-9.1992188,3.8330078v-3.4199219
		h-7.8427734v32.3144531h7.9609375v-18.2216797c0-5.1884766,3.0664062-7.7246094,6.9580078-7.7246094
		c3.4794922,0,5.6025391,2.0634766,5.6025391,5.8964844v20.0498047H274.5722656z M226.5839844,210.3833008
		c8.5507812,0,13.6806641-4.5996094,14.6835938-11.0273438l-8.078125-0.1767578
		c-0.6494141,3.0068359-3.2431641,4.5996094-6.4287109,4.5996094c-5.8369141,0-7.3115234-4.4824219-7.3115234-8.1376953h22.2900391
		v-1.7099609c0-9.5537109-5.1298828-16.6884766-14.8603516-16.6884766c-8.8447266,0-15.6855469,5.7792969-15.6855469,16.7470703
		S217.5615234,210.3833008,226.5839844,210.3833008 M219.7441406,189.9204102
		c0.4130859-3.8330078,3.3613281-6.1328125,7.0761719-6.1328125c3.2441406,0,6.2509766,1.7109375,6.4863281,6.1328125H219.7441406z
		 M209.5322266,185.675293v-8.0195312h-2.359375c-3.8916016,0-6.8994141,1.828125-8.3740234,4.7763672v-4.7763672h-7.6650391
		v32.3144531h7.9599609v-17.21875c0-5.1308594,3.0673828-7.0761719,8.1972656-7.0761719H209.5322266z M171.6279297,210.3833008
		c8.5498047,0,13.6806641-4.5996094,14.6826172-11.0273438l-8.078125-0.1767578
		c-0.6484375,3.0068359-3.2441406,4.5996094-6.4272461,4.5996094c-5.8383789,0-7.3120117-4.4824219-7.3120117-8.1376953h22.2900391
		v-1.7099609c0-9.5537109-5.1308594-16.6884766-14.8603516-16.6884766c-8.8457031,0-15.6860352,5.7792969-15.6860352,16.7470703
		S162.605957,210.3833008,171.6279297,210.3833008 M164.7871094,189.9204102
		c0.4130859-3.8330078,3.3618164-6.1328125,7.0766602-6.1328125c3.2436523,0,6.2495117,1.7109375,6.4858398,6.1328125H164.7871094z
		 M154.7807617,184.3188477v-6.6630859h-6.8989258v-2.6542969c0-2.0048828,1.4150391-2.1816406,2.9482422-2.1816406
		c2.0639648,0,3.9506836,0.1181641,3.9506836,0.1181641v-6.8994141c0,0-2.9477539-0.1181641-6.1328125-0.1181641
		c-5.8369141,0-8.7270508,2.7724609-8.7270508,7.9619141v3.7734375h-10.7319336v-2.2412109
		c0-2.0048828,1.4150391-2.1816406,2.9482422-2.1816406c2.0639648,0,3.9506836,0.1181641,3.9506836,0.1181641v-6.8994141
		c0,0-2.9477539-0.1181641-6.1318359-0.1181641c-5.8378906,0-8.7280273,2.7714844-8.7280273,7.9609375v3.3613281h-5.3071289
		v6.6630859h5.3071289v25.6513672h7.9609375v-25.6513672h10.7319336v25.6513672h7.9609375v-25.6513672H154.7807617z
		 M112.5429688,177.6557617h-7.9609375v32.3144531h7.9609375V177.6557617z M112.5429688,166.3334961h-7.9609375v7.6074219h7.9609375
		V166.3334961z M75.9951172,194.284668c0-5.7792969,2.0048828-10.3789062,7.9008789-10.3789062
		c2.8901367,0,4.8359375,1.2978516,5.8378906,3.1259766c1.0620117,1.8867188,1.0620117,4.421875,1.0620117,6.8994141
		c0,3.3017578-0.5307617,5.8378906-1.8867188,7.4882812c-1.2392578,1.5332031-3.1850586,2.359375-5.7202148,2.359375
		C76.9970703,203.7788086,75.9951172,198.3540039,75.9951172,194.284668 M82.8349609,177.2426758
		c-10.7319336,0-14.9780273,7.9609375-14.9780273,17.2783203c0,3.2431641,0.5898438,6.3681641,1.887207,8.9042969
		c2.0048828,4.0097656,5.8378906,6.9580078,12.2646484,6.9580078c3.65625,0,7.0180664-1.4150391,8.9052734-3.3027344v2.8896484
		h7.8417969v-43.6367188h-7.9599609v13.6806641C88.9091797,178.3041992,86.3730469,177.2426758,82.8349609,177.2426758"/>
	<path fill="#FFFFFF" d="M206.1425781,155.2524414v-6.7226562c0,0-1.7695312,0.1181641-3.3027344,0.1181641
		c-2.5947266,0-3.2441406-0.4130859-3.2441406-2.8300781v-16.0981445h7.2539062v-6.6640625h-7.2539062v-8.9628906h-7.9609375
		v8.9628906h-4.8935547v6.6640625h4.8935547v18.3979492c0,5.3066406,2.3007812,7.546875,8.5517578,7.546875
		C203.546875,155.6645508,206.1425781,155.2524414,206.1425781,155.2524414 M175.9033203,142.2202148
		c0,1.5332031-0.3525391,3.5976562-1.8876953,5.1894531c-1.2373047,1.2382812-3.5371094,2.1816406-6.1313477,2.1816406
		c-4.4228516,0-4.7768555-3.0078125-4.7768555-3.8916016c0-1.1796875,0.4716797-2.0644531,1.2387695-2.6542969
		c0.8842773-0.7070312,2.1230469-1.0019531,3.4199219-1.2382812c2.5351562-0.4716797,8.137207-1.296875,8.137207-1.296875
		V142.2202148z M164.7583008,136.1469727c-2.8300781,0.4121094-9.847168,2.1230469-9.847168,9.4931641
		c0,6.4863281,4.5991211,10.1425781,10.9682617,10.1425781c4.5400391,0,8.0200195-1.3564453,10.2592773-3.65625v3.2441406h8.1386719
		c0,0-0.4130859-2.0644531-0.4130859-4.5410156v-17.8076172c0-4.6591797-1.6513672-10.3793945-13.0908203-10.3793945
		c-12.0292969,0-14.5063477,6.1328125-14.5063477,10.9086914h7.6660156c0-1.0605469,0.1181641-4.421875,6.1333008-4.421875
		c4.7753906,0,5.8369141,1.6513672,5.8369141,4.1875v1.1201172L164.7583008,136.1469727z M150.8544922,155.3706055v-22.1132812
		c0-6.5458984-4.2460938-10.6147461-11.4404297-10.6147461c-4.1269531,0-7.0756836,1.6508789-9.0805664,3.8330078v-14.7421875
		h-7.9599609v43.637207h7.9599609v-18.2216797c0-5.1894531,3.0668945-7.7246094,6.9580078-7.7246094
		c3.4799805,0,5.6015625,2.0644531,5.6015625,5.8964844v20.0498047H150.8544922z M119.2182617,114.0927734h-8.4321289
		l-5.7788086,33.4936523l-6.8408203-33.4936523H88.378418l-6.6640625,33.4936523l-6.190918-33.4936523h-8.8452148
		l8.4321289,41.277832h12.0878906l6.0742188-30.4282227l6.0146484,30.4282227h11.8520508L119.2182617,114.0927734z"/>
	<path fill="#FFFFFF" d="M322.8515625,338.0405273c1.1269531,0,1.5644531,0.7363281,1.5869141,1.3095703h1.6660156
		c-0.0107422-1.0214844-0.7685547-2.7119141-3.1835938-2.7119141c-2.7597656,0-3.6914062,2.2529297-3.6914062,4.1738281
		c0,1.6455078,0.5742188,4.1269531,3.6103516,4.1269531c2.2304688,0,3.1962891-1.4707031,3.2998047-2.7695312h-1.6552734
		c-0.0107422,0.4033203-0.3212891,1.3691406-1.609375,1.3691406c-1.2080078,0-1.96875-0.9550781-1.96875-2.703125
		C320.90625,338.9946289,321.6210938,338.0405273,322.8515625,338.0405273 M317.7138672,336.7641602h-1.5859375v8.0488281h1.5859375
		V336.7641602z M314.6523438,342.3198242c0-1.0136719-0.5400391-1.5302734-1.1943359-1.8417969
		c-1.3925781-0.6787109-3.4628906-0.3671875-3.4628906-1.5751953c0-0.5751953,0.4599609-0.9550781,1.3808594-0.9550781
		c1.3339844,0.0009766,1.4609375,0.7705078,1.5068359,1.2080078h1.6318359
		c-0.1269531-1.9316406-1.5625-2.5175781-3.1738281-2.5175781c-1.5527344,0-2.9658203,0.7929688-2.9658203,2.3789062
		c0,0.7822266,0.2988281,1.3232422,0.6777344,1.6572266c1.2763672,1.1269531,4.0029297,0.5058594,4.0029297,1.8291016
		c0,0.9082031-0.9443359,1.0917969-1.6230469,1.0917969c-0.9892578,0-1.5527344-0.4365234-1.5527344-1.3212891h-1.6435547
		c0.0458984,1.8037109,1.3330078,2.6650391,3.1269531,2.6650391
		C313.3652344,344.9389648,314.6523438,344.0893555,314.6523438,342.3198242z M303.6855469,343.6079102
		c-1.0126953,0-1.703125-0.5644531-1.703125-1.6689453v-5.1748047h-1.5849609v5.0371094
		c0,2.1972656,1.4130859,3.1376953,3.2421875,3.1376953c1.8398438,0,3.2314453-0.8955078,3.2314453-3.0917969v-5.0830078h-1.5175781
		v5.1416016C305.3535156,343.0092773,304.7099609,343.6079102,303.6855469,343.6079102 M294.5058594,342.6176758
		l-1.6220703-5.8535156h-2.4951172v8.0488281h1.5859375v-5.9892578l1.7021484,5.9892578h1.6572266l1.7021484-5.9892578v5.9892578
		h1.5859375v-8.0488281h-2.4951172L294.5058594,342.6176758z M280.5664062,340.8588867
		c0-1.8408203,0.7480469-2.8183594,1.9794922-2.8183594c1.1269531,0,1.5410156,0.7363281,1.5634766,1.3095703h1.6552734
		c-0.0107422-1.0214844-0.7578125-2.7119141-3.1728516-2.7119141c-2.7597656,0-3.703125,2.2529297-3.703125,4.1738281
		c0,2.0810547,0.8740234,4.1269531,3.5654297,4.1269531c0.8857422,0,1.609375-0.3095703,2.1279297-0.8837891v0.7578125h1.4355469
		v-4.3564453h-3.4375v1.3779297h1.9208984c-0.0234375,0.6113281-0.3789062,1.7041016-1.9326172,1.7041016
		C280.9580078,343.5385742,280.5664062,342.1450195,280.5664062,340.8588867 M277.3701172,344.8129883v-8.0488281h-1.5742188
		v5.6113281l-2.9804688-5.6113281h-2.0107422v8.0488281h1.5859375v-5.65625l3.0478516,5.65625H277.3701172z
		 M268.9765625,336.7641602h-1.5859375v8.0488281h1.5859375V336.7641602z M264.3095703,344.8129883h1.9091797l-3.1396484-4.6103516
		l2.9667969-3.4384766h-1.8974609l-3.1044922,3.6914062v-3.6914062h-1.5859375v8.0488281h1.5859375v-2.2304688l1-1.1611328
		L264.3095703,344.8129883z M255.6972656,341.8364258h-2.1386719l1.0585938-3.8525391L255.6972656,341.8364258z
		 M252.7431641,344.8129883l0.4365234-1.609375h2.9091797l0.4599609,1.609375h1.7373047l-2.484375-8.0488281h-2.2998047
		l-2.4150391,8.0488281H252.7431641z M245.7919922,342.6176758l-1.6220703-5.8535156h-2.4941406v8.0488281h1.5849609v-5.9892578
		l1.703125,5.9892578h1.65625l1.7021484-5.9892578v5.9892578h1.5849609v-8.0488281h-2.4931641L245.7919922,342.6176758z
		 M237.5917969,338.1782227v-1.4140625h-6.3242188v1.4140625h2.3691406v6.6347656h1.5859375v-6.6347656H237.5917969z
		 M226.8818359,343.6079102c-1.0126953,0-1.703125-0.5644531-1.703125-1.6689453v-5.1748047h-1.5859375v5.0371094
		c0,2.1972656,1.4140625,3.1376953,3.2431641,3.1376953c1.8398438,0,3.2294922-0.8955078,3.2294922-3.0917969v-5.0830078h-1.515625
		v5.1416016C228.5498047,343.0092773,227.9052734,343.6079102,226.8818359,343.6079102 M220.4980469,340.800293
		c0,1.6796875-0.7480469,2.7382812-1.96875,2.7382812c-1.2294922,0-1.9667969-1.0585938-1.9667969-2.7382812
		c0-1.7832031,0.7373047-2.7597656,1.9667969-2.7597656C219.75,338.0405273,220.4980469,339.0170898,220.4980469,340.800293
		 M222.1748047,340.800293c0-2.6113281-1.5966797-4.1621094-3.6455078-4.1621094
		c-2.0585938,0-3.6435547,1.5507812-3.6435547,4.1621094c0,2.6230469,1.5849609,4.1386719,3.6435547,4.1386719
		C220.578125,344.9389648,222.1748047,343.4233398,222.1748047,340.800293 M212.21875,342.3647461
		c0,0.6904297-0.4140625,1.1152344-1.2207031,1.1152344h-1.9433594v-2.1503906h1.9335938
		C211.7587891,341.3295898,212.21875,341.730957,212.21875,342.3647461 M211.9658203,339.0522461
		c0,0.6328125-0.4033203,0.9902344-1.0244141,0.9902344h-1.8867188v-1.9453125h1.8642578
		C211.5166016,338.097168,211.9658203,338.4194336,211.9658203,339.0522461 M213.828125,342.456543
		c0-1.3232422-0.9316406-1.7480469-1.4023438-1.8974609c0.3789062-0.1943359,1.1142578-0.6777344,1.1142578-1.7363281
		c0-1.5527344-1.2646484-2.0585938-2.4248047-2.0585938h-3.6455078v8.0488281h3.6904297
		C213,344.8129883,213.828125,343.5844727,213.828125,342.456543 M203.7089844,341.8364258h-2.1386719l1.0585938-3.8525391
		L203.7089844,341.8364258z M200.7539062,344.8129883l0.4375-1.609375h2.9091797l0.4599609,1.609375h1.7363281l-2.484375-8.0488281
		h-2.2998047l-2.4150391,8.0488281H200.7539062z M191.0703125,342.6176758l-1.6210938-5.8535156h-2.4941406v8.0488281h1.5839844
		v-5.9892578l1.703125,5.9892578h1.65625l1.703125-5.9892578v5.9892578h1.5849609v-8.0488281h-2.4931641L191.0703125,342.6176758z
		 M185.6132812,344.8129883v-1.4121094h-3.9443359v-6.6367188h-1.5849609v8.0488281H185.6132812z M178.2558594,336.7641602
		h-1.5859375v8.0488281h1.5859375V336.7641602z M175.25,338.1782227v-1.4140625h-5.5864258v8.0488281h1.5849609v-3.0693359
		h3.7260742v-1.4375h-3.7260742v-2.1279297H175.25z M163.1655273,341.8364258h-2.1396484l1.0576172-3.8525391
		L163.1655273,341.8364258z M160.2094727,344.8129883l0.4370117-1.609375h2.9091797l0.4609375,1.609375h1.7363281
		l-2.484375-8.0488281H160.96875l-2.4150391,8.0488281H160.2094727z"/>
	<path fill="#FFFFFF" d="M129.5673828,258.690918h-3.1801758l3.1801758-4.8154297V258.690918z M132.7753906,260.3383789v-1.6474609
		h-1.215332v-6.5703125h-2.7426758l-4.2451172,6.4804688v1.7373047h4.9951172v2.1601562h1.9926758v-2.1601562H132.7753906z
		 M123.0244141,252.1206055h-1.7832031c-0.0449219,0.9150391-0.4350586,1.0654297-1.0800781,1.0654297h-0.8398438v1.7822266
		h1.5898438v7.5302734h2.1132812V252.1206055z M113.9785156,253.6635742c0.8706055,0,1.7856445,0.5703125,1.7856445,3.6464844
		c0,3.0908203-0.9150391,3.6308594-1.7856445,3.6308594c-0.8701172,0-1.7861328-0.5400391-1.7861328-3.6308594
		C112.1923828,254.2338867,113.1083984,253.6635742,113.9785156,253.6635742 M113.9785156,262.6635742
		c1.6806641,0,3.8837891-0.9140625,3.8837891-5.3535156c0-4.4404297-2.203125-5.3691406-3.8837891-5.3691406
		c-1.6811523,0-3.8842773,0.9287109-3.8842773,5.3691406C110.0942383,261.7495117,112.2973633,262.6635742,113.9785156,262.6635742
		 M104.9833984,251.940918c-2.6401367,0-3.8540039,1.6474609-3.8540039,3.8388672h2.0078125
		c0-1.6660156,0.9160156-2.0859375,1.8012695-2.0859375c0.9306641,0,1.5908203,0.5849609,1.5908203,1.4550781
		c0,0.6611328-0.1201172,1.2753906-1.1708984,2.1455078l-3.9741211,3.3007812v1.9033203h7.152832v-1.7529297h-4.5737305
		l2.7910156-2.28125c1.1240234-0.9150391,1.7827148-1.8447266,1.7827148-3.3310547
		C108.5371094,253.2583008,107.1430664,251.940918,104.9833984,251.940918 M94.0634766,253.9038086l-4.0952148,8.5947266h2.2651367
		l4.0200195-8.7148438v-1.6484375h-7.2900391v1.7685547H94.0634766z M87.3432617,252.1206055h-1.7832031
		c-0.0449219,0.9150391-0.4345703,1.0654297-1.0795898,1.0654297h-0.840332v1.7822266h1.590332v7.5302734h2.112793V252.1206055z
		 M69.8251953,252.0004883l3.4799805,6.71875v3.7792969h2.0532227v-3.7792969l3.4799805-6.71875H76.543457l-2.1889648,4.5742188
		l-2.1591797-4.5742188H69.8251953z M66.8701172,255.1342773c0,0.4199219-0.1948242,0.8251953-0.4946289,1.0810547
		c-0.3452148,0.2851562-0.8261719,0.4052734-1.5009766,0.4052734h-1.9511719v-2.8369141h2.2958984
		C66.2705078,253.7836914,66.8701172,254.2036133,66.8701172,255.1342773 M68.7285156,259.3188477
		c-0.0302734-1.0800781-0.5991211-1.7246094-1.4541016-1.9042969c1.2138672-0.5234375,1.6489258-1.5,1.6489258-2.5800781
		c0-1.515625-1.1088867-2.8339844-3.3291016-2.8339844h-4.7387695v10.4980469h2.0678711v-4.125h2.4311523
		c0.855957,0,1.2758789,0.4052734,1.3359375,1.1699219c0.0898438,1.0654297,0,2.0849609,0.2250977,2.9550781h2.1728516
		c-0.0751953-0.1201172-0.1650391-0.3447266-0.2402344-0.8544922
		C68.7880859,261.1938477,68.7583008,260.5483398,68.7285156,259.3188477 M55.9931641,258.6157227H53.203125l1.3803711-5.0253906
		L55.9931641,258.6157227z M52.1381836,262.4985352l0.5703125-2.0996094h3.7949219l0.6000977,2.0996094h2.2646484
		l-3.2397461-10.4980469h-3l-3.1499023,10.4980469H52.1381836z M44.7231445,260.925293
		c-1.3198242,0-2.2207031-0.734375-2.2207031-2.1748047v-6.75H40.434082v6.5703125
		c0,2.8642578,1.8432617,4.0927734,4.2290039,4.0927734c2.4013672,0,4.2143555-1.1689453,4.2143555-4.0332031v-6.6298828h-1.9780273
		v6.7050781C46.8994141,260.1459961,46.059082,260.925293,44.7231445,260.925293 M36.4072266,255.1342773
		c0,0.4199219-0.1958008,0.8251953-0.4960938,1.0810547c-0.3447266,0.2851562-0.824707,0.4052734-1.5,0.4052734h-1.9506836
		v-2.8369141h2.2958984C35.8061523,253.7836914,36.4072266,254.2036133,36.4072266,255.1342773 M38.2651367,259.3188477
		c-0.0297852-1.0800781-0.5996094-1.7246094-1.4536133-1.9042969c1.2138672-0.5234375,1.6489258-1.5,1.6489258-2.5800781
		c0-1.515625-1.109375-2.8339844-3.3291016-2.8339844h-4.7392578v10.4980469h2.0683594v-4.125h2.4306641
		c0.8549805,0,1.2763672,0.4052734,1.3364258,1.1699219c0.0898438,1.0654297,0,2.0849609,0.2236328,2.9550781h2.1743164
		c-0.0751953-0.1201172-0.1650391-0.3447266-0.2402344-0.8544922
		C38.3251953,261.1938477,38.2954102,260.5483398,38.2651367,259.3188477 M26.4272461,259.3041992
		c0,0.9003906-0.5400391,1.4560547-1.5898438,1.4560547H22.300293v-2.8066406h2.5219727
		C25.8271484,257.9536133,26.4272461,258.4790039,26.4272461,259.3041992 M26.097168,254.9848633
		c0,0.8261719-0.5249023,1.2910156-1.3349609,1.2910156H22.300293v-2.5371094h2.4321289
		C25.512207,253.7387695,26.097168,254.1586914,26.097168,254.9848633 M28.5253906,259.4243164
		c0-1.7255859-1.2128906-2.2792969-1.828125-2.4746094c0.4941406-0.2548828,1.453125-0.8837891,1.453125-2.2646484
		c0-2.0253906-1.6479492-2.6845703-3.1630859-2.6845703h-4.7548828v10.4980469h4.8149414
		C27.4462891,262.4985352,28.5253906,260.8959961,28.5253906,259.4243164 M18.1362305,262.4985352v-1.8427734h-5.324707v-2.5068359
		h4.8149414v-1.8730469h-4.8149414v-2.4326172h5.1748047v-1.8427734h-7.2431641v10.4980469H18.1362305z M8.9643555,253.8432617
		v-1.8427734H1.6762695v10.4980469h2.0678711v-4.0048828h4.8603516v-1.8730469H3.7441406v-2.7773438H8.9643555z"/>
	<path fill="#FFFFFF" d="M133.2509766,244.152832v-1.8427734h-5.3251953v-2.5068359h4.8154297v-1.8730469h-4.8154297v-2.4326172
		h5.175293v-1.8427734h-7.2441406v10.4980469H133.2509766z M121.6738281,236.7885742
		c0,0.4199219-0.1948242,0.8261719-0.4946289,1.0810547c-0.3452148,0.2851562-0.8261719,0.4052734-1.5009766,0.4052734h-1.9511719
		v-2.8369141h2.2958984C121.0742188,235.4379883,121.6738281,235.8579102,121.6738281,236.7885742 M123.5322266,240.9731445
		c-0.0302734-1.0800781-0.5991211-1.7246094-1.4541016-1.9042969c1.2148438-0.5234375,1.6489258-1.4990234,1.6489258-2.5800781
		c0-1.5146484-1.1088867-2.8339844-3.3291016-2.8339844h-4.7387695v10.4980469h2.0678711v-4.125h2.4311523
		c0.855957,0,1.2758789,0.4052734,1.3359375,1.1699219c0.0898438,1.0654297,0,2.0849609,0.2246094,2.9550781h2.1733398
		c-0.0751953-0.1201172-0.1650391-0.3447266-0.2402344-0.8544922
		C123.5917969,242.8481445,123.5620117,242.2026367,123.5322266,240.9731445 M113.5629883,244.152832v-1.8427734h-5.3251953
		v-2.5068359h4.8154297v-1.8730469h-4.8154297v-2.4326172h5.175293v-1.8427734h-7.2431641v10.4980469H113.5629883z
		 M103.8251953,233.6547852h-2.0683594v10.4980469h2.0683594V233.6547852z M94.0131836,241.2885742l-2.1152344-7.6337891H88.644043
		v10.4980469h2.0678711v-7.8125l2.2211914,7.8125H95.09375l2.2202148-7.8125v7.8125h2.0678711v-10.4980469h-3.2529297
		L94.0131836,241.2885742z M86.5478516,244.152832v-1.8427734h-5.324707v-2.5068359h4.8149414v-1.8730469h-4.8149414v-2.4326172
		h5.1748047v-1.8427734h-7.2431641v10.4980469H86.5478516z M74.972168,236.7885742
		c0,0.4199219-0.1953125,0.8261719-0.4951172,1.0810547c-0.3461914,0.2851562-0.8261719,0.4052734-1.5009766,0.4052734h-1.9511719
		v-2.8369141h2.2958984C74.3710938,235.4379883,74.972168,235.8579102,74.972168,236.7885742 M76.8300781,240.9731445
		c-0.0302734-1.0800781-0.6000977-1.7246094-1.4541016-1.9042969c1.2138672-0.5234375,1.6489258-1.4990234,1.6489258-2.5800781
		c0-1.5146484-1.1088867-2.8339844-3.3291016-2.8339844h-4.7387695v10.4980469h2.0678711v-4.125h2.4311523
		c0.855957,0,1.2758789,0.4052734,1.3359375,1.1699219c0.0898438,1.0654297,0,2.0849609,0.2250977,2.9550781h2.1728516
		c-0.074707-0.1201172-0.1650391-0.3447266-0.2397461-0.8544922
		C76.8901367,242.8481445,76.8598633,242.2026367,76.8300781,240.9731445 M65.1982422,237.0893555
		c0,0.8554688-0.4501953,1.6806641-1.8613281,1.6806641h-1.9360352v-3.3320312h1.980957
		C64.7329102,235.4379883,65.1982422,236.1889648,65.1982422,237.0893555 M67.355957,237.0288086
		c0-2.1152344-1.5288086-3.3740234-3.3740234-3.3740234h-4.6489258v10.4980469h2.0678711v-3.5996094h2.2363281
		c1.230957,0,2.2348633-0.4345703,2.8647461-1.1396484C67.0561523,238.800293,67.355957,237.9750977,67.355957,237.0288086
		 M51.7128906,238.8286133c0,2.8808594-1.6049805,3.5566406-2.8959961,3.5566406h-1.815918v-6.9619141h1.815918
		C50.1079102,235.4233398,51.7128906,235.9477539,51.7128906,238.8286133 M53.855957,238.7543945
		c0-3.6318359-2.0981445-5.0996094-4.5439453-5.0996094h-4.3789062v10.4980469h4.0039062
		c1.6210938,0,2.940918-0.6289062,3.7202148-1.5732422C53.4819336,241.5600586,53.855957,240.1791992,53.855957,238.7543945
		 M43.2290039,244.152832v-1.8427734h-5.1450195v-8.6552734h-2.0678711v10.4980469H43.2290039z M31.8320312,236.7885742
		c0,0.4199219-0.1948242,0.8261719-0.4951172,1.0810547c-0.3447266,0.2851562-0.824707,0.4052734-1.5009766,0.4052734h-1.9511719
		v-2.8369141h2.2963867C31.2319336,235.4379883,31.8320312,235.8579102,31.8320312,236.7885742 M33.6899414,240.9731445
		c-0.0297852-1.0800781-0.5991211-1.7246094-1.453125-1.9042969c1.2143555-0.5234375,1.6479492-1.4990234,1.6479492-2.5800781
		c0-1.5146484-1.1088867-2.8339844-3.3276367-2.8339844h-4.7402344v10.4980469h2.0678711v-4.125h2.4321289
		c0.8549805,0,1.2749023,0.4052734,1.3349609,1.1699219c0.090332,1.0654297,0,2.0849609,0.2250977,2.9550781h2.1728516
		c-0.074707-0.1201172-0.1650391-0.3447266-0.2397461-0.8544922C33.75,242.8481445,33.7202148,242.2026367,33.6899414,240.9731445
		 M21.6889648,238.918457c0,2.1914062-0.9750977,3.5712891-2.565918,3.5712891c-1.6049805,0-2.565918-1.3798828-2.565918-3.5712891
		c0-2.3251953,0.9609375-3.6005859,2.565918-3.6005859C20.7138672,235.3178711,21.6889648,236.5932617,21.6889648,238.918457
		 M23.8769531,238.918457c0-3.4052734-2.0830078-5.4287109-4.7539062-5.4287109
		c-2.6850586,0-4.7539062,2.0234375-4.7539062,5.4287109c0,3.421875,2.0688477,5.3994141,4.7539062,5.3994141
		C21.7939453,244.3178711,23.8769531,242.340332,23.8769531,238.918457 M13.3652344,233.6547852h-2.1450195L9.75,242.1733398
		l-1.7402344-8.5185547H5.5200195l-1.6948242,8.5185547L2.25,233.6547852H0l2.1450195,10.4980469h3.0751953l1.5449219-7.7382812
		l1.5297852,7.7382812h3.0151367L13.3652344,233.6547852z"/>
</g>
</svg>
