<?xml version="1.0" encoding="utf-8"?>
<!-- Generator: Adobe Illustrator 15.0.0, SVG Export Plug-In  -->
<!DOCTYPE svg PUBLIC "-//W3C//DTD SVG 1.1//EN" "http://www.w3.org/Graphics/SVG/1.1/DTD/svg11.dtd" [
	<!ENTITY ns_flows "http://ns.adobe.com/Flows/1.0/">
]>
<svg version="1.1"
	 xmlns="http://www.w3.org/2000/svg" xmlns:xlink="http://www.w3.org/1999/xlink" xmlns:a="http://ns.adobe.com/AdobeSVGViewerExtensions/3.0/"
	 x="0px" y="0px" width="142px" height="142px" viewBox="-3.094 -3.514 142 142"
	 overflow="visible" enable-background="new -3.094 -3.514 142 142" xml:space="preserve">
<defs>
</defs>
<path d="M118.369,115.781c-13.473,11.611-32.1,16.769-53.168,16.769C22.355,132.55,0,105.749,0,68.644C0,33.243,25.365,0,70.789,0
	c32.103,0,60.904,19.347,60.904,56.894c0,26.218-15.049,46.568-35.396,46.568c-6.592,0-13.896-2.299-16.62-10.313
	c-4.015,5.156-11.179,10.454-22.212,10.454c-16.627,0-26.51-12.613-26.51-30.665c0-19.637,11.033-41.98,33.39-41.98
	c9.883,0,16.336,4.434,19.053,8.587l1.006-7.306H99.31c-1.861,9.464-7.451,43.138-7.451,51.877c0,4.154,1.713,6.302,6.162,6.302
	c10.026,0,20.062-14.188,20.062-32.951c0-30.524-22.072-44.854-47.862-44.854c-35.396,0-55.312,26.79-55.312,55.308
	c0,35.973,22.928,51.875,51.445,51.875c17.192,0,34.815-5.447,45.854-15.052L118.369,115.781z M60.044,90.709
	c9.743,0,18.915-8.74,18.915-31.236c0-10.607-5.729-16.196-14.188-16.196c-14.043,0-18.914,18.774-18.914,28.798
	C45.855,84.257,50.873,90.709,60.044,90.709z"/>
</svg>
